<svg width="27" height="27" viewBox="0 0 27 27" fill="none" xmlns="http://www.w3.org/2000/svg">
<path fill-rule="evenodd" clip-rule="evenodd" d="M6.75 13.5C6.75 13.2762 6.8389 13.0616 6.99713 12.9034C7.15536 12.7451 7.36997 12.6562 7.59375 12.6562H17.3694L13.7464 9.03487C13.5879 8.87644 13.4989 8.66156 13.4989 8.4375C13.4989 8.21344 13.5879 7.99856 13.7464 7.84012C13.9048 7.68169 14.1197 7.59268 14.3438 7.59268C14.5678 7.59268 14.7827 7.68169 14.9411 7.84012L20.0036 12.9026C20.0822 12.981 20.1445 13.0741 20.1871 13.1766C20.2296 13.2791 20.2515 13.389 20.2515 13.5C20.2515 13.611 20.2296 13.7209 20.1871 13.8234C20.1445 13.9259 20.0822 14.019 20.0036 14.0974L14.9411 19.1599C14.7827 19.3183 14.5678 19.4073 14.3438 19.4073C14.1197 19.4073 13.9048 19.3183 13.7464 19.1599C13.5879 19.0014 13.4989 18.7866 13.4989 18.5625C13.4989 18.3384 13.5879 18.1236 13.7464 17.9651L17.3694 14.3437H7.59375C7.36997 14.3437 7.15536 14.2549 6.99713 14.0966C6.8389 13.9384 6.75 13.7238 6.75 13.5Z" fill="white"/>
</svg>
