<svg width="6" height="405" viewBox="0 0 6 405" fill="none" xmlns="http://www.w3.org/2000/svg">
<path d="M4 1.04922C4 1.62869 3.55228 2.09845 3 2.09845C2.44772 2.09845 2 1.62869 2 1.04922C2 0.469753 2.44772 0 3 0C3.55228 0 4 0.469753 4 1.04922Z" fill="url(#paint0_linear_856_7385)"/>
<path d="M4 9.44301C4 10.0225 3.55228 10.4922 3 10.4922C2.44772 10.4922 2 10.0225 2 9.44301C2 8.86354 2.44772 8.39378 3 8.39378C3.55228 8.39378 4 8.86354 4 9.44301Z" fill="url(#paint1_linear_856_7385)"/>
<path d="M4 17.8368C4 18.4163 3.55228 18.886 3 18.886C2.44772 18.886 2 18.4163 2 17.8368C2 17.2573 2.44772 16.7876 3 16.7876C3.55228 16.7876 4 17.2573 4 17.8368Z" fill="url(#paint2_linear_856_7385)"/>
<path d="M4 26.2306C4 26.81 3.55228 27.2798 3 27.2798C2.44772 27.2798 2 26.81 2 26.2306C2 25.6511 2.44772 25.1813 3 25.1813C3.55228 25.1813 4 25.6511 4 26.2306Z" fill="url(#paint3_linear_856_7385)"/>
<path d="M4 34.6244C4 35.2038 3.55228 35.6736 3 35.6736C2.44772 35.6736 2 35.2038 2 34.6244C2 34.0449 2.44772 33.5751 3 33.5751C3.55228 33.5751 4 34.0449 4 34.6244Z" fill="url(#paint4_linear_856_7385)"/>
<path d="M4 43.0181C4 43.5976 3.55228 44.0674 3 44.0674C2.44772 44.0674 2 43.5976 2 43.0181C2 42.4387 2.44772 41.9689 3 41.9689C3.55228 41.9689 4 42.4387 4 43.0181Z" fill="url(#paint5_linear_856_7385)"/>
<path d="M4 51.4119C4 51.9914 3.55228 52.4611 3 52.4611C2.44772 52.4611 2 51.9914 2 51.4119C2 50.8324 2.44772 50.3627 3 50.3627C3.55228 50.3627 4 50.8324 4 51.4119Z" fill="url(#paint6_linear_856_7385)"/>
<path d="M4 59.8057C4 60.3852 3.55228 60.8549 3 60.8549C2.44772 60.8549 2 60.3852 2 59.8057C2 59.2262 2.44772 58.7565 3 58.7565C3.55228 58.7565 4 59.2262 4 59.8057Z" fill="url(#paint7_linear_856_7385)"/>
<path d="M4 68.1995C4 68.779 3.55228 69.2487 3 69.2487C2.44772 69.2487 2 68.779 2 68.1995C2 67.62 2.44772 67.1503 3 67.1503C3.55228 67.1503 4 67.62 4 68.1995Z" fill="url(#paint8_linear_856_7385)"/>
<path d="M4 76.5933C4 77.1727 3.55228 77.6425 3 77.6425C2.44772 77.6425 2 77.1727 2 76.5933C2 76.0138 2.44772 75.544 3 75.544C3.55228 75.544 4 76.0138 4 76.5933Z" fill="url(#paint9_linear_856_7385)"/>
<path d="M4 84.987C4 85.5665 3.55228 86.0363 3 86.0363C2.44772 86.0363 2 85.5665 2 84.987C2 84.4076 2.44772 83.9378 3 83.9378C3.55228 83.9378 4 84.4076 4 84.987Z" fill="url(#paint10_linear_856_7385)"/>
<path d="M4 93.3808C4 93.9603 3.55228 94.4301 3 94.4301C2.44772 94.4301 2 93.9603 2 93.3808C2 92.8014 2.44772 92.3316 3 92.3316C3.55228 92.3316 4 92.8014 4 93.3808Z" fill="url(#paint11_linear_856_7385)"/>
<path d="M4 101.775C4 102.354 3.55228 102.824 3 102.824C2.44772 102.824 2 102.354 2 101.775C2 101.195 2.44772 100.725 3 100.725C3.55228 100.725 4 101.195 4 101.775Z" fill="url(#paint12_linear_856_7385)"/>
<path d="M4 110.168C4 110.748 3.55228 111.218 3 111.218C2.44772 111.218 2 110.748 2 110.168C2 109.589 2.44772 109.119 3 109.119C3.55228 109.119 4 109.589 4 110.168Z" fill="url(#paint13_linear_856_7385)"/>
<path d="M4 118.562C4 119.142 3.55228 119.611 3 119.611C2.44772 119.611 2 119.142 2 118.562C2 117.983 2.44772 117.513 3 117.513C3.55228 117.513 4 117.983 4 118.562Z" fill="url(#paint14_linear_856_7385)"/>
<path d="M4 126.956C4 127.535 3.55228 128.005 3 128.005C2.44772 128.005 2 127.535 2 126.956C2 126.376 2.44772 125.907 3 125.907C3.55228 125.907 4 126.376 4 126.956Z" fill="url(#paint15_linear_856_7385)"/>
<path d="M4 135.35C4 135.929 3.55228 136.399 3 136.399C2.44772 136.399 2 135.929 2 135.35C2 134.77 2.44772 134.301 3 134.301C3.55228 134.301 4 134.77 4 135.35Z" fill="url(#paint16_linear_856_7385)"/>
<path d="M4 143.744C4 144.323 3.55228 144.793 3 144.793C2.44772 144.793 2 144.323 2 143.744C2 143.164 2.44772 142.694 3 142.694C3.55228 142.694 4 143.164 4 143.744Z" fill="url(#paint17_linear_856_7385)"/>
<path d="M4 152.137C4 152.717 3.55228 153.187 3 153.187C2.44772 153.187 2 152.717 2 152.137C2 151.558 2.44772 151.088 3 151.088C3.55228 151.088 4 151.558 4 152.137Z" fill="url(#paint18_linear_856_7385)"/>
<path d="M4 160.531C4 161.111 3.55228 161.58 3 161.58C2.44772 161.58 2 161.111 2 160.531C2 159.952 2.44772 159.482 3 159.482C3.55228 159.482 4 159.952 4 160.531Z" fill="url(#paint19_linear_856_7385)"/>
<path d="M4 168.925C4 169.504 3.55228 169.974 3 169.974C2.44772 169.974 2 169.504 2 168.925C2 168.345 2.44772 167.876 3 167.876C3.55228 167.876 4 168.345 4 168.925Z" fill="url(#paint20_linear_856_7385)"/>
<path d="M4 177.319C4 177.898 3.55228 178.368 3 178.368C2.44772 178.368 2 177.898 2 177.319C2 176.739 2.44772 176.269 3 176.269C3.55228 176.269 4 176.739 4 177.319Z" fill="url(#paint21_linear_856_7385)"/>
<path d="M4 185.712C4 186.292 3.55228 186.762 3 186.762C2.44772 186.762 2 186.292 2 185.712C2 185.133 2.44772 184.663 3 184.663C3.55228 184.663 4 185.133 4 185.712Z" fill="url(#paint22_linear_856_7385)"/>
<path d="M4 194.106C4 194.686 3.55228 195.155 3 195.155C2.44772 195.155 2 194.686 2 194.106C2 193.527 2.44772 193.057 3 193.057C3.55228 193.057 4 193.527 4 194.106Z" fill="url(#paint23_linear_856_7385)"/>
<path d="M4 202.5C4 203.079 3.55228 203.549 3 203.549C2.44772 203.549 2 203.079 2 202.5C2 201.921 2.44772 201.451 3 201.451C3.55228 201.451 4 201.921 4 202.5Z" fill="url(#paint24_linear_856_7385)"/>
<path d="M4 210.894C4 211.473 3.55228 211.943 3 211.943C2.44772 211.943 2 211.473 2 210.894C2 210.314 2.44772 209.845 3 209.845C3.55228 209.845 4 210.314 4 210.894Z" fill="url(#paint25_linear_856_7385)"/>
<path d="M4 219.288C4 219.867 3.55228 220.337 3 220.337C2.44772 220.337 2 219.867 2 219.288C2 218.708 2.44772 218.238 3 218.238C3.55228 218.238 4 218.708 4 219.288Z" fill="url(#paint26_linear_856_7385)"/>
<path d="M4 227.681C4 228.261 3.55228 228.731 3 228.731C2.44772 228.731 2 228.261 2 227.681C2 227.102 2.44772 226.632 3 226.632C3.55228 226.632 4 227.102 4 227.681Z" fill="url(#paint27_linear_856_7385)"/>
<path d="M4 236.075C4 236.655 3.55228 237.124 3 237.124C2.44772 237.124 2 236.655 2 236.075C2 235.496 2.44772 235.026 3 235.026C3.55228 235.026 4 235.496 4 236.075Z" fill="url(#paint28_linear_856_7385)"/>
<path d="M4 244.469C4 245.048 3.55228 245.518 3 245.518C2.44772 245.518 2 245.048 2 244.469C2 243.889 2.44772 243.42 3 243.42C3.55228 243.42 4 243.889 4 244.469Z" fill="url(#paint29_linear_856_7385)"/>
<path d="M4 252.863C4 253.442 3.55228 253.912 3 253.912C2.44772 253.912 2 253.442 2 252.863C2 252.283 2.44772 251.813 3 251.813C3.55228 251.813 4 252.283 4 252.863Z" fill="url(#paint30_linear_856_7385)"/>
<path d="M4 261.256C4 261.836 3.55228 262.306 3 262.306C2.44772 262.306 2 261.836 2 261.256C2 260.677 2.44772 260.207 3 260.207C3.55228 260.207 4 260.677 4 261.256Z" fill="url(#paint31_linear_856_7385)"/>
<path d="M4 269.65C4 270.23 3.55228 270.699 3 270.699C2.44772 270.699 2 270.23 2 269.65C2 269.071 2.44772 268.601 3 268.601C3.55228 268.601 4 269.071 4 269.65Z" fill="url(#paint32_linear_856_7385)"/>
<path d="M4 278.044C4 278.624 3.55228 279.093 3 279.093C2.44772 279.093 2 278.624 2 278.044C2 277.465 2.44772 276.995 3 276.995C3.55228 276.995 4 277.465 4 278.044Z" fill="url(#paint33_linear_856_7385)"/>
<path d="M4 286.438C4 287.017 3.55228 287.487 3 287.487C2.44772 287.487 2 287.017 2 286.438C2 285.858 2.44772 285.389 3 285.389C3.55228 285.389 4 285.858 4 286.438Z" fill="url(#paint34_linear_856_7385)"/>
<path d="M4 294.832C4 295.411 3.55228 295.881 3 295.881C2.44772 295.881 2 295.411 2 294.832C2 294.252 2.44772 293.782 3 293.782C3.55228 293.782 4 294.252 4 294.832Z" fill="url(#paint35_linear_856_7385)"/>
<path d="M4 303.225C4 303.805 3.55228 304.275 3 304.275C2.44772 304.275 2 303.805 2 303.225C2 302.646 2.44772 302.176 3 302.176C3.55228 302.176 4 302.646 4 303.225Z" fill="url(#paint36_linear_856_7385)"/>
<path d="M4 311.619C4 312.199 3.55228 312.668 3 312.668C2.44772 312.668 2 312.199 2 311.619C2 311.04 2.44772 310.57 3 310.57C3.55228 310.57 4 311.04 4 311.619Z" fill="url(#paint37_linear_856_7385)"/>
<path d="M4 320.013C4 320.592 3.55228 321.062 3 321.062C2.44772 321.062 2 320.592 2 320.013C2 319.434 2.44772 318.964 3 318.964C3.55228 318.964 4 319.434 4 320.013Z" fill="url(#paint38_linear_856_7385)"/>
<path d="M4 328.407C4 328.986 3.55228 329.456 3 329.456C2.44772 329.456 2 328.986 2 328.407C2 327.827 2.44772 327.358 3 327.358C3.55228 327.358 4 327.827 4 328.407Z" fill="url(#paint39_linear_856_7385)"/>
<path d="M4 336.801C4 337.38 3.55228 337.85 3 337.85C2.44772 337.85 2 337.38 2 336.801C2 336.221 2.44772 335.751 3 335.751C3.55228 335.751 4 336.221 4 336.801Z" fill="url(#paint40_linear_856_7385)"/>
<path d="M4 345.194C4 345.774 3.55228 346.244 3 346.244C2.44772 346.244 2 345.774 2 345.194C2 344.615 2.44772 344.145 3 344.145C3.55228 344.145 4 344.615 4 345.194Z" fill="url(#paint41_linear_856_7385)"/>
<path d="M4 353.588C4 354.168 3.55228 354.637 3 354.637C2.44772 354.637 2 354.168 2 353.588C2 353.009 2.44772 352.539 3 352.539C3.55228 352.539 4 353.009 4 353.588Z" fill="url(#paint42_linear_856_7385)"/>
<path d="M4 361.982C4 362.561 3.55228 363.031 3 363.031C2.44772 363.031 2 362.561 2 361.982C2 361.402 2.44772 360.933 3 360.933C3.55228 360.933 4 361.402 4 361.982Z" fill="url(#paint43_linear_856_7385)"/>
<path d="M4 370.376C4 370.955 3.55228 371.425 3 371.425C2.44772 371.425 2 370.955 2 370.376C2 369.796 2.44772 369.326 3 369.326C3.55228 369.326 4 369.796 4 370.376Z" fill="url(#paint44_linear_856_7385)"/>
<path d="M4 378.769C4 379.349 3.55228 379.819 3 379.819C2.44772 379.819 2 379.349 2 378.769C2 378.19 2.44772 377.72 3 377.72C3.55228 377.72 4 378.19 4 378.769Z" fill="url(#paint45_linear_856_7385)"/>
<path d="M4 387.163C4 387.743 3.55228 388.212 3 388.212C2.44772 388.212 2 387.743 2 387.163C2 386.584 2.44772 386.114 3 386.114C3.55228 386.114 4 386.584 4 387.163Z" fill="url(#paint46_linear_856_7385)"/>
<path d="M4 395.557C4 396.136 3.55228 396.606 3 396.606C2.44772 396.606 2 396.136 2 395.557C2 394.978 2.44772 394.508 3 394.508C3.55228 394.508 4 394.978 4 395.557Z" fill="url(#paint47_linear_856_7385)"/>
<path d="M4 403.951C4 404.53 3.55228 405 3 405C2.44772 405 2 404.53 2 403.951C2 403.371 2.44772 402.902 3 402.902C3.55228 402.902 4 403.371 4 403.951Z" fill="url(#paint48_linear_856_7385)"/>
<defs>
<linearGradient id="paint0_linear_856_7385" x1="207" y1="36.7228" x2="207" y2="421.788" gradientUnits="userSpaceOnUse">
<stop stop-color="#1E1E1E" stop-opacity="0.01"/>
<stop offset="0.197917" stop-color="#131313" stop-opacity="0.24"/>
<stop offset="0.354167" stop-opacity="0.06"/>
<stop offset="1" stop-color="#1E1E1E"/>
</linearGradient>
<linearGradient id="paint1_linear_856_7385" x1="207" y1="36.7228" x2="207" y2="421.788" gradientUnits="userSpaceOnUse">
<stop stop-color="#1E1E1E" stop-opacity="0.01"/>
<stop offset="0.197917" stop-color="#131313" stop-opacity="0.24"/>
<stop offset="0.354167" stop-opacity="0.06"/>
<stop offset="1" stop-color="#1E1E1E"/>
</linearGradient>
<linearGradient id="paint2_linear_856_7385" x1="207" y1="36.7228" x2="207" y2="421.788" gradientUnits="userSpaceOnUse">
<stop stop-color="#1E1E1E" stop-opacity="0.01"/>
<stop offset="0.197917" stop-color="#131313" stop-opacity="0.24"/>
<stop offset="0.354167" stop-opacity="0.06"/>
<stop offset="1" stop-color="#1E1E1E"/>
</linearGradient>
<linearGradient id="paint3_linear_856_7385" x1="207" y1="36.7228" x2="207" y2="421.788" gradientUnits="userSpaceOnUse">
<stop stop-color="#1E1E1E" stop-opacity="0.01"/>
<stop offset="0.197917" stop-color="#131313" stop-opacity="0.24"/>
<stop offset="0.354167" stop-opacity="0.06"/>
<stop offset="1" stop-color="#1E1E1E"/>
</linearGradient>
<linearGradient id="paint4_linear_856_7385" x1="207" y1="36.7228" x2="207" y2="421.788" gradientUnits="userSpaceOnUse">
<stop stop-color="#1E1E1E" stop-opacity="0.01"/>
<stop offset="0.197917" stop-color="#131313" stop-opacity="0.24"/>
<stop offset="0.354167" stop-opacity="0.06"/>
<stop offset="1" stop-color="#1E1E1E"/>
</linearGradient>
<linearGradient id="paint5_linear_856_7385" x1="207" y1="36.7228" x2="207" y2="421.788" gradientUnits="userSpaceOnUse">
<stop stop-color="#1E1E1E" stop-opacity="0.01"/>
<stop offset="0.197917" stop-color="#131313" stop-opacity="0.24"/>
<stop offset="0.354167" stop-opacity="0.06"/>
<stop offset="1" stop-color="#1E1E1E"/>
</linearGradient>
<linearGradient id="paint6_linear_856_7385" x1="207" y1="36.7228" x2="207" y2="421.788" gradientUnits="userSpaceOnUse">
<stop stop-color="#1E1E1E" stop-opacity="0.01"/>
<stop offset="0.197917" stop-color="#131313" stop-opacity="0.24"/>
<stop offset="0.354167" stop-opacity="0.06"/>
<stop offset="1" stop-color="#1E1E1E"/>
</linearGradient>
<linearGradient id="paint7_linear_856_7385" x1="207" y1="36.7228" x2="207" y2="421.788" gradientUnits="userSpaceOnUse">
<stop stop-color="#1E1E1E" stop-opacity="0.01"/>
<stop offset="0.197917" stop-color="#131313" stop-opacity="0.24"/>
<stop offset="0.354167" stop-opacity="0.06"/>
<stop offset="1" stop-color="#1E1E1E"/>
</linearGradient>
<linearGradient id="paint8_linear_856_7385" x1="207" y1="36.7228" x2="207" y2="421.788" gradientUnits="userSpaceOnUse">
<stop stop-color="#1E1E1E" stop-opacity="0.01"/>
<stop offset="0.197917" stop-color="#131313" stop-opacity="0.24"/>
<stop offset="0.354167" stop-opacity="0.06"/>
<stop offset="1" stop-color="#1E1E1E"/>
</linearGradient>
<linearGradient id="paint9_linear_856_7385" x1="207" y1="36.7228" x2="207" y2="421.788" gradientUnits="userSpaceOnUse">
<stop stop-color="#1E1E1E" stop-opacity="0.01"/>
<stop offset="0.197917" stop-color="#131313" stop-opacity="0.24"/>
<stop offset="0.354167" stop-opacity="0.06"/>
<stop offset="1" stop-color="#1E1E1E"/>
</linearGradient>
<linearGradient id="paint10_linear_856_7385" x1="207" y1="36.7228" x2="207" y2="421.788" gradientUnits="userSpaceOnUse">
<stop stop-color="#1E1E1E" stop-opacity="0.01"/>
<stop offset="0.197917" stop-color="#131313" stop-opacity="0.24"/>
<stop offset="0.354167" stop-opacity="0.06"/>
<stop offset="1" stop-color="#1E1E1E"/>
</linearGradient>
<linearGradient id="paint11_linear_856_7385" x1="207" y1="36.7228" x2="207" y2="421.788" gradientUnits="userSpaceOnUse">
<stop stop-color="#1E1E1E" stop-opacity="0.01"/>
<stop offset="0.197917" stop-color="#131313" stop-opacity="0.24"/>
<stop offset="0.354167" stop-opacity="0.06"/>
<stop offset="1" stop-color="#1E1E1E"/>
</linearGradient>
<linearGradient id="paint12_linear_856_7385" x1="207" y1="36.7228" x2="207" y2="421.788" gradientUnits="userSpaceOnUse">
<stop stop-color="#1E1E1E" stop-opacity="0.01"/>
<stop offset="0.197917" stop-color="#131313" stop-opacity="0.24"/>
<stop offset="0.354167" stop-opacity="0.06"/>
<stop offset="1" stop-color="#1E1E1E"/>
</linearGradient>
<linearGradient id="paint13_linear_856_7385" x1="207" y1="36.7228" x2="207" y2="421.788" gradientUnits="userSpaceOnUse">
<stop stop-color="#1E1E1E" stop-opacity="0.01"/>
<stop offset="0.197917" stop-color="#131313" stop-opacity="0.24"/>
<stop offset="0.354167" stop-opacity="0.06"/>
<stop offset="1" stop-color="#1E1E1E"/>
</linearGradient>
<linearGradient id="paint14_linear_856_7385" x1="207" y1="36.7228" x2="207" y2="421.788" gradientUnits="userSpaceOnUse">
<stop stop-color="#1E1E1E" stop-opacity="0.01"/>
<stop offset="0.197917" stop-color="#131313" stop-opacity="0.24"/>
<stop offset="0.354167" stop-opacity="0.06"/>
<stop offset="1" stop-color="#1E1E1E"/>
</linearGradient>
<linearGradient id="paint15_linear_856_7385" x1="207" y1="36.7228" x2="207" y2="421.788" gradientUnits="userSpaceOnUse">
<stop stop-color="#1E1E1E" stop-opacity="0.01"/>
<stop offset="0.197917" stop-color="#131313" stop-opacity="0.24"/>
<stop offset="0.354167" stop-opacity="0.06"/>
<stop offset="1" stop-color="#1E1E1E"/>
</linearGradient>
<linearGradient id="paint16_linear_856_7385" x1="207" y1="36.7228" x2="207" y2="421.788" gradientUnits="userSpaceOnUse">
<stop stop-color="#1E1E1E" stop-opacity="0.01"/>
<stop offset="0.197917" stop-color="#131313" stop-opacity="0.24"/>
<stop offset="0.354167" stop-opacity="0.06"/>
<stop offset="1" stop-color="#1E1E1E"/>
</linearGradient>
<linearGradient id="paint17_linear_856_7385" x1="207" y1="36.7228" x2="207" y2="421.788" gradientUnits="userSpaceOnUse">
<stop stop-color="#1E1E1E" stop-opacity="0.01"/>
<stop offset="0.197917" stop-color="#131313" stop-opacity="0.24"/>
<stop offset="0.354167" stop-opacity="0.06"/>
<stop offset="1" stop-color="#1E1E1E"/>
</linearGradient>
<linearGradient id="paint18_linear_856_7385" x1="207" y1="36.7228" x2="207" y2="421.788" gradientUnits="userSpaceOnUse">
<stop stop-color="#1E1E1E" stop-opacity="0.01"/>
<stop offset="0.197917" stop-color="#131313" stop-opacity="0.24"/>
<stop offset="0.354167" stop-opacity="0.06"/>
<stop offset="1" stop-color="#1E1E1E"/>
</linearGradient>
<linearGradient id="paint19_linear_856_7385" x1="207" y1="36.7228" x2="207" y2="421.788" gradientUnits="userSpaceOnUse">
<stop stop-color="#1E1E1E" stop-opacity="0.01"/>
<stop offset="0.197917" stop-color="#131313" stop-opacity="0.24"/>
<stop offset="0.354167" stop-opacity="0.06"/>
<stop offset="1" stop-color="#1E1E1E"/>
</linearGradient>
<linearGradient id="paint20_linear_856_7385" x1="207" y1="36.7228" x2="207" y2="421.788" gradientUnits="userSpaceOnUse">
<stop stop-color="#1E1E1E" stop-opacity="0.01"/>
<stop offset="0.197917" stop-color="#131313" stop-opacity="0.24"/>
<stop offset="0.354167" stop-opacity="0.06"/>
<stop offset="1" stop-color="#1E1E1E"/>
</linearGradient>
<linearGradient id="paint21_linear_856_7385" x1="207" y1="36.7228" x2="207" y2="421.788" gradientUnits="userSpaceOnUse">
<stop stop-color="#1E1E1E" stop-opacity="0.01"/>
<stop offset="0.197917" stop-color="#131313" stop-opacity="0.24"/>
<stop offset="0.354167" stop-opacity="0.06"/>
<stop offset="1" stop-color="#1E1E1E"/>
</linearGradient>
<linearGradient id="paint22_linear_856_7385" x1="207" y1="36.7228" x2="207" y2="421.788" gradientUnits="userSpaceOnUse">
<stop stop-color="#1E1E1E" stop-opacity="0.01"/>
<stop offset="0.197917" stop-color="#131313" stop-opacity="0.24"/>
<stop offset="0.354167" stop-opacity="0.06"/>
<stop offset="1" stop-color="#1E1E1E"/>
</linearGradient>
<linearGradient id="paint23_linear_856_7385" x1="207" y1="36.7228" x2="207" y2="421.788" gradientUnits="userSpaceOnUse">
<stop stop-color="#1E1E1E" stop-opacity="0.01"/>
<stop offset="0.197917" stop-color="#131313" stop-opacity="0.24"/>
<stop offset="0.354167" stop-opacity="0.06"/>
<stop offset="1" stop-color="#1E1E1E"/>
</linearGradient>
<linearGradient id="paint24_linear_856_7385" x1="207" y1="36.7228" x2="207" y2="421.788" gradientUnits="userSpaceOnUse">
<stop stop-color="#1E1E1E" stop-opacity="0.01"/>
<stop offset="0.197917" stop-color="#131313" stop-opacity="0.24"/>
<stop offset="0.354167" stop-opacity="0.06"/>
<stop offset="1" stop-color="#1E1E1E"/>
</linearGradient>
<linearGradient id="paint25_linear_856_7385" x1="207" y1="36.7228" x2="207" y2="421.788" gradientUnits="userSpaceOnUse">
<stop stop-color="#1E1E1E" stop-opacity="0.01"/>
<stop offset="0.197917" stop-color="#131313" stop-opacity="0.24"/>
<stop offset="0.354167" stop-opacity="0.06"/>
<stop offset="1" stop-color="#1E1E1E"/>
</linearGradient>
<linearGradient id="paint26_linear_856_7385" x1="207" y1="36.7228" x2="207" y2="421.788" gradientUnits="userSpaceOnUse">
<stop stop-color="#1E1E1E" stop-opacity="0.01"/>
<stop offset="0.197917" stop-color="#131313" stop-opacity="0.24"/>
<stop offset="0.354167" stop-opacity="0.06"/>
<stop offset="1" stop-color="#1E1E1E"/>
</linearGradient>
<linearGradient id="paint27_linear_856_7385" x1="207" y1="36.7228" x2="207" y2="421.788" gradientUnits="userSpaceOnUse">
<stop stop-color="#1E1E1E" stop-opacity="0.01"/>
<stop offset="0.197917" stop-color="#131313" stop-opacity="0.24"/>
<stop offset="0.354167" stop-opacity="0.06"/>
<stop offset="1" stop-color="#1E1E1E"/>
</linearGradient>
<linearGradient id="paint28_linear_856_7385" x1="207" y1="36.7228" x2="207" y2="421.788" gradientUnits="userSpaceOnUse">
<stop stop-color="#1E1E1E" stop-opacity="0.01"/>
<stop offset="0.197917" stop-color="#131313" stop-opacity="0.24"/>
<stop offset="0.354167" stop-opacity="0.06"/>
<stop offset="1" stop-color="#1E1E1E"/>
</linearGradient>
<linearGradient id="paint29_linear_856_7385" x1="207" y1="36.7228" x2="207" y2="421.788" gradientUnits="userSpaceOnUse">
<stop stop-color="#1E1E1E" stop-opacity="0.01"/>
<stop offset="0.197917" stop-color="#131313" stop-opacity="0.24"/>
<stop offset="0.354167" stop-opacity="0.06"/>
<stop offset="1" stop-color="#1E1E1E"/>
</linearGradient>
<linearGradient id="paint30_linear_856_7385" x1="207" y1="36.7228" x2="207" y2="421.788" gradientUnits="userSpaceOnUse">
<stop stop-color="#1E1E1E" stop-opacity="0.01"/>
<stop offset="0.197917" stop-color="#131313" stop-opacity="0.24"/>
<stop offset="0.354167" stop-opacity="0.06"/>
<stop offset="1" stop-color="#1E1E1E"/>
</linearGradient>
<linearGradient id="paint31_linear_856_7385" x1="207" y1="36.7228" x2="207" y2="421.788" gradientUnits="userSpaceOnUse">
<stop stop-color="#1E1E1E" stop-opacity="0.01"/>
<stop offset="0.197917" stop-color="#131313" stop-opacity="0.24"/>
<stop offset="0.354167" stop-opacity="0.06"/>
<stop offset="1" stop-color="#1E1E1E"/>
</linearGradient>
<linearGradient id="paint32_linear_856_7385" x1="207" y1="36.7228" x2="207" y2="421.788" gradientUnits="userSpaceOnUse">
<stop stop-color="#1E1E1E" stop-opacity="0.01"/>
<stop offset="0.197917" stop-color="#131313" stop-opacity="0.24"/>
<stop offset="0.354167" stop-opacity="0.06"/>
<stop offset="1" stop-color="#1E1E1E"/>
</linearGradient>
<linearGradient id="paint33_linear_856_7385" x1="207" y1="36.7228" x2="207" y2="421.788" gradientUnits="userSpaceOnUse">
<stop stop-color="#1E1E1E" stop-opacity="0.01"/>
<stop offset="0.197917" stop-color="#131313" stop-opacity="0.24"/>
<stop offset="0.354167" stop-opacity="0.06"/>
<stop offset="1" stop-color="#1E1E1E"/>
</linearGradient>
<linearGradient id="paint34_linear_856_7385" x1="207" y1="36.7228" x2="207" y2="421.788" gradientUnits="userSpaceOnUse">
<stop stop-color="#1E1E1E" stop-opacity="0.01"/>
<stop offset="0.197917" stop-color="#131313" stop-opacity="0.24"/>
<stop offset="0.354167" stop-opacity="0.06"/>
<stop offset="1" stop-color="#1E1E1E"/>
</linearGradient>
<linearGradient id="paint35_linear_856_7385" x1="207" y1="36.7228" x2="207" y2="421.788" gradientUnits="userSpaceOnUse">
<stop stop-color="#1E1E1E" stop-opacity="0.01"/>
<stop offset="0.197917" stop-color="#131313" stop-opacity="0.24"/>
<stop offset="0.354167" stop-opacity="0.06"/>
<stop offset="1" stop-color="#1E1E1E"/>
</linearGradient>
<linearGradient id="paint36_linear_856_7385" x1="207" y1="36.7228" x2="207" y2="421.788" gradientUnits="userSpaceOnUse">
<stop stop-color="#1E1E1E" stop-opacity="0.01"/>
<stop offset="0.197917" stop-color="#131313" stop-opacity="0.24"/>
<stop offset="0.354167" stop-opacity="0.06"/>
<stop offset="1" stop-color="#1E1E1E"/>
</linearGradient>
<linearGradient id="paint37_linear_856_7385" x1="207" y1="36.7228" x2="207" y2="421.788" gradientUnits="userSpaceOnUse">
<stop stop-color="#1E1E1E" stop-opacity="0.01"/>
<stop offset="0.197917" stop-color="#131313" stop-opacity="0.24"/>
<stop offset="0.354167" stop-opacity="0.06"/>
<stop offset="1" stop-color="#1E1E1E"/>
</linearGradient>
<linearGradient id="paint38_linear_856_7385" x1="207" y1="36.7228" x2="207" y2="421.788" gradientUnits="userSpaceOnUse">
<stop stop-color="#1E1E1E" stop-opacity="0.01"/>
<stop offset="0.197917" stop-color="#131313" stop-opacity="0.24"/>
<stop offset="0.354167" stop-opacity="0.06"/>
<stop offset="1" stop-color="#1E1E1E"/>
</linearGradient>
<linearGradient id="paint39_linear_856_7385" x1="207" y1="36.7228" x2="207" y2="421.788" gradientUnits="userSpaceOnUse">
<stop stop-color="#1E1E1E" stop-opacity="0.01"/>
<stop offset="0.197917" stop-color="#131313" stop-opacity="0.24"/>
<stop offset="0.354167" stop-opacity="0.06"/>
<stop offset="1" stop-color="#1E1E1E"/>
</linearGradient>
<linearGradient id="paint40_linear_856_7385" x1="207" y1="36.7228" x2="207" y2="421.788" gradientUnits="userSpaceOnUse">
<stop stop-color="#1E1E1E" stop-opacity="0.01"/>
<stop offset="0.197917" stop-color="#131313" stop-opacity="0.24"/>
<stop offset="0.354167" stop-opacity="0.06"/>
<stop offset="1" stop-color="#1E1E1E"/>
</linearGradient>
<linearGradient id="paint41_linear_856_7385" x1="207" y1="36.7228" x2="207" y2="421.788" gradientUnits="userSpaceOnUse">
<stop stop-color="#1E1E1E" stop-opacity="0.01"/>
<stop offset="0.197917" stop-color="#131313" stop-opacity="0.24"/>
<stop offset="0.354167" stop-opacity="0.06"/>
<stop offset="1" stop-color="#1E1E1E"/>
</linearGradient>
<linearGradient id="paint42_linear_856_7385" x1="207" y1="36.7228" x2="207" y2="421.788" gradientUnits="userSpaceOnUse">
<stop stop-color="#1E1E1E" stop-opacity="0.01"/>
<stop offset="0.197917" stop-color="#131313" stop-opacity="0.24"/>
<stop offset="0.354167" stop-opacity="0.06"/>
<stop offset="1" stop-color="#1E1E1E"/>
</linearGradient>
<linearGradient id="paint43_linear_856_7385" x1="207" y1="36.7228" x2="207" y2="421.788" gradientUnits="userSpaceOnUse">
<stop stop-color="#1E1E1E" stop-opacity="0.01"/>
<stop offset="0.197917" stop-color="#131313" stop-opacity="0.24"/>
<stop offset="0.354167" stop-opacity="0.06"/>
<stop offset="1" stop-color="#1E1E1E"/>
</linearGradient>
<linearGradient id="paint44_linear_856_7385" x1="207" y1="36.7228" x2="207" y2="421.788" gradientUnits="userSpaceOnUse">
<stop stop-color="#1E1E1E" stop-opacity="0.01"/>
<stop offset="0.197917" stop-color="#131313" stop-opacity="0.24"/>
<stop offset="0.354167" stop-opacity="0.06"/>
<stop offset="1" stop-color="#1E1E1E"/>
</linearGradient>
<linearGradient id="paint45_linear_856_7385" x1="207" y1="36.7228" x2="207" y2="421.788" gradientUnits="userSpaceOnUse">
<stop stop-color="#1E1E1E" stop-opacity="0.01"/>
<stop offset="0.197917" stop-color="#131313" stop-opacity="0.24"/>
<stop offset="0.354167" stop-opacity="0.06"/>
<stop offset="1" stop-color="#1E1E1E"/>
</linearGradient>
<linearGradient id="paint46_linear_856_7385" x1="207" y1="36.7228" x2="207" y2="421.788" gradientUnits="userSpaceOnUse">
<stop stop-color="#1E1E1E" stop-opacity="0.01"/>
<stop offset="0.197917" stop-color="#131313" stop-opacity="0.24"/>
<stop offset="0.354167" stop-opacity="0.06"/>
<stop offset="1" stop-color="#1E1E1E"/>
</linearGradient>
<linearGradient id="paint47_linear_856_7385" x1="207" y1="36.7228" x2="207" y2="421.788" gradientUnits="userSpaceOnUse">
<stop stop-color="#1E1E1E" stop-opacity="0.01"/>
<stop offset="0.197917" stop-color="#131313" stop-opacity="0.24"/>
<stop offset="0.354167" stop-opacity="0.06"/>
<stop offset="1" stop-color="#1E1E1E"/>
</linearGradient>
<linearGradient id="paint48_linear_856_7385" x1="207" y1="36.7228" x2="207" y2="421.788" gradientUnits="userSpaceOnUse">
<stop stop-color="#1E1E1E" stop-opacity="0.01"/>
<stop offset="0.197917" stop-color="#131313" stop-opacity="0.24"/>
<stop offset="0.354167" stop-opacity="0.06"/>
<stop offset="1" stop-color="#1E1E1E"/>
</linearGradient>
</defs>
</svg>
