<svg width="20" height="20" viewBox="0 0 20 20" fill="none" xmlns="http://www.w3.org/2000/svg">
<g clip-path="url(#clip0_474_5499)">
<path d="M15.2126 11.9125C18.0963 8.67252 19.3101 6.05752 19.7638 4.14002C20.0263 3.03127 20.0313 2.16502 19.9638 1.55877C19.9377 1.32095 19.8926 1.08561 19.8288 0.85502C19.8016 0.757479 19.769 0.661502 19.7313 0.56752V0.56627C19.6401 0.36127 19.5213 0.27377 19.2913 0.19752C19.2253 0.176417 19.1586 0.157656 19.0913 0.14127C18.8571 0.0844874 18.6189 0.0456251 18.3788 0.0250197C17.7663 -0.0299803 16.8913 -0.0124803 15.7788 0.26002C13.8588 0.72752 11.2563 1.93877 8.07757 4.76502L5.07757 5.06252H5.07008C4.34924 5.14289 3.6773 5.46651 3.16508 5.98002L0.187575 8.96252C0.0932687 9.05749 0.0311093 9.17964 0.00984147 9.31178C-0.0114263 9.44392 0.00926775 9.5794 0.0690125 9.69916C0.128757 9.81893 0.224546 9.91695 0.342904 9.97944C0.461261 10.0419 0.596231 10.0657 0.728825 10.0475L3.09883 9.70877C3.44883 9.65877 3.83882 9.72502 4.29257 9.87377C4.58257 9.96877 4.83883 10.0738 5.11133 10.1838L5.36507 10.2875C5.61007 11.3075 6.19007 12.2625 6.95882 13.0313C7.72507 13.7988 8.67882 14.3813 9.69757 14.6275L9.80007 14.88C9.91132 15.1525 10.0163 15.41 10.1113 15.7013C10.2588 16.155 10.3263 16.5463 10.2763 16.8963L9.93757 19.2713C9.91969 19.4036 9.94366 19.5382 10.0061 19.6563C10.0686 19.7743 10.1664 19.8699 10.2859 19.9295C10.4053 19.9892 10.5405 20.01 10.6724 19.989C10.8042 19.968 10.9263 19.9063 11.0213 19.8125L13.9988 16.83C14.5113 16.3175 14.8338 15.6438 14.9138 14.9225L15.2138 11.9125H15.2126ZM15.3501 7.28877C14.3538 8.28877 12.9376 8.49002 12.1901 7.74127C11.4426 6.99127 11.6451 5.57502 12.6413 4.57627C13.6388 3.57752 15.0538 3.37627 15.8013 4.12502C16.5501 4.87377 16.3476 6.29002 15.3513 7.28877H15.3501Z" fill="#EAEAEA"/>
<path d="M6.50627 13.4838C7.17013 14.1556 7.93008 14.7252 8.76127 15.1738C7.36377 16.4325 2.60002 17.7088 2.44377 17.5525C2.28627 17.3938 3.36502 12.3163 4.74252 11.0775C5.17502 11.94 5.78877 12.765 6.50627 13.4838V13.4838Z" fill="#EAEAEA"/>
</g>
<defs>
<clipPath id="clip0_474_5499">
<rect width="20" height="20" fill="white"/>
</clipPath>
</defs>
</svg>
