<svg width="20" height="20" viewBox="0 0 20 20" fill="none" xmlns="http://www.w3.org/2000/svg">
<g clip-path="url(#clip0_117_1210)">
<path d="M19.9552 0.857441C20.0007 0.743861 20.0118 0.619435 19.9872 0.49959C19.9626 0.379745 19.9034 0.26975 19.8169 0.183242C19.7304 0.0967335 19.6204 0.0375166 19.5006 0.0129323C19.3807 -0.011652 19.2563 -0.000522637 19.1427 0.0449407L0.958955 7.31869H0.957705L0.392705 7.54369C0.285693 7.58638 0.192562 7.65781 0.123599 7.7501C0.054637 7.8424 0.0125273 7.95195 0.0019216 8.06668C-0.00868407 8.1814 0.0126271 8.29682 0.063501 8.40019C0.114375 8.50356 0.192832 8.59086 0.290205 8.65244L0.802705 8.97744L0.803955 8.97994L7.0477 12.9524L11.0202 19.1962L11.0227 19.1987L11.3477 19.7112C11.4095 19.8082 11.4968 19.8863 11.6001 19.9368C11.7034 19.9874 11.8187 20.0084 11.9332 19.9977C12.0477 19.987 12.157 19.9449 12.2491 19.876C12.3412 19.8072 12.4125 19.7142 12.4552 19.6074L19.9552 0.857441ZM17.664 3.21994L8.29645 12.5874L8.0277 12.1649C7.97846 12.0874 7.91274 12.0217 7.8352 11.9724L7.4127 11.7037L16.7802 2.33619L18.2527 1.74744L17.6652 3.21994H17.664Z" fill="#EAEAEA"/>
</g>
<defs>
<clipPath id="clip0_117_1210">
<rect width="20" height="20" fill="white"/>
</clipPath>
</defs>
</svg>
