<svg width="75" height="75" viewBox="0 0 75 75" fill="none" xmlns="http://www.w3.org/2000/svg">
<mask id="mask0_22_1204" style="mask-type:alpha" maskUnits="userSpaceOnUse" x="0" y="0" width="75" height="75">
<circle cx="37.377" cy="37.377" r="37.377" fill="#D9D9D9"/>
</mask>
<g mask="url(#mask0_22_1204)">
<path d="M57.8678 68.2353C57.6963 68.3578 57.5002 68.4804 57.3286 68.6029C57.1325 68.7255 56.961 68.848 56.7649 68.9461C56.5933 69.0441 56.4463 69.1421 56.2747 69.2402C56.2502 69.2647 56.2257 69.2647 56.2012 69.2892C55.6374 69.6323 55.0492 69.951 54.461 70.2451C54.2894 70.3431 54.0933 70.4412 53.9218 70.5147C53.9218 70.5147 53.8972 70.5392 53.8727 70.5392C53.6767 70.6372 53.4806 70.7353 53.2845 70.8333C52.8923 71.0294 52.4757 71.201 52.0835 71.3725C51.8874 71.4706 51.6669 71.5441 51.4708 71.6176C51.2747 71.6912 51.0541 71.7892 50.858 71.8627C50.662 71.9363 50.4414 72.0343 50.2453 72.1078C50.2453 72.1078 50.2453 72.1078 50.2208 72.1078C50.0247 72.1814 49.8041 72.2549 49.608 72.3284C49.1669 72.4755 48.7012 72.6225 48.26 72.7696C48.1129 72.8186 47.9414 72.8676 47.7943 72.9167C47.3286 73.0637 46.8629 73.1863 46.3972 73.2843C46.2257 73.3333 46.0541 73.3578 45.858 73.4069C45.4169 73.5049 44.9512 73.6029 44.51 73.701C44.412 73.7255 44.3384 73.7255 44.2404 73.75C44.0933 73.7745 43.9218 73.799 43.7747 73.8235C43.5541 73.848 43.358 73.897 43.1374 73.9216C43.0394 73.9461 42.9414 73.9461 42.8433 73.9706C42.7208 73.9951 42.5737 74.0196 42.4267 74.0196C42.0345 74.0686 41.6178 74.1176 41.2257 74.1667C41.1031 74.1912 40.9561 74.1912 40.8335 74.2157H40.809C40.6374 74.2402 40.4659 74.2402 40.2943 74.2647C40.1227 74.2892 39.9512 74.2892 39.7796 74.2892C39.6816 74.2892 39.559 74.3137 39.461 74.3137C39.2649 74.3137 39.0933 74.3382 38.9218 74.3382C38.6767 74.3382 38.4561 74.3627 38.211 74.3627C37.9659 74.3627 37.7453 74.3627 37.5002 74.3627C37.3286 74.3627 37.157 74.3627 36.9855 74.3627C26.6423 74.2157 17.3531 69.8284 10.711 62.8676C10.711 62.8676 10.711 62.8431 10.6865 62.8431C9.95117 62.1814 10.5884 58.6519 13.5541 56.4216C17.2796 53.6029 26.2012 51.8382 26.2012 51.8382C26.2012 51.8382 29.657 51.2745 42.4757 53.9461C49.9757 55.5147 55.6865 57.7941 58.8727 63.9706C59.5345 65.2451 60.1963 67.2059 57.8678 68.2353Z" fill="white"/>
<path d="M42.5491 53.6765C47.255 54.6323 52.2795 55.6618 56.1521 58.7745C57.4511 59.8284 58.3089 61.3725 59.0197 62.8676C59.3628 63.6029 59.706 64.3627 59.9756 65.1716C60.1226 65.7108 60.3432 66.3235 60.2207 66.9608C60.1962 67.1324 60.0491 67.3529 59.9266 67.4755C59.3628 68.0392 58.7501 68.3823 58.1373 68.8235C54.5344 71.3235 50.3923 73.0882 46.103 74.0196C36.5442 76.1029 26.2011 74.4853 17.7942 69.4608C15.0001 67.7696 12.4266 65.7108 10.2207 63.2843C9.97559 62.9902 9.97559 62.5 9.97559 62.1814C10.0001 61.4461 10.1962 60.7353 10.4413 60.0735C11.0295 58.5539 11.7893 57.0343 13.0883 55.9804C14.0197 55.3431 15.0246 54.8039 16.054 54.3627C19.2893 52.9902 22.6962 52.0343 26.2011 51.6422C26.4952 51.6176 26.5442 52.0343 26.2501 52.0833C22.8923 52.7696 19.5589 53.799 16.4462 55.1961C15.3187 55.7598 14.1177 56.25 13.2109 57.1324C12.353 58.0637 11.7403 59.2157 11.2501 60.3922C10.9315 61.1029 10.7109 62.2304 10.8089 62.7941C12.353 64.6324 14.1668 66.25 16.1275 67.6471C26.8628 75.1471 43.1619 75.6373 54.5834 69.3873C55.6128 68.8235 56.6177 68.1863 57.5736 67.5245C58.0393 67.2059 58.5295 66.9363 58.8972 66.5686C58.9217 66.5441 58.8972 66.5686 58.8972 66.5931C58.8972 66.6176 58.8726 66.6422 58.8726 66.6422C58.8972 66.348 58.7991 65.9559 58.6766 65.5637C58.2354 64.1422 57.5246 62.6471 56.7648 61.348C55.5638 59.4118 53.5295 58.1863 51.4707 57.2059C50.0491 56.5441 48.554 56.0294 47.0344 55.5392C45.5148 55.049 43.9707 54.6323 42.4266 54.2647C42.0344 54.1667 42.157 53.6029 42.5491 53.6765Z" fill="#7D7D7D"/>
<path d="M44.9511 49.6079C44.9511 49.6079 42.6226 49.0197 37.5001 47.3775C32.3775 45.7354 25.7599 46.8138 25.7599 46.8138C25.7599 46.8138 24.1422 46.8383 23.5295 48.0638C22.9167 49.2893 22.9658 51.8138 22.0344 52.5001C21.8138 52.6471 21.2011 52.8187 20.2942 53.0638C18.8236 53.4805 16.5932 54.0197 14.3873 55.2452C12.7452 56.1765 10.4167 59.0197 10.0491 64.0932C9.97557 65.0981 10.0001 75.4903 9.53439 76.4952C5.66184 84.3628 5.83341 80.8334 5.83341 80.8334H65.7354C65.7354 80.8334 61.7158 75.0001 60.6864 69.2648C59.6079 63.2844 57.7452 59.804 56.2256 58.652C52.6962 55.9805 48.8726 55.1226 47.402 54.4609L47.2305 52.255C47.255 52.2305 46.2991 49.2403 44.9511 49.6079Z" fill="#7D7D7D" stroke="#7D7D7D" stroke-width="3.5345" stroke-miterlimit="10" stroke-linecap="round" stroke-linejoin="round"/>
<path d="M47.4512 53.6031C47.9414 56.1521 48.4806 58.8236 47.7453 61.3727C46.814 65.0736 43.7502 67.5982 39.8777 67.4511C37.2061 67.4021 34.6816 66.3727 32.3777 65.1227C28.5542 62.9903 25.3924 59.6325 23.7012 55.5883C23.3581 54.755 23.064 53.9707 22.8924 53.0883C22.8679 52.9903 22.9414 52.8678 23.064 52.8433C23.162 52.8187 23.26 52.8923 23.2845 52.9903C23.5051 53.7746 23.8483 54.608 24.2159 55.3433C26.0787 59.1423 29.1179 62.3285 32.7944 64.3629C35.662 65.907 39.0934 67.2305 42.3287 66.3236C46.5934 65.1227 48.0395 60.1472 47.3777 56.1766C47.2796 55.3187 47.1571 54.4854 47.0345 53.6276C46.9855 53.4315 47.4022 53.3334 47.4512 53.6031Z" fill="white"/>
<path d="M41.0786 67.0344C41.0786 67.0344 41.5933 71.5442 41.2992 74.2893" stroke="white" stroke-width="3.46" stroke-miterlimit="10" stroke-linecap="round" stroke-linejoin="round"/>
<path d="M25.8089 59.4609C24.2158 60.1226 22.7697 61.2011 21.5932 62.4511C21.1766 62.8677 20.8334 63.3579 20.4903 63.8236C20.3187 64.0442 19.9511 63.7991 20.1227 63.5785C21.103 62.0099 22.3776 60.6618 23.8972 59.6324C24.4119 59.2893 24.9266 58.9707 25.5148 58.7011C25.7354 58.603 25.9805 58.7011 26.0785 58.8971C26.1766 59.0932 26.054 59.3628 25.8089 59.4609Z" fill="white"/>
<path d="M47.9657 57.9168C50.049 58.7746 51.8628 60.3187 52.8432 62.353C52.8922 62.4511 52.8432 62.5491 52.7696 62.5981C52.6716 62.6472 52.5735 62.5981 52.5245 62.5246C51.9853 61.6177 51.299 60.8089 50.4412 60.1717C49.6324 59.5589 48.652 59.0197 47.6716 58.7256C47.1324 58.5295 47.4265 57.7207 47.9657 57.9168Z" fill="white"/>
<path d="M44.8529 60.1961C44.3382 62.7206 41.0048 64.2402 35.3921 61.9608C29.5587 59.6079 27.0342 53.9951 26.397 52.3285C29.8529 45.8579 27.4509 41.3726 27.4509 41.3726C35.4166 40.6863 42.3774 50 42.3774 50L43.4558 54.6079C43.5538 55 43.7499 55.3432 44.044 55.5883C44.5587 56.4951 45.1715 58.5785 44.8529 60.1961Z" fill="white"/>
<path d="M26.2745 52.402C26.7401 51.6912 27.0343 50.8579 27.2303 50.0491C27.598 48.3579 27.7205 46.6422 27.745 44.9265V44.2893C27.6715 43.652 27.4509 42.9903 27.2058 42.402C26.8872 41.6177 28.0392 41.1275 28.4068 41.9118C28.4558 42.0099 28.4558 42.1814 28.4558 42.2795C28.5294 45.6128 28.6764 49.902 26.5686 52.6716C26.4215 52.8187 26.1274 52.5981 26.2745 52.402Z" fill="#7D7D7D"/>
<path d="M42.6469 49.951C43.0146 50.1716 43.1371 50.4657 43.1861 50.7599C43.3332 51.3481 43.2842 51.9853 43.4312 52.5981C43.5538 53.1863 43.9214 53.75 44.0195 54.3628C44.142 55.0001 44.5097 56.3481 44.6567 57.0099C44.7058 57.1569 44.6077 57.3285 44.4361 57.353C44.3381 57.3775 44.2646 57.353 44.191 57.304C43.8724 57.0344 43.7254 56.7648 43.5293 56.4216C43.2107 55.8334 42.9901 55.2942 42.794 54.6324C42.6224 54.0442 42.696 53.4069 42.5489 52.7942C42.4263 52.2059 42.0832 51.6422 41.9607 51.0295C41.8871 50.7353 41.8626 50.4167 42.0832 50.0491C42.2303 49.902 42.4754 49.853 42.6469 49.951Z" fill="#7D7D7D"/>
<path d="M44.4118 56.4216C39.7304 56.1765 35.9069 54.7059 32.1814 48.0637C35.3187 50.8333 39.0196 51.8872 42.9167 52.3774L43.4314 54.6323C43.5294 55.0245 44.1177 56.1765 44.4118 56.4216Z" fill="#7D7D7D"/>
<path d="M44.2157 55.5147C45.0491 57.0833 45.5393 59.0441 45.0246 60.7843C44.6324 62.0098 43.5049 62.9167 42.2795 63.2598C39.4363 64.0196 36.152 62.8186 33.6275 61.4706C30.5148 59.7304 28.2108 56.8137 26.7402 53.6274C26.6422 53.3823 26.9853 53.1863 27.1324 53.4314C27.6471 54.4608 28.2353 55.4657 28.8971 56.3725C29.5589 57.3039 30.3187 58.1618 31.1765 58.9216C33.6765 61.1765 37.0589 62.5735 40.4412 62.5735C43.9216 62.4755 45.2451 60.6372 44.4363 57.2549C44.3138 56.7157 44.1177 56.1519 43.8481 55.6863C43.701 55.4902 44.0687 55.2696 44.2157 55.5147Z" fill="#7D7D7D"/>
<path d="M53.7009 26.0784C54.1421 28.1373 53.799 29.5098 53.6029 35.1961C53.4068 40.7843 51.7892 48.6765 49.8039 50.6618C48.2843 52.1569 43.4068 53.3333 39.0686 52.2304C36.8627 51.6667 35 50.3922 33.4804 49.4853C31.5686 48.3333 29.9019 44.7794 28.5294 42.5C27.4509 40.7108 27.549 42.8677 26.1519 41.3235C24.2156 39.2157 21.8872 34.9755 23.0392 27.4755C24.9019 15.3186 34.5343 13.8971 41.6666 15.2451C48.848 16.5931 52.5245 20.6618 53.7009 26.0784Z" fill="white"/>
<path d="M27.3774 43.4804C26.8137 42.549 26.0784 41.7157 25.4166 40.8333C24.4362 39.4853 23.7009 37.9412 23.2108 36.348C21.0784 29.5343 22.3774 20.6127 28.8235 16.5931C34.6813 12.8676 46.0539 14.2157 50.8088 19.3137C52.598 21.152 53.75 23.5539 54.2402 26.0539C54.2647 26.201 54.3382 26.4706 54.3627 26.6176C54.3872 26.7402 54.4608 26.8873 54.4362 27.0343C54.3872 27.5735 54.2892 28.1127 54.2402 28.652C53.8725 31.9118 53.9706 35.2451 53.5539 38.5049C53.1862 41.9363 52.6961 45.3676 51.6666 48.6765C51.348 49.6814 50.7353 50.5882 49.9264 51.25C48.1127 52.7696 45.7353 53.2843 43.4559 53.3824C38.897 53.6029 34.2647 51.9853 31.6176 48.1373C31.5196 47.9902 31.7157 47.8186 31.8382 47.9657C34.0441 50.3431 37.0343 51.8627 40.2206 52.2059C43.75 52.6226 49.0686 52.3039 50.6127 48.5294C52.4019 43.1863 53.3333 37.5245 53.4313 31.9118C53.4313 30.5392 53.3578 29.1667 53.3578 27.7696C53.3578 27.598 53.3823 27.2059 53.3823 27.0343C53.3823 27.0343 53.3823 27.0098 53.3823 27.0343C53.3823 27.0588 53.3823 27.0588 53.3823 27.0343C53.1862 26.5441 53.1127 26.0049 52.9657 25.5147C52.4264 23.4804 51.446 21.5441 50.049 20C45.4166 14.8039 35.098 13.5049 29.3137 17.402C24.7304 20.4412 23.5049 26.2745 23.1862 31.4216C22.9166 35.2696 24.0441 39.0441 26.9608 41.6912L28.1127 42.8922C28.6029 43.4314 27.7696 44.0686 27.3774 43.4804Z" fill="#7D7D7D"/>
<path d="M30.2697 35.6862C30.2697 35.6862 29.5099 32.0098 25.9315 32.4509C22.8433 32.8431 21.7648 40.2451 28.7746 42.3039" fill="white"/>
<path d="M28.4558 39.0931C27.892 38.7745 27.4999 38.2353 27.4754 37.5735C27.4999 37.0833 27.5734 36.5196 27.4509 36.0294C27.3773 35.5637 26.8871 35.4412 26.5195 35.4657C26.1273 35.5392 25.8822 36.0294 25.8087 36.4216C25.8087 36.4461 25.7842 36.5196 25.7842 36.5441C25.7597 36.6667 25.5636 36.6667 25.5146 36.5441C25.196 35.5882 25.9067 34.5343 26.9362 34.6569C28.3822 34.7549 28.5783 36.2745 28.3087 37.4265C28.1616 37.9167 28.3577 38.3578 28.6273 38.7745L28.6763 38.848C28.7989 38.9951 28.6028 39.1912 28.4558 39.0931Z" fill="#7D7D7D"/>
<path d="M48.0638 33.0882C48.4314 34.8284 49.1177 36.4461 49.9755 37.9657C50.7353 39.8284 48.7746 41.5932 47.0344 41.5196C46.8383 41.5196 46.8138 41.25 46.9853 41.201C48.0883 40.8579 49.0932 40.1226 49.2648 38.9951C49.3383 38.652 49.2402 38.3579 49.0687 38.0637C48.2598 36.5441 47.7697 34.8039 47.8922 33.0882C47.8922 32.9657 48.0638 32.9657 48.0638 33.0882Z" fill="#7D7D7D"/>
<path d="M30.1469 35.7108C29.5832 34.2648 28.3577 32.8922 26.7155 32.9167C26.5685 32.8922 26.3234 32.9412 26.1763 32.9412C25.7597 32.9657 25.4165 33.1128 25.0979 33.4069C23.5293 34.9756 23.7989 37.7452 25.0734 39.4854C25.5146 40.0981 26.0783 40.6373 26.7155 41.0785C27.3528 41.5197 28.0636 41.8628 28.8234 42.1569C28.9949 42.2059 28.9214 42.4756 28.7498 42.451C27.1077 42.1079 25.5391 41.2991 24.4606 39.951C22.794 37.9412 22.4508 34.5834 24.4361 32.6226C24.8773 32.2305 25.49 31.9363 26.1028 31.9363C26.2989 31.9363 26.593 31.8873 26.7891 31.9363C27.8185 31.9854 28.7989 32.5001 29.4361 33.3089C29.9998 33.9952 30.3185 34.8285 30.4165 35.6618C30.4165 35.8089 30.1959 35.8579 30.1469 35.7108Z" fill="#7D7D7D"/>
<path d="M46.2011 43.9706C44.6324 45.4657 41.6667 44.2647 40.8824 42.451C40.7844 42.2304 41.0295 42.0343 41.2256 42.1324C41.6422 42.353 42.0099 42.5735 42.402 42.7451C43.5295 43.2598 44.706 43.6765 45.956 43.5539C46.2011 43.5049 46.3726 43.799 46.2011 43.9706Z" fill="#7D7D7D"/>
<path d="M42.6961 29.9019C43.2353 29.8529 43.5049 29.2156 43.2108 28.7254C43.0393 28.4803 42.8187 28.2598 42.5 28.1372C41.5687 27.8431 38.5294 28.5049 37.2059 30.0245C36.0294 31.4215 40.2451 30.1225 42.6961 29.9019Z" fill="#7D7D7D"/>
<path d="M49.1668 30.2941C48.7501 30.1715 48.6276 29.5588 48.9707 29.1666C49.1423 28.9705 49.3874 28.799 49.657 28.7499C50.4903 28.6029 52.4021 29.3627 52.9413 30.8088C53.4315 32.0588 51.1521 30.7843 49.1668 30.2941Z" fill="#7D7D7D"/>
<path d="M38.9216 35.5881C38.3334 35.5636 37.8922 35.0734 37.9412 34.4852L37.9657 33.7989C37.9902 33.2107 38.4804 32.7695 39.0687 32.8185C39.6569 32.843 40.0981 33.3332 40.0491 33.9215L40.0246 34.6078C40 35.1715 39.5098 35.6127 38.9216 35.5881Z" fill="#7D7D7D"/>
<path d="M49.2403 35.9559C48.701 35.9314 48.2844 35.4657 48.3089 34.9265L48.3334 34.2892C48.3579 33.75 48.8236 33.3333 49.3628 33.3578C49.902 33.3823 50.3187 33.848 50.2942 34.3873L50.2697 35.0245C50.2452 35.5637 49.7795 35.9804 49.2403 35.9559Z" fill="#7D7D7D"/>
<path d="M41.1274 34.2646C40.3186 33.7254 39.4363 33.3577 38.4559 33.5538C38.1372 33.6028 37.8186 33.7009 37.6225 33.9215C37.549 34.0195 37.3774 33.995 37.3774 33.8479C37.402 33.3578 37.8186 33.0391 38.2108 32.843C38.9706 32.4509 40.0245 32.5244 40.7108 33.0391C40.9559 33.1862 41.7892 34.093 41.348 34.2891C41.25 34.3381 41.201 34.3136 41.1274 34.2646Z" fill="#7D7D7D"/>
<path d="M48.1372 34.3872C48.1372 33.3578 49.4117 32.9901 50.196 33.3578C50.6372 33.5539 50.9558 33.946 51.0784 34.4117C51.1274 34.5588 50.9068 34.6813 50.8088 34.5588C50.3921 34.0686 49.6813 33.8235 49.1176 34.1176C48.946 34.2156 48.9215 34.2892 48.8725 34.3872C48.8725 34.8774 48.1617 34.8529 48.1372 34.3872Z" fill="#7D7D7D"/>
<path d="M42.8923 38.6275C41.7648 38.652 38.2844 38.6765 37.206 38.701C35.3433 38.7255 33.9462 37.1079 34.1178 35.2696C34.1423 34.6569 34.1178 33.799 34.1423 33.1863C34.1913 31.5932 35.6129 30.2451 37.206 30.2941L41.3482 30.3432C41.6668 30.3432 42.5737 30.3677 42.8923 30.3677C44.2158 30.3432 45.4658 31.3236 45.7599 32.6226C45.858 32.9902 45.8335 33.3824 45.8335 33.701V35.7843C45.809 37.3285 44.4364 38.652 42.8923 38.6275ZM42.8923 38.0883C44.1668 38.1373 45.3433 37.0343 45.3678 35.7598C45.3923 35.0981 45.3678 34.3873 45.3678 33.701C45.5148 32.2059 44.3874 30.8334 42.8678 30.8824C41.8139 30.9069 38.2844 30.9314 37.1815 30.9559C35.858 30.9559 34.7305 32.1569 34.8286 33.4804C34.8286 33.652 34.8286 34.0932 34.8286 34.2647C34.8531 34.8039 34.7795 35.7353 34.9021 36.2255C35.1472 37.2549 36.1276 38.0392 37.1815 38.0392H37.6962C38.407 38.0392 42.157 38.0883 42.8923 38.0883Z" fill="#7D7D7D"/>
<path d="M52.7696 31.0049L50.8334 31.0295C50.2942 31.054 49.6569 30.9559 49.1912 31.2746C48.75 31.5687 48.554 32.1079 48.5785 32.6226C48.5785 33.2599 48.5785 33.9216 48.554 34.5589L48.5294 34.4608C48.8726 35.6618 49.3383 36.8138 50.0491 37.8187L49.804 37.6716C50 37.7206 50.3432 37.7206 50.5393 37.7206C51.2745 37.7451 52.1324 37.7942 52.8677 37.7942C53.554 37.7942 54.2157 37.2795 54.3628 36.5932C54.4118 36.3971 54.4118 36.054 54.4118 35.8579C54.4118 34.804 54.4363 33.7746 54.3873 32.7206C54.4363 31.7893 53.7255 30.9559 52.7696 31.0049ZM52.7696 30.2697C54.0687 30.2697 54.9755 31.5197 54.7549 32.7451C54.7059 33.7991 54.7304 34.8285 54.7304 35.8824C54.853 37.1079 54.1177 38.2108 52.8432 38.3089C52.304 38.3334 51.7893 38.3334 51.2745 38.3579C51.0049 38.3579 50.3432 38.4069 50.0981 38.4069C49.9755 38.4314 49.7794 38.4069 49.6569 38.4069C49.5589 38.4069 49.4608 38.3334 49.4118 38.2598C48.652 37.1324 48.1128 35.8824 47.7942 34.5834C47.7942 33.75 47.7206 32.9167 47.7942 32.0834C47.9412 31.103 48.8236 30.2697 49.8285 30.2451C50.5147 30.2206 52.0834 30.2697 52.7696 30.2697Z" fill="#7D7D7D"/>
<path d="M45.5638 32.5245C46.2256 32.2304 46.9609 32.1078 47.6962 32.1569C47.9413 32.1814 48.1864 32.2549 48.407 32.451L48.7256 32.7206C49.0442 32.9902 48.652 33.4559 48.3334 33.1863C47.9413 32.8431 47.4756 32.8922 47.0099 32.9167C46.5442 32.9657 46.103 33.0637 45.6619 33.2353C45.2452 33.4069 44.9756 32.7941 45.3677 32.598L45.5638 32.5245Z" fill="#7D7D7D"/>
<path d="M34.5344 33.4069C34.3629 33.7991 34.1668 33.8481 33.8482 33.8236L33.1374 33.8481C31.7158 33.8481 30.2697 33.8236 28.8481 33.603C28.358 33.5785 28.3334 32.8922 28.8236 32.8677L34.5099 32.6716C34.6815 32.6716 34.804 32.8432 34.7305 32.9903L34.5344 33.4069Z" fill="#7D7D7D"/>
<path d="M70.6372 20.6617C85.5147 49.3137 59.3627 81.6421 28.1863 73.7499C14.1912 70.2696 2.94115 58.1372 0.612722 43.897C-2.03434 29.7303 4.36272 14.5098 16.3235 6.49505C32.7206 -4.77946 55.4412 -1.02946 67.1814 15.098C67.2549 15.1715 67.2304 15.2941 67.1323 15.3676C67.0588 15.4411 66.9362 15.4166 66.8627 15.3186C65.2451 13.2352 63.4068 11.348 61.397 9.65681C58.0882 6.83819 54.2157 4.6323 50.1225 3.13721C29.2892 -4.41181 6.42155 8.13721 1.86272 29.9264C-3.28434 54.3382 17.4755 76.8137 42.2304 73.4558C61.3235 71.0539 75.5147 53.4313 73.9461 34.2647C73.6029 29.6323 72.3774 25.049 70.3431 20.8333C70.2941 20.7598 70.3431 20.6617 70.4166 20.6127C70.4902 20.5637 70.5882 20.5882 70.6372 20.6617Z" fill="#7D7D7D"/>
</g>
</svg>
