<svg width="75" height="75" viewBox="0 0 75 75" fill="none" xmlns="http://www.w3.org/2000/svg">
<mask id="mask0_22_1216" style="mask-type:alpha" maskUnits="userSpaceOnUse" x="0" y="0" width="75" height="75">
<circle cx="37.377" cy="37.377" r="37.377" fill="#D9D9D9"/>
</mask>
<g mask="url(#mask0_22_1216)">
<path d="M57.8677 68.2353C57.6961 68.3578 57.5001 68.4804 57.3285 68.6029C57.1324 68.7255 56.9608 68.848 56.7648 68.9461C56.5932 69.0441 56.4461 69.1421 56.2746 69.2402C56.2501 69.2647 56.2256 69.2647 56.201 69.2892C55.6373 69.6323 55.0491 69.951 54.4608 70.2451C54.2893 70.3431 54.0932 70.4412 53.9216 70.5147C53.9216 70.5147 53.8971 70.5392 53.8726 70.5392C53.6765 70.6372 53.4805 70.7353 53.2844 70.8333C52.8922 71.0294 52.4756 71.201 52.0834 71.3725C51.8873 71.4706 51.6667 71.5441 51.4707 71.6176C51.2746 71.6912 51.054 71.7892 50.8579 71.8627C50.6618 71.9363 50.4412 72.0343 50.2452 72.1078C50.2452 72.1078 50.2452 72.1078 50.2206 72.1078C50.0246 72.1814 49.804 72.2549 49.6079 72.3284C49.1667 72.4755 48.701 72.6225 48.2599 72.7696C48.1128 72.8186 47.9412 72.8676 47.7942 72.9167C47.3285 73.0637 46.8628 73.1863 46.3971 73.2843C46.2256 73.3333 46.054 73.3578 45.8579 73.4069C45.4167 73.5049 44.951 73.6029 44.5099 73.701C44.4118 73.7255 44.3383 73.7255 44.2403 73.75C44.0932 73.7745 43.9216 73.799 43.7746 73.8235C43.554 73.848 43.3579 73.897 43.1373 73.9216C43.0393 73.9461 42.9412 73.9461 42.8432 73.9706C42.7207 73.9951 42.5736 74.0196 42.4265 74.0196C42.0344 74.0686 41.6177 74.1176 41.2256 74.1667C41.103 74.1912 40.9559 74.1912 40.8334 74.2157H40.8089C40.6373 74.2402 40.4658 74.2402 40.2942 74.2647C40.1226 74.2892 39.951 74.2892 39.7795 74.2892C39.6814 74.2892 39.5589 74.3137 39.4608 74.3137C39.2648 74.3137 39.0932 74.3382 38.9216 74.3382C38.6765 74.3382 38.4559 74.3627 38.2108 74.3627C37.9658 74.3627 37.7452 74.3627 37.5001 74.3627C37.3285 74.3627 37.1569 74.3627 36.9854 74.3627C26.6422 74.2157 17.353 69.8284 10.7109 62.8676C10.7109 62.8676 10.7108 62.8431 10.6863 62.8431C9.95105 62.1814 10.5883 58.6519 13.554 56.4216C17.2795 53.6029 26.201 51.8382 26.201 51.8382C26.201 51.8382 29.6569 51.2745 42.4756 53.9461C49.9756 55.5147 55.6863 57.7941 58.8726 63.9706C59.5344 65.2451 60.1961 67.2059 57.8677 68.2353Z" fill="white"/>
<path d="M42.5491 53.6765C47.255 54.6323 52.2795 55.6618 56.1521 58.7745C57.4511 59.8284 58.3089 61.3725 59.0197 62.8676C59.3628 63.6029 59.706 64.3627 59.9756 65.1716C60.1226 65.7108 60.3432 66.3235 60.2207 66.9608C60.1962 67.1324 60.0491 67.3529 59.9266 67.4755C59.3628 68.0392 58.7501 68.3823 58.1373 68.8235C54.5344 71.3235 50.3923 73.0882 46.103 74.0196C36.5442 76.1029 26.2011 74.4853 17.7942 69.4608C15.0001 67.7696 12.4266 65.7108 10.2207 63.2843C9.97559 62.9902 9.97559 62.5 9.97559 62.1814C10.0001 61.4461 10.1962 60.7353 10.4413 60.0735C11.0295 58.5539 11.7893 57.0343 13.0883 55.9804C14.0197 55.3431 15.0246 54.8039 16.054 54.3627C19.2893 52.9902 22.6962 52.0343 26.2011 51.6422C26.4952 51.6176 26.5442 52.0343 26.2501 52.0833C22.8923 52.7696 19.5589 53.799 16.4462 55.1961C15.3187 55.7598 14.1177 56.25 13.2109 57.1324C12.353 58.0637 11.7403 59.2157 11.2501 60.3922C10.9315 61.1029 10.7109 62.2304 10.8089 62.7941C12.353 64.6324 14.1668 66.25 16.1275 67.6471C26.8628 75.1471 43.1619 75.6373 54.5834 69.3873C55.6128 68.8235 56.6177 68.1863 57.5736 67.5245C58.0393 67.2059 58.5295 66.9363 58.8972 66.5686C58.9217 66.5441 58.8972 66.5686 58.8972 66.5931C58.8972 66.6176 58.8726 66.6422 58.8726 66.6422C58.8972 66.348 58.7991 65.9559 58.6766 65.5637C58.2354 64.1422 57.5246 62.6471 56.7648 61.348C55.5638 59.4118 53.5295 58.1863 51.4707 57.2059C50.0491 56.5441 48.554 56.0294 47.0344 55.5392C45.5148 55.049 43.9707 54.6323 42.4266 54.2647C42.0344 54.1667 42.157 53.6029 42.5491 53.6765Z" fill="#AE2C8A"/>
<path d="M62.8922 82.9901L4.04419 83.4313C4.04419 83.4313 6.47066 73.5784 9.3138 65.1225C10.3677 61.9852 10.8334 57.9901 13.3334 56.1029C16.152 53.9705 20.1226 53.1862 22.7452 52.2548C24.1422 51.7646 25.1962 51.7891 26.1765 51.5195C26.1765 51.6421 26.2011 51.7401 26.2011 51.8627C26.2011 51.8627 28.8481 59.7303 35.7354 62.5244C41.3481 64.8038 44.6814 63.2842 45.1961 60.7597C45.5148 59.1421 44.5099 56.495 43.9952 55.6372C43.7011 55.3921 43.505 55.0244 43.4069 54.6568L43.2109 53.848C43.6765 53.7499 44.1177 53.6274 44.5589 53.4803C44.706 53.4313 45.0001 53.8725 45.1226 53.8235C48.2844 54.6568 54.6569 56.7401 57.5981 59.9754C61.2256 63.848 62.8922 82.9901 62.8922 82.9901Z" fill="#AE2C8A"/>
<mask id="mask1_22_1216" style="mask-type:alpha" maskUnits="userSpaceOnUse" x="4" y="51" width="59" height="33">
<path d="M62.8922 82.9901L4.04419 83.4313C4.04419 83.4313 6.47066 73.5784 9.3138 65.1225C10.3677 61.9852 10.8334 57.9901 13.3334 56.1029C16.152 53.9705 20.1226 53.1862 22.7452 52.2548C24.1422 51.7646 25.1962 51.7891 26.1765 51.5195C26.1765 51.6421 26.2011 51.7401 26.2011 51.8627C26.2011 51.8627 28.8481 59.7303 35.7354 62.5244C41.3481 64.8038 44.6814 63.2842 45.1961 60.7597C45.5148 59.1421 44.5099 56.495 43.9952 55.6372C43.7011 55.3921 43.505 55.0244 43.4069 54.6568L43.2109 53.848C43.6765 53.7499 44.1177 53.6274 44.5589 53.4803C44.706 53.4313 45.0001 53.8725 45.1226 53.8235C48.2844 54.6568 54.6569 56.7401 57.5981 59.9754C61.2256 63.848 62.8922 82.9901 62.8922 82.9901Z" fill="black"/>
</mask>
<g mask="url(#mask1_22_1216)">
<path d="M29.4633 55.8994L26.1704 59.1923L29.4633 62.4851L32.7561 59.1923L29.4633 55.8994Z" fill="white"/>
<path d="M42.3766 55.8918L39.0837 59.1847L42.3766 62.4776L45.6695 59.1847L42.3766 55.8918Z" fill="white"/>
<path d="M16.5672 55.8896L13.2743 59.1825L16.5672 62.4754L19.86 59.1825L16.5672 55.8896Z" fill="white"/>
<path d="M55.1002 55.8993L51.8074 59.1921L55.1002 62.485L58.3931 59.1921L55.1002 55.8993Z" fill="white"/>
<path d="M23.4988 68.6202L20.2059 71.9131L23.4988 75.206L26.7917 71.9131L23.4988 68.6202Z" fill="white"/>
<path d="M36.4123 68.6125L33.1194 71.9054L36.4123 75.1983L39.7051 71.9054L36.4123 68.6125Z" fill="white"/>
<path d="M49.1358 68.6201L45.8429 71.913L49.1358 75.2058L52.4286 71.913L49.1358 68.6201Z" fill="white"/>
</g>
<path d="M63.358 83.4068C45.858 83.5784 21.2746 83.9705 4.04424 84.044C3.7011 84.044 3.40698 83.7744 3.40698 83.4313C4.65698 78.1617 6.17659 72.9411 7.79424 67.7695C8.06384 66.9117 8.33345 66.0539 8.62757 65.2205C9.21581 63.5293 9.58345 61.7891 10.1472 60.0735C11.2011 56.8137 12.5982 55.3921 15.6864 53.995C17.7942 53.0391 19.9511 52.4999 22.0835 51.8137L22.7207 51.5931C23.7746 51.2009 25.0982 51.1519 26.054 50.9068C26.3972 50.8333 26.7158 51.0293 26.8138 51.348C26.8384 51.3725 26.8629 51.7646 26.8629 51.8137L26.2256 51.2254C26.4952 51.2254 26.7403 51.397 26.8138 51.6421C27.0099 52.2058 27.2795 52.794 27.5491 53.3578C29.4609 57.2548 32.5246 60.7597 36.7158 62.2058C38.8727 62.9656 41.6423 63.5539 43.5786 62.2303C44.5099 61.5931 44.804 60.4656 44.608 59.3872C44.4364 58.2352 44.0442 57.0097 43.4805 55.9803L43.6031 56.1274C43.1619 55.6862 42.9658 55.0244 42.9413 54.4362L42.8923 53.946C42.8433 53.7254 42.9413 53.5048 43.1864 53.4803C43.6031 53.4068 44.0197 53.2842 44.4119 53.1617C44.4854 53.1372 44.6325 53.0882 44.706 53.1127C45.0246 53.1862 45.0736 53.3578 45.2697 53.4803C45.2452 53.4803 45.1962 53.4313 45.0736 53.4803H45.2942C46.8384 53.8725 48.358 54.3382 49.8531 54.9019C52.8678 56.0539 55.8825 57.3529 58.1374 59.7793C61.3236 63.7744 62.7697 76.397 63.407 81.7646C63.407 81.8137 63.4805 82.5735 63.505 82.647L63.5295 82.794V82.8676V82.8921C63.5295 83.0637 63.456 83.2842 63.358 83.4068ZM62.4266 82.5735C62.3531 82.647 62.2795 82.745 62.2795 82.8431C62.2795 82.8921 62.255 82.9411 62.2795 82.9901V82.9656C62.2795 82.8676 62.255 82.5735 62.2305 82.4509C61.5933 76.446 60.8335 70.3186 59.1668 64.5097C58.6031 62.745 57.9903 60.8578 56.5442 59.6813C54.5099 57.9166 52.0099 56.7891 49.5099 55.8333C48.0638 55.294 46.5687 54.8039 45.0491 54.4117L45.4168 54.3872C45.2207 54.4607 45.0737 54.4362 44.9266 54.3627C44.7305 54.2646 44.5589 54.0931 44.4609 53.946C44.5099 53.9705 44.6815 53.995 44.7795 53.9705H44.804H44.7795L44.706 53.995C44.2648 54.0931 43.7991 54.1421 43.358 54.1911L43.6521 53.7254C43.8482 54.2401 43.9707 54.8774 44.4609 55.147C44.9266 55.7597 45.1472 56.495 45.3923 57.2058C45.7109 58.1862 45.956 59.2156 45.907 60.2695C45.7844 63.2107 42.7942 64.4362 40.2207 64.2401C36.1521 63.946 32.3531 61.9117 29.706 58.8725C27.9413 56.8627 26.5442 54.5588 25.6129 52.0588L26.2011 52.4754C25.858 52.4754 25.5884 52.2303 25.5638 51.8872L25.5393 51.5686L26.3236 52.1323C25.8335 52.2548 25.3678 52.3284 24.9266 52.3774C23.6031 52.5244 22.4266 53.0391 21.1521 53.4068C19.4364 53.9215 17.7452 54.4362 16.1766 55.147C14.6815 55.8578 13.1619 56.6666 12.3286 58.1617C11.4707 59.6323 11.0295 61.348 10.5638 63.0146C10.1227 64.7303 9.48541 66.446 8.9462 68.1617C7.32855 73.2597 5.90698 78.4068 4.60796 83.6029L3.99522 82.8186C20.907 82.696 45.2942 82.5735 62.4266 82.5735Z" fill="#AE2C8A"/>
<path d="M41.2011 61.5195C41.2011 61.5195 39.51 62.794 39.8776 63.995C40.2453 65.196 43.5051 64.9999 44.1423 63.995C44.7551 62.9901 41.9855 61.2744 41.2011 61.5195Z" fill="#AE2C8A"/>
<path d="M41.1521 61.4706C41.1766 61.4951 41.1766 61.4951 41.2011 61.5196C41.2011 61.4951 41.2011 61.4706 41.2011 61.4706C41.2011 61.4706 41.1766 61.4706 41.1521 61.4706Z" fill="white"/>
<path d="M34.6572 60.4901C27.7699 57.696 26.5934 52.4509 26.5934 52.4509L30.3434 50.8578C30.3434 50.7352 31.3483 49.7058 31.3238 49.6078C31.2993 49.2401 28.7993 48.848 26.0542 49.7548C25.6131 49.9019 25.0738 50.196 24.5836 50.4656C23.7013 50.9803 22.9905 51.7156 22.5493 52.6225C22.5493 52.647 22.5248 52.647 22.5248 52.6715C22.4758 59.1176 28.9219 64.5343 33.8483 66.3235C36.8385 67.4019 40.0493 65.3431 41.0052 62.3284C41.0787 62.0588 41.1523 61.8137 41.2013 61.5441C41.1768 61.5196 41.1768 61.5196 41.1523 61.495C39.5591 61.8137 37.3532 61.5931 34.6572 60.4901Z" fill="white"/>
<path d="M34.5345 60.8333C31.2747 59.5343 28.2845 57.2058 26.7894 53.9951C26.5688 53.5294 26.3972 53.0637 26.2502 52.5245C26.2012 52.3529 26.2992 52.1813 26.4708 52.1078C27.4512 51.6911 29.0198 51.0294 29.9757 50.6127C30.0247 50.5882 30.1472 50.5392 30.1963 50.5147C30.1227 50.5392 29.9757 50.6617 29.9757 50.8333C29.9757 51.0539 30.1963 51.2009 30.3433 51.2009L29.9757 50.8578C29.9757 50.7843 30.0002 50.6862 30.0002 50.6862C30.0982 50.4656 30.2943 50.2696 30.4414 50.098C30.5394 50 30.9316 49.5098 30.9806 49.4607C30.9561 49.5343 30.9561 49.6813 31.0051 49.7304C31.0541 49.8039 31.0296 49.7549 30.9806 49.7304C30.0492 49.4117 28.9953 49.4117 28.0149 49.5098C26.3972 49.6323 24.7796 50.3431 23.7992 51.6666C23.5051 52.0343 23.2355 52.5 23.0394 52.8921C23.0394 52.8676 23.0394 52.8921 23.0884 52.7696C23.1129 52.5245 23.0884 52.696 23.1129 52.647V52.6715C23.1619 57.9411 27.157 62.4019 31.5198 64.9755C32.9414 65.7353 34.51 66.6176 36.1767 66.348C38.6031 66.0049 40.6129 63.848 40.858 61.4215L40.9561 61.7402L40.907 61.6911L41.2502 61.7892C38.9463 62.2794 36.6423 61.6666 34.5345 60.8333ZM34.8041 60.1715C36.7649 60.9558 38.9708 61.5441 41.0786 61.1274C41.2012 61.1029 41.3237 61.1519 41.4217 61.2255C41.5198 61.299 41.5933 61.446 41.5688 61.5931C40.9806 64.1666 38.8482 66.3725 36.2012 66.7157C35.3433 66.8382 34.4365 66.7157 33.6276 66.397C32.0345 65.8088 30.5149 65 29.1178 64.0196C25.3678 61.4706 21.961 57.4509 21.961 52.6715V52.647C21.961 52.598 21.9365 52.7696 21.9855 52.5245C22.01 52.4019 22.0345 52.4264 22.0345 52.4019C22.5002 51.446 23.3335 50.7107 24.2894 50.2696C25.4659 49.7058 26.6914 49.3137 27.9904 49.0931C28.6521 48.9705 31.7404 48.5539 31.7159 49.6568C31.6668 49.8529 31.5443 49.9755 31.4463 50.1225C31.2747 50.3431 30.9316 50.7353 30.76 50.9558C30.76 50.9558 30.711 51.0049 30.7355 51.0049V50.9804C30.7355 50.9804 30.76 50.9068 30.76 50.8578L30.3923 50.5147C30.4414 50.5147 30.5884 50.5392 30.6374 50.6372C30.7845 50.7843 30.76 51.0539 30.6129 51.1764C30.4904 51.25 30.5394 51.2255 30.5149 51.2255H30.4904L30.4659 51.25C30.3678 51.299 30.1717 51.3725 30.0492 51.4215C29.1914 51.7892 27.6472 52.4509 26.7649 52.8186L26.9855 52.4019C27.108 52.8186 27.2796 53.2843 27.4757 53.7009C28.9463 56.6911 31.7159 58.9215 34.8041 60.1715Z" fill="#AE2C8A"/>
<path d="M47.7697 59.755C47.3775 56.3481 45.5393 54.4363 44.6079 53.4559C44.1667 53.603 43.4314 53.7746 42.9658 53.8726C42.9658 53.8726 44.5589 55.9314 44.1422 58.7255C43.9461 60.0491 42.9412 61.054 41.2256 61.4461C41.2256 61.4706 41.2256 61.4706 41.201 61.4951C41.8383 62.2304 42.3775 63.8236 44.4118 64.7795C45.8089 65.4412 46.6912 64.6814 47.304 63.2844C47.8187 62.0834 47.8922 60.7108 47.7697 59.755Z" fill="white"/>
<path d="M47.4756 59.8039C47.255 57.451 46.1275 55.2696 44.5099 53.5539L44.6569 53.5784C44.1177 53.8235 43.603 54.0441 43.0393 54.2402L43.2599 53.652C44.2158 55.0245 44.6815 56.6667 44.5589 58.3333C44.5099 60.1961 43.0148 61.4706 41.2991 61.8137L41.5687 61.5686L41.5442 61.6177L41.4707 61.25C42.1079 62.1079 42.4511 62.9412 43.2354 63.6275C43.8726 64.1667 44.7795 64.853 45.6373 64.7059C47.304 64.2157 47.6471 61.2745 47.4756 59.8039ZM48.0638 59.7304C48.2354 61.299 47.9658 62.9167 47.1079 64.2402C45.956 66.0539 44.1422 65.2451 42.8187 64.1177C42.0344 63.4804 41.4952 62.5 40.9069 61.7402C40.7109 61.5196 40.8579 61.1275 41.1275 61.0784C41.8383 60.9069 42.5246 60.6128 43.0148 60.1226C44.5099 58.652 43.7501 55.6128 42.6717 54.0686L42.6226 53.8726C42.5736 53.701 42.6717 53.5294 42.8187 53.4804C43.4069 53.4069 43.9952 53.3824 44.5589 53.2843C44.6079 53.2598 44.6569 53.2843 44.706 53.3088C46.5197 55.0245 47.7697 57.2794 48.0638 59.7304Z" fill="#AE2C8A"/>
<path d="M44.8527 60.1961C44.338 62.7206 41.0047 64.2402 35.3919 61.9608C29.5586 59.6079 27.0341 53.9951 26.3969 52.3285C29.8527 45.8579 27.4508 41.3726 27.4508 41.3726C35.4165 40.6863 42.3772 50 42.3772 50L43.4557 54.6079C43.5537 55 43.7498 55.3432 44.0439 55.5883C44.5586 56.4951 45.1714 58.5785 44.8527 60.1961Z" fill="white"/>
<path d="M26.2745 52.402C26.7401 51.6912 27.0343 50.8579 27.2303 50.0491C27.598 48.3579 27.7205 46.6422 27.745 44.9265V44.2893C27.6715 43.652 27.4509 42.9903 27.2058 42.402C26.8872 41.6177 28.0392 41.1275 28.4068 41.9118C28.4558 42.0099 28.4558 42.1814 28.4558 42.2795C28.5294 45.6128 28.6764 49.902 26.5686 52.6716C26.4215 52.8187 26.1274 52.5981 26.2745 52.402Z" fill="#AE2C8A"/>
<path d="M42.6469 49.951C43.0146 50.1716 43.1371 50.4657 43.1861 50.7599C43.3332 51.3481 43.2842 51.9853 43.4312 52.5981C43.5538 53.1863 43.9214 53.75 44.0195 54.3628C44.142 55.0001 44.5097 56.3481 44.6567 57.0099C44.7058 57.1569 44.6077 57.3285 44.4361 57.353C44.3381 57.3775 44.2646 57.353 44.191 57.304C43.8724 57.0344 43.7254 56.7648 43.5293 56.4216C43.2107 55.8334 42.9901 55.2942 42.794 54.6324C42.6224 54.0442 42.696 53.4069 42.5489 52.7942C42.4263 52.2059 42.0832 51.6422 41.9607 51.0295C41.8871 50.7353 41.8626 50.4167 42.0832 50.0491C42.2303 49.902 42.4754 49.853 42.6469 49.951Z" fill="#AE2C8A"/>
<path d="M44.4117 56.4216C39.7303 56.1765 35.9068 54.7059 32.1813 48.0637C35.3185 50.8333 39.0195 51.8872 42.9166 52.3774L43.4313 54.6323C43.5293 55.0245 44.1175 56.1765 44.4117 56.4216Z" fill="#AE2C8A"/>
<path d="M44.2157 55.5147C45.0491 57.0833 45.5393 59.0441 45.0246 60.7843C44.6324 62.0098 43.5049 62.9167 42.2795 63.2598C39.4363 64.0196 36.152 62.8186 33.6275 61.4706C30.5147 59.7304 28.2108 56.8137 26.7402 53.6274C26.6422 53.3823 26.9853 53.1863 27.1324 53.4314C27.6471 54.4608 28.2353 55.4657 28.8971 56.3725C29.5589 57.3039 30.3187 58.1618 31.1765 58.9216C33.6765 61.1765 37.0589 62.5735 40.4412 62.5735C43.9216 62.4755 45.2451 60.6372 44.4363 57.2549C44.3138 56.7157 44.1177 56.1519 43.8481 55.6863C43.701 55.4902 44.0687 55.2696 44.2157 55.5147Z" fill="#AE2C8A"/>
<path d="M53.7008 26.0784C54.142 28.1372 52.6714 30.3431 52.6714 35.8333C52.6714 41.4461 51.642 47.549 47.4018 51.7892C43.7498 55.4412 39.5587 55.2941 34.6322 51.4461C33.9459 50.9068 31.544 49.0931 30.9312 48.4804C30.2204 47.7696 29.8283 47.2549 29.4851 46.7157C29.191 46.2255 29.2645 43.3823 28.8479 42.7206C27.7694 40.9314 27.5489 42.8676 26.1518 41.299C24.2155 39.1912 21.8871 34.951 23.0391 27.451C24.9018 15.2941 34.5342 13.8725 41.6665 15.2206C48.8479 16.5931 52.5244 20.6617 53.7008 26.0784Z" fill="white"/>
<path d="M27.3773 43.4804C26.8136 42.549 26.1028 41.7157 25.4411 40.8578C24.7793 39.951 24.2401 38.9951 23.7989 37.9657C21.2989 31.9118 21.6666 23.9951 26.1028 18.8971C29.142 15.4167 33.946 14.2647 38.3577 14.5098C42.7695 14.7794 47.3528 15.9069 50.6126 19.0931C52.4999 20.9314 53.7009 23.3823 54.2401 25.9314C54.4116 26.7402 54.2891 27.6225 54.093 28.3823C53.5293 30.5147 52.9901 32.549 52.9411 34.7549C52.9656 38.0392 52.8675 41.3971 51.9116 44.5588C51.2254 46.6667 50.4165 48.7745 49.142 50.6127C47.8185 52.4755 45.8332 53.9706 43.5538 54.4118C38.9705 55.3431 34.6813 52.451 31.642 49.3137C31.5195 49.1667 31.6911 48.9951 31.8381 49.0931C33.5783 50.4167 35.3675 51.6422 37.3038 52.4755C42.892 55.049 47.5244 52.6716 49.9754 47.2794C52.0342 43.3578 52.6224 39.1176 52.4509 34.7304C52.4509 33.6274 52.4999 32.5245 52.6469 31.4216C52.794 29.8284 53.3332 28.2353 53.3087 26.6667C52.892 24.1176 51.7156 21.6667 49.9509 19.7794C45.7597 15.3431 37.7205 14.0441 32.0832 16.0539C25.4411 18.4069 23.6518 25.098 23.2842 31.4951C23.0391 35.3186 24.1666 39.0686 27.0587 41.6912L28.2107 42.8921C28.6028 43.4314 27.7695 44.0686 27.3773 43.4804Z" fill="#AE2C8A"/>
<path d="M30.2695 35.6862C30.2695 35.6862 29.5097 32.0098 25.9313 32.4509C22.843 32.8431 21.7646 40.2451 28.7744 42.3039" fill="white"/>
<path d="M28.4558 39.0931C27.892 38.7745 27.4999 38.2353 27.4754 37.5735C27.4999 37.0833 27.5734 36.5196 27.4509 36.0294C27.3773 35.5637 26.8871 35.4412 26.5195 35.4657C26.1273 35.5392 25.8822 36.0294 25.8087 36.4216C25.8087 36.4461 25.7842 36.5196 25.7842 36.5441C25.7597 36.6667 25.5636 36.6667 25.5146 36.5441C25.196 35.5882 25.9067 34.5343 26.9362 34.6569C28.3822 34.7549 28.5783 36.2745 28.3087 37.4265C28.1616 37.9167 28.3577 38.3578 28.6273 38.7745L28.6763 38.848C28.7989 38.9951 28.6028 39.1912 28.4558 39.0931Z" fill="#AE2C8A"/>
<path d="M48.0637 33.0882C48.4313 34.8284 49.1176 36.4461 49.9754 37.9657C50.7352 39.8284 48.7744 41.5932 47.0342 41.5196C46.8382 41.5196 46.8136 41.25 46.9852 41.201C48.0882 40.8579 49.0931 40.1226 49.2646 38.9951C49.3382 38.652 49.2401 38.3579 49.0686 38.0637C48.2597 36.5441 47.7695 34.8039 47.8921 33.0882C47.8921 32.9657 48.0637 32.9657 48.0637 33.0882Z" fill="#AE2C8A"/>
<path d="M30.147 35.7107C29.5833 34.2646 28.3578 32.8921 26.7157 32.9166C26.5686 32.8921 26.3235 32.9411 26.1764 32.9411C25.7598 32.9656 25.4166 33.1127 25.098 33.4068C23.5294 34.9754 23.799 37.745 25.0735 39.4852C25.5147 40.098 26.0784 40.6372 26.7157 41.0784C27.3529 41.5195 28.0637 41.8627 28.8235 42.1568C28.9951 42.2058 28.9215 42.4754 28.75 42.4509C27.1078 42.1078 25.5392 41.299 24.4608 39.9509C22.7941 37.9411 22.451 34.5833 24.4362 32.6225C24.8774 32.2303 25.4902 31.9362 26.1029 31.9362C26.299 31.9362 26.5931 31.8872 26.7892 31.9362C27.8186 31.9852 28.799 32.4999 29.4362 33.3088C30 33.995 30.3186 34.8284 30.4166 35.6617C30.4166 35.8088 30.196 35.8578 30.147 35.7107Z" fill="#AE2C8A"/>
<path d="M46.2011 43.9706C44.6324 45.4657 41.6667 44.2647 40.8824 42.451C40.7844 42.2304 41.0295 42.0343 41.2256 42.1324C41.6422 42.353 42.0099 42.5735 42.402 42.7451C43.5295 43.2598 44.706 43.6765 45.956 43.5539C46.2011 43.5049 46.3726 43.799 46.2011 43.9706Z" fill="#AE2C8A"/>
<path d="M42.696 29.9019C43.2352 29.8529 43.5048 29.2156 43.2107 28.7254C43.0391 28.4803 42.8185 28.2598 42.4999 28.1372C41.5685 27.8431 38.5293 28.5049 37.2058 30.0245C36.0293 31.4215 40.245 30.1225 42.696 29.9019Z" fill="#AE2C8A"/>
<path d="M49.1667 30.2941C48.75 30.1715 48.6274 29.5588 48.9706 29.1666C49.1422 28.9705 49.3873 28.799 49.6569 28.7499C50.4902 28.6029 52.402 29.3627 52.9412 30.8088C53.4314 32.0588 51.152 30.7843 49.1667 30.2941Z" fill="#AE2C8A"/>
<path d="M38.9216 35.5881C38.3334 35.5636 37.8922 35.0734 37.9412 34.4852L37.9657 33.7989C37.9902 33.2107 38.4804 32.7695 39.0687 32.8185C39.6569 32.843 40.0981 33.3332 40.0491 33.9215L40.0246 34.6078C40 35.1715 39.5098 35.6127 38.9216 35.5881Z" fill="#AE2C8A"/>
<path d="M49.2401 35.9559C48.7009 35.9314 48.2843 35.4657 48.3088 34.9265L48.3333 34.2892C48.3578 33.75 48.8235 33.3333 49.3627 33.3578C49.9019 33.3823 50.3186 33.848 50.2941 34.3873L50.2696 35.0245C50.245 35.5637 49.7794 35.9804 49.2401 35.9559Z" fill="#AE2C8A"/>
<path d="M41.1273 34.2646C40.3185 33.7254 39.4361 33.3577 38.4557 33.5538C38.1371 33.6028 37.8185 33.7009 37.6224 33.9215C37.5489 34.0195 37.3773 33.995 37.3773 33.8479C37.4018 33.3578 37.8185 33.0391 38.2107 32.843C38.9705 32.4509 40.0244 32.5244 40.7107 33.0391C40.9558 33.1862 41.7891 34.093 41.3479 34.2891C41.2499 34.3381 41.2008 34.3136 41.1273 34.2646Z" fill="#AE2C8A"/>
<path d="M48.1371 34.3872C48.1371 33.3578 49.4116 32.9901 50.1959 33.3578C50.6371 33.5539 50.9557 33.946 51.0783 34.4117C51.1273 34.5588 50.9067 34.6813 50.8087 34.5588C50.392 34.0686 49.6812 33.8235 49.1175 34.1176C48.9459 34.2156 48.9214 34.2892 48.8724 34.3872C48.8724 34.8774 48.1616 34.8529 48.1371 34.3872Z" fill="#AE2C8A"/>
<path d="M37.1814 14.0195C22.6961 13.7254 21.2255 25.8578 22.1324 33.0882C23.1373 41.1274 27.9412 44.2891 27.9412 44.2891L28.2598 42.1568C28.2598 42.1568 27.1079 41.7646 26.0049 40.9558C22.1814 38.0637 23.3579 32.794 25.9559 32.4754C28.554 32.1323 29.6814 34.0195 30.0736 35.0489C31.4461 30.5146 29.5098 29.3872 31.4461 26.1764C37.5 19.6323 41.7157 24.044 44.6814 24.9019C47.9167 25.8087 50.0491 24.7793 51.25 23.6274C52.1079 22.794 53.2108 24.3627 53.2108 24.3627C53.2108 24.3627 51.6177 14.3137 37.1814 14.0195Z" fill="#AE2C8A"/>
<path d="M50.0735 41.9853C49.9509 41.25 49.5098 40.0245 48.8235 40.5637C48.5539 40.7843 47.1568 41.2254 46.8872 41.25C46.1029 41.3235 45.5147 41.2254 44.9509 40.7843C44.3137 40.2696 44.3137 40.049 44.1666 40C41.5931 39.1421 38.3578 38.2843 37.3039 41.7402C37.0588 42.549 34.9509 49.0441 39.0931 53.0392C39.5098 53.1372 41.9607 54.3382 47.0098 52.9902C47.6225 52.7205 48.4068 52.4509 48.75 51.8137C50.2451 49.0441 50.3186 43.5539 50.0735 41.9853ZM41.7402 48.1862C39.6078 48.1862 39.2156 46.8137 39.1176 46.3725C38.946 44.4607 39.2892 42.8676 39.7794 42.3039C41.0539 40.9068 42.9166 42.5245 44.9264 42.6715C46.9117 42.8186 48.3333 41.8627 48.5049 44.0931C48.5539 44.6323 48.5294 45.2451 48.5049 45.8578C48.5049 45.8823 48.5049 45.9068 48.5049 45.9313C48.4313 46.6176 48.3088 47.6225 47.5245 47.7941C45.6862 48.1862 46.348 47.3774 45.2451 47.3774C44.2156 47.4019 44.9509 48.1862 41.7402 48.1862Z" fill="#AE2C8A"/>
<path d="M70.6372 20.6617C85.5147 49.3137 59.3627 81.6421 28.1863 73.7499C14.1912 70.2696 2.94115 58.1372 0.612722 43.897C-2.03434 29.7303 4.36272 14.5098 16.3235 6.49505C32.7206 -4.77946 55.4412 -1.02946 67.1814 15.098C67.2549 15.1715 67.2304 15.2941 67.1323 15.3676C67.0588 15.4411 66.9362 15.4166 66.8627 15.3186C65.2451 13.2352 63.4068 11.348 61.397 9.65681C58.0882 6.83819 54.2157 4.6323 50.1225 3.13721C29.2892 -4.41181 6.42155 8.13721 1.86272 29.9264C-3.28434 54.3382 17.4755 76.8137 42.2304 73.4558C61.3235 71.0539 75.5147 53.4313 73.9461 34.2647C73.6029 29.6323 72.3774 25.049 70.3431 20.8333C70.2941 20.7598 70.3431 20.6617 70.4166 20.6127C70.4902 20.5637 70.5882 20.5882 70.6372 20.6617Z" fill="#AE2C8A"/>
</g>
</svg>
