<svg width="75" height="75" viewBox="0 0 75 75" fill="none" xmlns="http://www.w3.org/2000/svg">
<mask id="mask0_22_1241" style="mask-type:alpha" maskUnits="userSpaceOnUse" x="0" y="0" width="75" height="75">
<circle cx="37.377" cy="37.377" r="37.377" fill="#D9D9D9"/>
</mask>
<g mask="url(#mask0_22_1241)">
<path d="M57.8677 68.2353C57.6961 68.3578 57.5001 68.4804 57.3285 68.6029C57.1324 68.7255 56.9608 68.848 56.7648 68.9461C56.5932 69.0441 56.4461 69.1421 56.2746 69.2402C56.2501 69.2647 56.2256 69.2647 56.201 69.2892C55.6373 69.6323 55.0491 69.951 54.4608 70.2451C54.2893 70.3431 54.0932 70.4412 53.9216 70.5147C53.9216 70.5147 53.8971 70.5392 53.8726 70.5392C53.6765 70.6372 53.4805 70.7353 53.2844 70.8333C52.8922 71.0294 52.4756 71.201 52.0834 71.3725C51.8873 71.4706 51.6667 71.5441 51.4707 71.6176C51.2746 71.6912 51.054 71.7892 50.8579 71.8627C50.6618 71.9363 50.4412 72.0343 50.2452 72.1078C50.2452 72.1078 50.2452 72.1078 50.2206 72.1078C50.0246 72.1814 49.804 72.2549 49.6079 72.3284C49.1667 72.4755 48.701 72.6225 48.2599 72.7696C48.1128 72.8186 47.9412 72.8676 47.7942 72.9167C47.3285 73.0637 46.8628 73.1863 46.3971 73.2843C46.2256 73.3333 46.054 73.3578 45.8579 73.4069C45.4167 73.5049 44.951 73.6029 44.5099 73.701C44.4118 73.7255 44.3383 73.7255 44.2403 73.75C44.0932 73.7745 43.9216 73.799 43.7746 73.8235C43.554 73.848 43.3579 73.897 43.1373 73.9216C43.0393 73.9461 42.9412 73.9461 42.8432 73.9706C42.7207 73.9951 42.5736 74.0196 42.4265 74.0196C42.0344 74.0686 41.6177 74.1176 41.2256 74.1667C41.103 74.1912 40.9559 74.1912 40.8334 74.2157H40.8089C40.6373 74.2402 40.4658 74.2402 40.2942 74.2647C40.1226 74.2892 39.951 74.2892 39.7795 74.2892C39.6814 74.2892 39.5589 74.3137 39.4608 74.3137C39.2648 74.3137 39.0932 74.3382 38.9216 74.3382C38.6765 74.3382 38.4559 74.3627 38.2108 74.3627C37.9658 74.3627 37.7452 74.3627 37.5001 74.3627C37.3285 74.3627 37.1569 74.3627 36.9854 74.3627C26.6422 74.2157 17.353 69.8284 10.7109 62.8676C10.7109 62.8676 10.7108 62.8431 10.6863 62.8431C9.95105 62.1814 10.5883 58.6519 13.554 56.4216C17.2795 53.6029 26.201 51.8382 26.201 51.8382C26.201 51.8382 29.6569 51.2745 42.4756 53.9461C49.9756 55.5147 55.6863 57.7941 58.8726 63.9706C59.5344 65.2451 60.1961 67.2059 57.8677 68.2353Z" fill="#12B886"/>
<path d="M42.5491 53.6765C47.255 54.6323 52.2795 55.6618 56.1521 58.7745C57.4511 59.8284 58.3089 61.3725 59.0197 62.8676C59.3628 63.6029 59.706 64.3627 59.9756 65.1716C60.1226 65.7108 60.3432 66.3235 60.2207 66.9608C60.1962 67.1324 60.0491 67.3529 59.9266 67.4755C59.3628 68.0392 58.7501 68.3823 58.1373 68.8235C54.5344 71.3235 50.3923 73.0882 46.103 74.0196C36.5442 76.1029 26.2011 74.4853 17.7942 69.4608C15.0001 67.7696 12.4266 65.7108 10.2207 63.2843C9.97559 62.9902 9.97559 62.5 9.97559 62.1814C10.0001 61.4461 10.1962 60.7353 10.4413 60.0735C11.0295 58.5539 11.7893 57.0343 13.0883 55.9804C14.0197 55.3431 15.0246 54.8039 16.054 54.3627C19.2893 52.9902 22.6962 52.0343 26.2011 51.6422C26.4952 51.6176 26.5442 52.0343 26.2501 52.0833C22.8923 52.7696 19.5589 53.799 16.4462 55.1961C15.3187 55.7598 14.1177 56.25 13.2109 57.1324C12.353 58.0637 11.7403 59.2157 11.2501 60.3922C10.9315 61.1029 10.7109 62.2304 10.8089 62.7941C12.353 64.6324 14.1668 66.25 16.1275 67.6471C26.8628 75.1471 43.1619 75.6373 54.5834 69.3873C55.6128 68.8235 56.6177 68.1863 57.5736 67.5245C58.0393 67.2059 58.5295 66.9363 58.8972 66.5686C58.9217 66.5441 58.8972 66.5686 58.8972 66.5931C58.8972 66.6176 58.8726 66.6422 58.8726 66.6422C58.8972 66.348 58.7991 65.9559 58.6766 65.5637C58.2354 64.1422 57.5246 62.6471 56.7648 61.348C55.5638 59.4118 53.5295 58.1863 51.4707 57.2059C50.0491 56.5441 48.554 56.0294 47.0344 55.5392C45.5148 55.049 43.9707 54.6323 42.4266 54.2647C42.0344 54.1667 42.157 53.6029 42.5491 53.6765Z" fill="#12B886"/>
<path d="M28.554 54.0551C28.554 54.0551 28.0638 51.0159 27.2304 51.1875C25.2451 51.6532 18.8236 53.0012 14.902 55.109C14.0442 55.5747 13.4314 55.9424 12.6961 56.6287C11.3481 57.9032 10.4167 61.212 9.28926 65.2316C6.8873 73.8345 4.01965 83.3443 4.01965 83.3443H66.0049C66.0049 83.3443 62.1324 78.712 60.9069 70.5257C59.7549 62.8296 57.4755 60.06 57.0834 59.5698C56.0049 58.2218 51.054 55.5012 48.652 54.4718C44.9755 52.9032 41.2746 56.1875 40.2206 56.1139C38.3579 56.0649 28.554 54.0551 28.554 54.0551Z" fill="#12B886" stroke="#12B886" stroke-width="5.1257" stroke-miterlimit="10" stroke-linecap="round" stroke-linejoin="round"/>
<path d="M16.152 83.3688L15.0491 74.2757" stroke="white" stroke-width="3" stroke-miterlimit="10" stroke-linecap="round" stroke-linejoin="round"/>
<path d="M58.9707 71.1876C58.9707 71.1876 58.2354 72.9768 58.456 74.766C58.6766 76.5552 59.3138 79.1778 58.407 83.3689" stroke="white" stroke-width="3" stroke-miterlimit="10" stroke-linecap="round" stroke-linejoin="round"/>
<path d="M25.7107 48.712C25.7107 48.712 23.946 49.3493 23.6274 49.6924C23.3088 50.0356 23.1617 50.2561 23.1617 50.2561C23.1617 50.2561 22.2794 51.2365 21.7892 53.614C21.5686 54.6189 22.0833 56.261 21.6911 57.5601C20.5637 61.163 25.9068 66.7022 34.7303 69.962C41.4215 72.4375 48.799 70.1826 49.8284 65.5258C50.8088 61.0405 50.2205 59.0061 49.7549 57.5601C48.8235 54.7659 48.5294 53.9816 47.2794 52.9032C46.495 52.2169 45.9558 53.6385 43.0147 54.4473C42.1078 54.6924 41.0049 54.8885 39.5833 54.9375C31.1274 55.2561 30.9313 50.1336 29.6568 48.7856C29.3627 48.4914 27.696 48.0012 25.7107 48.712Z" fill="white"/>
<path d="M25.8578 49.0552C25.2206 49.3003 24.4853 49.5453 23.9216 49.9375C23.7745 50.0846 23.6029 50.3052 23.4559 50.4767C22.9657 51.114 22.647 51.9228 22.4019 52.6826C22.1323 53.4914 22.0343 54.2267 22.1323 55.0846C22.1814 55.8444 22.2549 56.6777 22.0833 57.4375C21.7892 58.2954 21.8627 59.2022 22.2059 60.0601C24.1667 65.1091 33.5539 69.9865 38.7745 70.4767C42.598 70.8689 47.9167 69.815 49.3627 65.8199C50.098 62.9767 50.3921 59.8885 49.3137 57.1189C48.897 55.9424 48.5539 54.6434 47.7696 53.6875C47.647 53.5404 47.5 53.3934 47.3529 53.2463L47.1323 53.0503C47.0588 53.0012 47.0098 52.9522 46.9363 52.9522C46.6176 52.9032 46.2255 53.2218 45.9314 53.3934C43.7255 54.8395 40.9804 55.2071 38.3823 55.1091C35.7843 55.0601 32.9902 54.2757 31.3725 52.1189C30.5637 51.163 30.1961 49.9375 29.4608 48.9816L29.4363 48.9571L29.3872 48.9326C28.2598 48.4669 26.9363 48.6385 25.8578 49.0552ZM25.6618 48.5159C26.9363 48.0503 28.5294 47.8052 29.7549 48.4914C30.0735 48.7855 30.2696 49.2267 30.4657 49.6189C30.8333 50.4032 31.1765 51.163 31.6667 51.8493C33.1127 54.0306 35.8578 54.7414 38.3578 54.7414C40.049 54.7659 41.7892 54.6189 43.3823 54.0797C44.1912 53.8101 44.951 53.4424 45.6618 52.9767C46.1519 52.6581 46.8382 52.1679 47.3774 52.6826C47.9902 53.1728 48.5049 53.8101 48.848 54.4963C49.4118 55.6973 49.8039 56.9228 50.2206 58.1728C50.9559 60.7463 50.6127 63.4424 50.0245 65.9914C48.5049 70.4522 42.8921 71.6042 38.7255 71.163C33.6274 70.6238 26.1029 66.6287 22.9657 62.5601C21.9118 61.163 20.9559 59.3983 21.4216 57.5846C21.6912 56.8003 21.6176 55.9669 21.5441 55.1091C21.4216 54.2512 21.5441 53.3199 21.8382 52.4865C22.0833 51.6532 22.5 50.7218 22.9902 50.1091C23.2353 49.7904 23.5294 49.4228 23.8725 49.2512C24.4363 48.9571 25.0245 48.6875 25.6618 48.5159Z" fill="#12B886"/>
<path d="M43.0639 54.7905C40.956 55.2561 38.7992 55.2561 36.6668 55.0846C33.8237 54.8395 30.9315 53.9081 28.8972 51.8248C28.3825 51.3346 27.9168 50.7463 27.4511 50.2807C27.3041 50.1336 27.3041 49.8885 27.4511 49.7414C27.5982 49.5944 27.8678 49.5944 27.9903 49.766C28.456 50.3542 28.8482 50.8934 29.3139 51.4081C31.6668 54.0552 35.3678 54.815 38.7746 54.7169C40.1472 54.6679 41.5442 54.5454 42.8678 54.1042C43.358 53.9326 43.5786 54.6679 43.0639 54.7905Z" fill="#12B886"/>
<path d="M47.4512 52.0209C49.6816 53.8836 53.5541 58.7611 52.6227 69.6679C52.1571 75.0601 54.7796 77.2905 54.1914 78.1483C54.0933 78.2954 53.9708 78.3689 53.8727 78.3934C53.4561 78.4915 53.0639 78.6875 52.8678 79.0797C52.7943 79.2513 52.6718 79.3738 52.5002 79.4719C52.3531 79.5699 52.1816 79.5699 52.0345 79.5454C51.5198 79.4228 50.9561 79.717 50.6374 80.1581C50.5149 80.3297 50.3678 80.4523 50.1473 80.5013C50.0002 80.5503 49.8531 80.5258 49.7551 80.5013C49.3384 80.3787 48.8727 80.5013 48.5051 80.7954C48.4071 80.8689 48.309 80.9179 48.1865 80.9179C47.9659 80.9179 47.7943 80.8199 47.6472 80.6728C47.3041 80.3542 46.8139 80.2317 46.3237 80.4032C46.2747 80.4277 46.2502 80.4277 46.2012 80.4277C45.858 80.4768 45.5884 80.2072 45.3923 79.7415C45.1963 79.3003 44.7306 79.1042 44.2404 79.1532C44.1423 79.1532 44.0443 79.1532 43.9218 79.1287C42.9659 78.9081 41.7404 77.5846 41.7159 75.967C41.6914 74.3738 42.059 71.6042 42.6718 70.3052C44.559 66.3101 45.2453 63.4424 45.3433 61.2856C45.5394 57.3395 43.0394 53.8101 43.2845 53.7366C45.7845 53.2219 47.4512 52.0209 47.4512 52.0209Z" fill="white"/>
<path d="M47.4511 51.6532C48.0883 51.9963 48.603 52.6336 49.0932 53.1728C51.6177 56.1875 52.6717 60.1336 52.9658 64.0061C53.0638 65.5012 53.0883 67.0208 52.9658 68.5159L52.8922 69.6434C52.7207 71.4571 52.8922 73.3199 53.505 75.0355C53.7501 75.7218 54.0442 76.3836 54.3383 77.0944C54.5099 77.4865 54.6324 78.0748 54.2648 78.4179C54.1422 78.5895 53.8726 78.6385 53.652 78.712C53.4315 78.7855 53.2354 78.9081 53.1128 79.1042C52.9168 79.5208 52.4756 79.8885 51.9854 79.7905C51.6177 79.6924 51.2256 79.864 50.956 80.1336C50.6864 80.5012 50.3187 80.8199 49.8285 80.7463C49.5099 80.6728 49.1913 80.6238 48.8726 80.7954C48.7501 80.8444 48.652 80.9424 48.554 81.0159C48.2599 81.1875 47.8922 81.1385 47.6226 80.9669C47.4266 80.8444 47.3775 80.7218 47.206 80.6483C46.9609 80.5257 46.6422 80.5012 46.3726 80.5993C45.7599 80.7954 45.3187 80.2561 45.1226 79.7659C44.9511 79.3983 44.4854 79.3248 44.1177 79.3738C43.8481 79.3738 43.5785 79.2758 43.3334 79.1532C42.2795 78.565 41.5932 77.462 41.4462 76.261C41.3726 75.1091 41.5197 73.9816 41.6913 72.8542C41.8138 72.1189 41.9854 71.3591 42.2305 70.6483C42.5001 69.9375 42.8432 69.3003 43.1373 68.5895C44.2403 65.8934 45.2697 62.9767 45.0736 60.011C44.8775 57.9767 44.1177 56.065 43.1619 54.2757C43.0638 54.0552 42.8187 53.663 43.1619 53.5405C44.5099 53.2218 45.8089 52.6581 46.9609 51.8738C47.157 51.8003 47.2795 51.6532 47.4511 51.6532ZM47.4266 52.3885C47.4756 52.3885 47.5246 52.3885 47.5736 52.364C47.6471 52.315 47.5981 52.3395 47.5981 52.3395C46.9364 52.7071 46.2501 53.0257 45.5393 53.2954C44.853 53.5405 43.8726 53.8346 43.3089 53.9326C43.3579 53.9081 43.407 53.8591 43.407 53.7856C43.456 53.9816 43.7011 54.4228 43.7746 54.6189C46.4952 60.0356 46.0785 63.3934 43.7746 68.8591C43.505 69.5208 43.1373 70.2071 42.8677 70.8934C42.353 72.413 42.1324 74.0797 42.0834 75.6973C42.0099 76.9473 42.7942 78.4179 44.0197 78.761C44.0687 78.761 44.0932 78.761 44.1422 78.761C44.5344 78.7365 44.9266 78.8101 45.2452 79.0552C45.4168 79.1777 45.5638 79.3738 45.6619 79.5944C45.7599 79.815 45.8824 80.1091 46.1275 80.0601C46.6668 79.8885 47.2795 79.962 47.7207 80.3542C47.8922 80.5257 48.0148 80.6238 48.2354 80.5503C48.5295 80.3297 48.8726 80.1581 49.2648 80.1336C49.5834 80.0846 49.902 80.3297 50.1962 80.1336C50.3432 80.0356 50.4168 79.8885 50.5393 79.7659C50.9069 79.3983 51.4462 79.1532 51.9854 79.2758C52.3285 79.3738 52.5246 79.1042 52.6471 78.8346C52.8922 78.4669 53.3089 78.2708 53.7256 78.1728C54.0932 78.0258 53.9217 77.6091 53.8236 77.2905C53.554 76.6287 53.2354 75.9179 52.9903 75.2071C52.7452 74.4963 52.5491 73.761 52.4511 73.0012C52.206 71.5307 52.3285 69.9865 52.4266 68.4914C52.5246 67.0208 52.5001 65.5257 52.402 64.0552C52.0834 60.2561 50.956 56.3101 48.3334 53.4424C48.1128 53.1728 47.8187 52.9277 47.5736 52.6826C47.5491 52.5846 47.5001 52.511 47.4266 52.3885Z" fill="#12B886"/>
<path d="M43.897 67.7807C39.5588 67.9523 34.951 67.217 31.4215 64.5699C31.2745 64.4719 31.4461 64.2268 31.5931 64.3493C34.2157 66.2121 37.451 66.9474 40.6372 67.1189C41.6912 67.1679 42.7941 67.1679 43.8235 67.0699C44.3382 67.0209 44.4117 67.7317 43.897 67.7807Z" fill="#12B886"/>
<path d="M45.9806 54.4228C47.0835 55.5748 47.6717 57.1924 47.5982 58.7855C47.5982 58.8591 47.4757 58.8836 47.4512 58.8101C47.108 57.7071 46.7159 56.6532 46.2012 55.6483C46.0296 55.3052 45.858 54.962 45.711 54.6189C45.6865 54.4473 45.8825 54.3248 45.9806 54.4228Z" fill="#12B886"/>
<path d="M48.652 80.6483C47.6717 77.7561 48.1619 74.5943 48.7991 71.6777C49.3873 68.8345 49.902 65.8689 49.5589 62.9767C49.5099 62.7806 49.8285 62.6826 49.8775 62.9032C50.2942 65.8689 49.8775 68.8591 49.3383 71.7757C49.0442 73.2218 48.8236 74.6679 48.7991 76.1139C48.7746 77.511 48.8481 78.9816 49.3628 80.3051C49.5344 80.7953 48.8726 81.1139 48.652 80.6483Z" fill="#12B886"/>
<path d="M22.0834 54.6924C22.9413 56.5061 23.9707 58.3444 25.4413 59.7169C25.5638 59.815 25.4168 60.0356 25.2697 59.913C23.603 58.614 22.4266 56.8248 21.3972 55.011C21.2011 54.5699 21.8874 54.2267 22.0834 54.6924Z" fill="#12B886"/>
<path d="M45.2206 60.2316C43.8726 63.8101 40.049 63.5895 37.1079 62.1924C37.0098 62.1434 36.9608 62.0454 37.0098 61.9473C37.0589 61.8493 37.1569 61.8003 37.2549 61.8493C37.9412 62.1189 38.652 62.364 39.3628 62.4865C41.4951 62.9522 43.799 62.2659 44.5098 60.0356C44.6324 59.5454 45.3432 59.7659 45.2206 60.2316Z" fill="#12B886"/>
<path d="M44.8527 60.1961C44.338 62.7206 41.0047 64.2402 35.3919 61.9608C29.5586 59.6079 27.0341 53.9951 26.3969 52.3285C29.8527 45.8579 27.4508 41.3726 27.4508 41.3726C35.4165 40.6863 42.3772 50 42.3772 50L43.4557 54.6079C43.5537 55 43.7498 55.3432 44.0439 55.5883C44.5586 56.4951 45.1714 58.5785 44.8527 60.1961Z" fill="white"/>
<path d="M26.2745 52.402C26.7401 51.6912 27.0343 50.8578 27.2303 50.049C27.598 48.3578 27.7205 46.6422 27.745 44.9265V44.2892C27.6715 43.652 27.4509 42.9902 27.2058 42.402C26.8872 41.6177 28.0392 41.1275 28.4068 41.9118C28.4558 42.0098 28.4558 42.1814 28.4558 42.2794C28.5294 45.6127 28.6764 49.902 26.5686 52.6716C26.4215 52.8186 26.1274 52.598 26.2745 52.402Z" fill="#12B886"/>
<path d="M42.6469 49.951C43.0146 50.1716 43.1371 50.4657 43.1861 50.7599C43.3332 51.3481 43.2842 51.9853 43.4312 52.5981C43.5538 53.1863 43.9214 53.75 44.0195 54.3628C44.142 55.0001 44.5097 56.3481 44.6567 57.0099C44.7058 57.1569 44.6077 57.3285 44.4361 57.353C44.3381 57.3775 44.2646 57.353 44.191 57.304C43.8724 57.0344 43.7254 56.7648 43.5293 56.4216C43.2107 55.8334 42.9901 55.2942 42.794 54.6324C42.6224 54.0442 42.696 53.4069 42.5489 52.7942C42.4263 52.2059 42.0832 51.6422 41.9607 51.0295C41.8871 50.7353 41.8626 50.4167 42.0832 50.0491C42.2303 49.902 42.4754 49.853 42.6469 49.951Z" fill="#12B886"/>
<path d="M44.4117 56.4216C39.7303 56.1765 35.9068 54.7059 32.1813 48.0638C35.3185 50.8334 39.0195 51.8873 42.9166 52.3775L43.4313 54.6324C43.5293 55.0246 44.1175 56.1765 44.4117 56.4216Z" fill="#12B886"/>
<path d="M44.2157 55.5148C45.0491 57.0834 45.5393 59.0442 45.0246 60.7844C44.6324 62.0099 43.5049 62.9167 42.2795 63.2599C39.4363 64.0197 36.152 62.8187 33.6275 61.4706C30.5148 59.7304 28.2108 56.8138 26.7402 53.6275C26.6422 53.3824 26.9853 53.1863 27.1324 53.4314C27.6471 54.4608 28.2353 55.4657 28.8971 56.3726C29.5589 57.304 30.3187 58.1618 31.1765 58.9216C33.6765 61.1765 37.0589 62.5736 40.4412 62.5736C43.9216 62.4755 45.2451 60.6373 44.4363 57.255C44.3138 56.7157 44.1177 56.152 43.8481 55.6863C43.701 55.4902 44.0687 55.2697 44.2157 55.5148Z" fill="#12B886"/>
<path d="M53.7009 26.0784C54.1421 28.1372 54.3627 29.8039 53.1617 35.2941C51.9853 40.7598 54.8529 41.8872 48.0637 50.6372C45.2941 54.2157 38.5784 53.2108 33.1372 49.5098C31.299 48.2598 30.5147 45.049 29.1421 42.7696C28.0637 40.9804 27.5735 42.8431 26.1519 41.299C24.2156 39.1912 21.8872 34.951 23.0392 27.451C24.9019 15.2941 34.5343 13.8725 41.6666 15.2206C48.848 16.5931 52.5245 20.6617 53.7009 26.0784Z" fill="white"/>
<path d="M27.3774 43.4804C26.8137 42.5245 26.0784 41.6912 25.3921 40.8088C24.7304 39.902 24.1912 38.8971 23.75 37.8677C20.8333 30.7108 21.9608 20.6373 29.1176 16.4216C32.0833 14.7059 35.6617 14.2892 38.9951 14.5588C46.1274 15.0735 52.6716 18.3579 54.2157 25.9069C55.049 29.2402 53.9215 32.6716 53.2843 35.9314C52.9902 37.549 53.2353 39.2157 53.2108 40.8824C53.1863 42.5735 52.7206 44.2647 52.0833 45.8333C51.6912 46.9118 51.0049 47.8677 50.2941 48.75C49.1176 50.1716 47.9412 51.6177 46.4461 52.7206C46.1029 52.9657 45.4902 53.0882 45.0735 53.1373C43.9215 53.3088 42.7941 53.3579 41.6421 53.2843C37.1323 53.0882 32.3039 50.9069 30.4902 46.5441C30.4166 46.3726 30.6617 46.25 30.7598 46.3971C33.1127 50.1226 37.4265 51.9608 41.7157 52.2059C43.0392 52.2794 44.3872 52.2549 45.6863 51.9853C46.3235 51.6667 46.8872 51.103 47.4265 50.5882C48.75 49.2647 50.098 47.8432 51.0539 46.2255C52.2059 44.0441 52.8431 41.6667 52.647 39.1912C52.598 38.0882 52.5735 36.9363 52.7941 35.8333C52.9902 34.7304 53.2353 33.6765 53.3823 32.549C53.5294 31.4706 53.6029 30.3677 53.6029 29.2892C53.4804 26.1275 52.451 22.8677 50.4412 20.4167C46.0049 14.902 35.5147 13.4559 29.6078 17.2304C25.8823 19.5343 24.1421 23.8481 23.5784 28.0392C22.7206 33.0637 22.9657 38.0147 26.9608 41.6667L28.1372 42.8922C28.6029 43.4314 27.7696 44.0686 27.3774 43.4804Z" fill="#12B886"/>
<path d="M30.2695 35.6862C30.2695 35.6862 29.5097 32.0098 25.9313 32.4509C22.843 32.8431 21.7646 40.2451 28.7744 42.3039" fill="white"/>
<path d="M28.4559 39.0931C27.8922 38.7745 27.5 38.2353 27.4755 37.5735C27.5 37.0833 27.5735 36.5196 27.451 36.0294C27.3775 35.5637 26.8873 35.4412 26.5196 35.4657C26.1274 35.5392 25.8824 36.0294 25.8088 36.4216C25.8088 36.4461 25.7843 36.5196 25.7843 36.5441C25.7598 36.6667 25.5637 36.6667 25.5147 36.5441C25.1961 35.5882 25.9069 34.5343 26.9363 34.6569C28.3824 34.7549 28.5784 36.2745 28.3088 37.4265C28.1618 37.9167 28.3578 38.3578 28.6275 38.7745L28.6765 38.848C28.799 38.9951 28.6029 39.1912 28.4559 39.0931Z" fill="#12B886"/>
<path d="M48.0637 33.0882C48.4313 34.8284 49.1176 36.4461 49.9754 37.9657C50.7352 39.8284 48.7744 41.5932 47.0342 41.5196C46.8382 41.5196 46.8136 41.25 46.9852 41.201C48.0882 40.8579 49.0931 40.1226 49.2646 38.9951C49.3382 38.652 49.2401 38.3579 49.0686 38.0637C48.2597 36.5441 47.7695 34.8039 47.8921 33.0882C47.8921 32.9657 48.0637 32.9657 48.0637 33.0882Z" fill="#12B886"/>
<path d="M30.147 35.7108C29.5833 34.2647 28.3578 32.8922 26.7157 32.9167C26.5686 32.8922 26.3235 32.9412 26.1764 32.9412C25.7598 32.9657 25.4166 33.1127 25.098 33.4069C23.5294 34.9755 23.799 37.7451 25.0735 39.4853C25.5147 40.098 26.0784 40.6373 26.7157 41.0784C27.3529 41.5196 28.0637 41.8627 28.8235 42.1569C28.9951 42.2059 28.9215 42.4755 28.75 42.451C27.1078 42.1078 25.5392 41.299 24.4608 39.951C22.7941 37.9412 22.451 34.5833 24.4362 32.6226C24.8774 32.2304 25.4902 31.9363 26.1029 31.9363C26.299 31.9363 26.5931 31.8873 26.7892 31.9363C27.8186 31.9853 28.799 32.5 29.4362 33.3088C30 33.9951 30.3186 34.8284 30.4166 35.6618C30.4166 35.8088 30.1961 35.8578 30.147 35.7108Z" fill="#12B886"/>
<path d="M46.2011 43.9706C44.6324 45.4657 41.6667 44.2647 40.8824 42.451C40.7844 42.2304 41.0295 42.0343 41.2256 42.1324C41.6422 42.353 42.0099 42.5735 42.402 42.7451C43.5295 43.2598 44.706 43.6765 45.956 43.5539C46.2011 43.5049 46.3726 43.799 46.2011 43.9706Z" fill="#12B886"/>
<path d="M40.0735 33.8481C40.0735 33.8726 40.0735 33.8971 40.0735 33.8971L40.049 34.5834C40.0245 35.1717 39.5343 35.6128 38.946 35.5883C38.3578 35.5638 37.9166 35.0491 37.9656 34.4854L37.9901 33.7991C37.9901 33.6766 38.0392 33.5295 38.0882 33.4315L40.049 33.5295C40.049 33.6275 40.0735 33.7256 40.0735 33.8481Z" fill="#12B886"/>
<path d="M50.3185 34.3873L50.294 35.0245C50.2695 35.5638 49.8038 35.9804 49.2646 35.9559C48.7253 35.9314 48.3087 35.4657 48.3332 34.9265L48.3577 34.2892C48.3577 34.1667 48.3822 34.0441 48.4312 33.9461L50.2695 34.0196C50.294 34.1422 50.3185 34.2647 50.3185 34.3873Z" fill="#12B886"/>
<path d="M42.5243 30.4902C43.0636 30.5638 43.4802 30.0001 43.2842 29.4608C43.1861 29.1667 43.0145 28.8971 42.7449 28.7255C41.9116 28.2108 38.7989 28.1618 37.1567 29.3383C35.6861 30.4167 40.0734 30.1471 42.5243 30.4902Z" fill="#12B886"/>
<path d="M49.3136 30.7598C48.8724 30.7598 48.6028 30.1961 48.8234 29.7304C48.946 29.4853 49.1175 29.2647 49.3626 29.1422C50.1224 28.7745 52.1568 28.9951 53.0636 30.2451C53.8724 31.3481 51.3479 30.7353 49.3136 30.7598Z" fill="#12B886"/>
<path d="M41.6419 33.8481L37.5978 33.7745C37.1076 33.75 37.1321 33.0147 37.6223 33.0392L41.6664 33.3334C42.0096 33.3579 41.9851 33.8481 41.6419 33.8481Z" fill="#12B886"/>
<path d="M51.348 34.2647L48.3578 34.3137C47.8676 34.3137 47.8431 33.6029 48.3333 33.5784C48.3578 33.5784 48.3578 33.5784 48.3823 33.5784L51.3725 33.8971C51.5931 33.9216 51.5686 34.2402 51.348 34.2647Z" fill="#12B886"/>
<path d="M48.848 23.7745C49.3627 24.0441 49.8039 23.799 50.0735 23.2598C52.9166 22.8186 53.5784 28.5049 53.6764 28.848C53.9951 30.147 55.7107 30.3921 56.348 29.2402C58.0882 26.0539 59.2156 21.5686 54.2892 18.7745C54.9019 17.8676 54.4608 13.3578 49.3382 12.2549C47.5 11.8627 45.098 13.5784 42.0833 12.9167C30.2941 10.2941 18.0637 12.7941 19.0196 28.3578C19.2402 31.7647 19.4607 35.4412 13.6764 37.8921C6.96075 40.7353 7.30389 48.1618 12.0343 49.6814C13.9951 50.3186 7.52447 54.7304 11.299 58.652C13.2598 60.7108 16.7647 56.5441 20.3186 58.799C25.6862 62.2059 28.3578 60.6618 29.4117 59.3137C31.5686 56.5686 28.897 51.0539 28.897 51.0539C28.897 51.0539 29.9509 49.3627 30.2941 48.4559C31.9607 43.9951 27.9902 41.9853 27.9902 41.9853C21.8627 39.6323 22.9657 32.7941 25.9558 32.4019C29.0931 32.0098 30.0735 34.8039 30.2451 35.4902C30.2451 35.4902 33.0147 39.3137 38.3578 30.5882C43.6519 21.8872 46.5196 22.5245 48.848 23.7745Z" fill="#12B886"/>
<path d="M42.8186 38.6029C42.8186 38.6029 40.5147 40.049 37.9166 40.0245C35.3186 40 35 37.9657 34.9755 36.8627C34.9755 36.8627 35.3186 38.4559 36.8872 39.0441C38.4313 39.6323 42.8186 38.6029 42.8186 38.6029Z" fill="#12B886"/>
<path d="M50.2203 38.3333C50.2203 38.3333 50.7841 39.0196 51.5439 39.5098C52.0586 39.8529 52.7449 39.4853 52.7449 38.8725C52.7449 38.8725 51.3233 38.9461 50.2203 38.3333Z" fill="#12B886"/>
<path d="M43.6763 32.0588C42.3528 31.9363 39.0195 31.6667 37.7449 31.5441L36.7646 31.4706C35.9557 31.4216 35.3185 32.1078 35.1714 32.8922C35.1224 33.1373 35.1224 33.5539 35.1224 33.799V34.8039C35.1224 35.4167 35.0979 36.0539 35.3185 36.6422C35.7106 38.0147 36.9606 39.1176 38.4312 38.9461C38.5783 38.9216 39.4851 38.8235 39.6567 38.799L41.642 38.5784C42.2793 38.5294 42.8675 38.3578 43.4312 38.0147C44.2155 37.549 44.9753 36.8382 44.9263 35.8333L44.9753 34.8529C45.0244 33.6274 45.3675 32.1814 43.6763 32.0588ZM43.7498 31.25C44.9018 31.348 45.6861 32.549 45.6126 33.652C45.6126 33.799 45.5636 34.7304 45.5391 34.902C45.5391 35.098 45.49 35.9804 45.4655 36.152C45.343 37.8186 43.4802 38.9951 41.9606 39.2157C41.1763 39.3137 39.5342 39.5343 38.7498 39.6324C38.5538 39.6569 38.2842 39.6814 38.0881 39.7059C37.99 39.7059 37.7695 39.6814 37.6714 39.6814C35.5881 39.4118 34.2646 37.2794 34.3136 35.2941C34.3136 34.9755 34.3136 34.1422 34.3136 33.799C34.3136 33.6274 34.3136 33.1863 34.3381 33.0147C34.4116 32.1569 34.8773 31.3235 35.6616 30.8578C36.0047 30.6618 36.4214 30.5637 36.8381 30.5882L37.843 30.6863C39.0685 30.8333 42.4508 31.152 43.7498 31.25Z" fill="#12B886"/>
<path d="M49.4362 31.6422C49.9754 31.5686 52.6225 31.2745 53.1127 31.2255C53.2352 31.2255 53.5538 31.1765 53.6519 31.1765C54.7058 31.0294 55.196 32.1814 55.294 33.0392C55.3431 33.799 55.294 34.5343 55.3186 35.2696C55.3186 35.7843 55.2695 36.299 55.147 36.7892C54.8284 38.1128 53.897 39.5098 52.3529 39.0686C51.9852 38.9951 51.2499 38.8971 50.9068 38.8235L50.5391 38.75C49.8284 38.6275 49.2401 38.1373 48.848 37.5981C48.1127 36.7402 48.2597 35.5883 48.1862 34.5588C48.0882 33.5294 48.1127 31.9363 49.4362 31.6422ZM49.5342 32.353C48.7744 32.6961 48.9705 33.8481 48.9705 34.5343L49.0195 36.0049C49.044 36.9363 49.7793 37.8677 50.6617 38.1128C50.8823 38.1618 51.495 38.2843 51.7401 38.3334L52.4509 38.4804C54.2156 39.0441 54.9019 36.5932 54.8774 35.2451C54.8038 34.1177 55.147 32.7696 54.3382 31.8628C54.1421 31.6667 53.946 31.6177 53.7254 31.6667C53.6029 31.6912 53.2842 31.7402 53.1862 31.7647C52.696 31.8628 50.0489 32.2794 49.5342 32.353Z" fill="#12B886"/>
<path d="M34.7058 33.9216C34.5097 34.3628 34.3381 34.3137 33.995 34.3137L33.2842 34.2892C32.3773 34.2402 31.3724 34.1667 30.4656 34.0441C29.9754 33.9706 29.4607 33.8971 28.9705 33.7745C28.7744 33.7255 28.6519 33.5294 28.7009 33.3333C28.7499 33.1618 28.897 33.0392 29.0685 33.0637L30.4901 33.1373L31.9117 33.1863C32.3773 33.2108 33.5783 33.2353 34.044 33.2598C34.2891 33.2598 34.5097 33.2843 34.7548 33.2108C34.8528 33.1863 34.9509 33.2353 34.9754 33.3333C34.9999 33.3824 34.9754 33.4069 34.9754 33.4559L34.7058 33.9216Z" fill="#12B886"/>
<path d="M45.1469 33.4069C46.0293 32.9167 48.3577 32.2304 48.7989 33.5539C48.995 33.8971 48.4803 34.2157 48.2597 33.8725C48.2597 33.9216 48.1371 33.8725 48.0881 33.8725C47.1568 33.799 46.2009 33.9461 45.2695 34.0196C44.8773 34.0686 44.8038 33.5539 45.1469 33.4069Z" fill="#12B886"/>
<path d="M70.6372 20.6618C85.5147 49.3137 59.3627 81.6422 28.1863 73.75C14.1912 70.2696 2.94115 58.1373 0.612722 43.8971C-2.03434 29.7304 4.36272 14.5098 16.3235 6.49511C32.7206 -4.7794 55.4412 -1.0294 67.1814 15.0981C67.2549 15.1716 67.2304 15.2941 67.1323 15.3677C67.0588 15.4412 66.9362 15.4167 66.8627 15.3186C65.2451 13.2353 63.4068 11.3481 61.397 9.65688C58.0882 6.83825 54.2157 4.63237 50.1225 3.13727C29.2892 -4.41175 6.42155 8.13727 1.86272 29.9265C-3.28434 54.3382 17.4755 76.8137 42.2304 73.4559C61.3235 71.0539 75.5147 53.4314 73.9461 34.2647C73.6029 29.6324 72.3774 25.049 70.3431 20.8333C70.2941 20.7598 70.3431 20.6618 70.4166 20.6128C70.4902 20.5637 70.5882 20.5882 70.6372 20.6618Z" fill="#12B886"/>
</g>
</svg>
