<svg width="75" height="75" viewBox="0 0 75 75" fill="none" xmlns="http://www.w3.org/2000/svg">
<mask id="mask0_22_1229" style="mask-type:alpha" maskUnits="userSpaceOnUse" x="0" y="0" width="75" height="75">
<circle cx="37.377" cy="37.377" r="37.377" fill="#D9D9D9"/>
</mask>
<g mask="url(#mask0_22_1229)">
<path d="M57.8678 68.2353C57.6963 68.3578 57.5002 68.4804 57.3286 68.6029C57.1325 68.7255 56.961 68.848 56.7649 68.9461C56.5933 69.0441 56.4463 69.1421 56.2747 69.2402C56.2502 69.2647 56.2257 69.2647 56.2012 69.2892C55.6374 69.6323 55.0492 69.951 54.461 70.2451C54.2894 70.3431 54.0933 70.4412 53.9218 70.5147C53.9218 70.5147 53.8972 70.5392 53.8727 70.5392C53.6767 70.6372 53.4806 70.7353 53.2845 70.8333C52.8923 71.0294 52.4757 71.201 52.0835 71.3725C51.8874 71.4706 51.6669 71.5441 51.4708 71.6176C51.2747 71.6912 51.0541 71.7892 50.858 71.8627C50.662 71.9363 50.4414 72.0343 50.2453 72.1078C50.2453 72.1078 50.2453 72.1078 50.2208 72.1078C50.0247 72.1814 49.8041 72.2549 49.608 72.3284C49.1669 72.4755 48.7012 72.6225 48.26 72.7696C48.1129 72.8186 47.9414 72.8676 47.7943 72.9167C47.3286 73.0637 46.8629 73.1863 46.3972 73.2843C46.2257 73.3333 46.0541 73.3578 45.858 73.4069C45.4169 73.5049 44.9512 73.6029 44.51 73.701C44.412 73.7255 44.3384 73.7255 44.2404 73.75C44.0933 73.7745 43.9218 73.799 43.7747 73.8235C43.5541 73.848 43.358 73.897 43.1374 73.9216C43.0394 73.9461 42.9414 73.9461 42.8433 73.9706C42.7208 73.9951 42.5737 74.0196 42.4267 74.0196C42.0345 74.0686 41.6178 74.1176 41.2257 74.1667C41.1031 74.1912 40.9561 74.1912 40.8335 74.2157H40.809C40.6374 74.2402 40.4659 74.2402 40.2943 74.2647C40.1227 74.2892 39.9512 74.2892 39.7796 74.2892C39.6816 74.2892 39.559 74.3137 39.461 74.3137C39.2649 74.3137 39.0933 74.3382 38.9218 74.3382C38.6767 74.3382 38.4561 74.3627 38.211 74.3627C37.9659 74.3627 37.7453 74.3627 37.5002 74.3627C37.3286 74.3627 37.157 74.3627 36.9855 74.3627C26.6423 74.2157 17.3531 69.8284 10.711 62.8676C10.711 62.8676 10.711 62.8431 10.6865 62.8431C9.95117 62.1814 10.5884 58.6519 13.5541 56.4216C17.2796 53.6029 26.2012 51.8382 26.2012 51.8382C26.2012 51.8382 29.657 51.2745 42.4757 53.9461C49.9757 55.5147 55.6865 57.7941 58.8727 63.9706C59.5345 65.2451 60.1963 67.2059 57.8678 68.2353Z" fill="white"/>
<path d="M42.5491 53.6765C47.255 54.6323 52.2795 55.6618 56.1521 58.7745C57.4511 59.8284 58.3089 61.3725 59.0197 62.8676C59.3628 63.6029 59.706 64.3627 59.9756 65.1716C60.1226 65.7108 60.3432 66.3235 60.2207 66.9608C60.1962 67.1324 60.0491 67.3529 59.9266 67.4755C59.3628 68.0392 58.7501 68.3823 58.1373 68.8235C54.5344 71.3235 50.3923 73.0882 46.103 74.0196C36.5442 76.1029 26.2011 74.4853 17.7942 69.4608C15.0001 67.7696 12.4266 65.7108 10.2207 63.2843C9.97559 62.9902 9.97559 62.5 9.97559 62.1814C10.0001 61.4461 10.1962 60.7353 10.4413 60.0735C11.0295 58.5539 11.7893 57.0343 13.0883 55.9804C14.0197 55.3431 15.0246 54.8039 16.054 54.3627C19.2893 52.9902 22.6962 52.0343 26.2011 51.6422C26.4952 51.6176 26.5442 52.0343 26.2501 52.0833C22.8923 52.7696 19.5589 53.799 16.4462 55.1961C15.3187 55.7598 14.1177 56.25 13.2109 57.1324C12.353 58.0637 11.7403 59.2157 11.2501 60.3922C10.9315 61.1029 10.7109 62.2304 10.8089 62.7941C12.353 64.6324 14.1668 66.25 16.1275 67.6471C26.8628 75.1471 43.1619 75.6373 54.5834 69.3873C55.6128 68.8235 56.6177 68.1863 57.5736 67.5245C58.0393 67.2059 58.5295 66.9363 58.8972 66.5686C58.9217 66.5441 58.8972 66.5686 58.8972 66.5931C58.8972 66.6176 58.8726 66.6422 58.8726 66.6422C58.8972 66.348 58.7991 65.9559 58.6766 65.5637C58.2354 64.1422 57.5246 62.6471 56.7648 61.348C55.5638 59.4118 53.5295 58.1863 51.4707 57.2059C50.0491 56.5441 48.554 56.0294 47.0344 55.5392C45.5148 55.049 43.9707 54.6323 42.4266 54.2647C42.0344 54.1667 42.157 53.6029 42.5491 53.6765Z" fill="#256FCF"/>
<path d="M16.348 55.098C16.348 55.098 13.4804 56.0049 12.4755 57.4019C10.9313 59.5343 9.63232 63.701 8.21076 67.8186C5.61272 75.2941 5.68625 86.4216 5.68625 86.4216H61.6176C61.6176 86.4216 61.6666 74.4117 59.5833 66.2255C59.2157 64.7549 57.9657 62.3529 57.3774 61.3725C56.201 59.4117 54.1176 58.4314 53.3088 57.8676C53.3088 57.8676 54.8529 67.4265 44.0196 67.9902C33.1862 68.5539 20.098 65.098 19.7794 63.0882C19.4608 61.0539 16.348 55.098 16.348 55.098Z" fill="white"/>
<path d="M56.7646 86.8627C41.3725 93.9706 16.0293 87.549 16.0293 87.549C16.0293 87.549 15.5146 81.299 17.3774 70.049C17.4509 69.5343 17.5244 69.0196 17.5734 68.5539C18.1127 63.4559 17.4509 56.9363 16.1274 54.7304C16.1274 54.1667 16.7156 54.3137 17.3774 53.75C17.647 53.5294 18.0146 53.5049 18.2107 53.652C18.5538 54.1422 19.4852 56.5441 19.7548 57.0588C22.4999 62.1324 26.6911 65.3922 32.4264 65.9559C40.245 66.7402 43.5048 66.6176 47.4019 65.7598C51.1519 64.9265 52.843 62.7206 51.7891 59.0441C51.1764 56.8627 50.147 55.7843 50.1225 55.7353C50.7107 55.9804 52.1813 56.6422 52.7205 57.6225C52.8676 57.8676 53.8479 59.3873 54.6077 62.6471C55.147 64.9755 55.4166 66.9118 55.7352 69.5343C56.8136 78.1127 56.7646 86.8627 56.7646 86.8627Z" fill="#256FCF" stroke="#256FCF" stroke-width="5.1257" stroke-miterlimit="10" stroke-linecap="round" stroke-linejoin="round"/>
<path d="M42.7205 69.5588C43.1808 69.5588 43.5539 69.1857 43.5539 68.7254C43.5539 68.2652 43.1808 67.8921 42.7205 67.8921C42.2603 67.8921 41.8872 68.2652 41.8872 68.7254C41.8872 69.1857 42.2603 69.5588 42.7205 69.5588Z" fill="white"/>
<path d="M42.941 72.647C43.4012 72.647 43.7743 72.2739 43.7743 71.8137C43.7743 71.3534 43.4012 70.9803 42.941 70.9803C42.4808 70.9803 42.1077 71.3534 42.1077 71.8137C42.1077 72.2739 42.4808 72.647 42.941 72.647Z" fill="white"/>
<path d="M44.8529 60.1961C44.3382 62.7206 41.0048 64.2402 35.3921 61.9608C29.5587 59.6079 27.0342 53.9951 26.397 52.3285C29.8529 45.8579 27.4509 41.3726 27.4509 41.3726C35.4166 40.6863 42.3774 50 42.3774 50L43.4558 54.6079C43.5538 55 43.7499 55.3432 44.044 55.5883C44.5587 56.4951 45.1715 58.5785 44.8529 60.1961Z" fill="white"/>
<path d="M26.2745 52.402C26.7401 51.6912 27.0343 50.8578 27.2303 50.049C27.598 48.3578 27.7205 46.6422 27.745 44.9265V44.2892C27.6715 43.652 27.4509 42.9902 27.2058 42.402C26.8872 41.6177 28.0392 41.1275 28.4068 41.9118C28.4558 42.0098 28.4558 42.1814 28.4558 42.2794C28.5294 45.6127 28.6764 49.902 26.5686 52.6716C26.4215 52.8186 26.1274 52.598 26.2745 52.402Z" fill="#256FCF"/>
<path d="M42.6469 49.951C43.0146 50.1716 43.1371 50.4657 43.1861 50.7599C43.3332 51.3481 43.2842 51.9853 43.4312 52.5981C43.5538 53.1863 43.9214 53.75 44.0195 54.3628C44.142 55.0001 44.5097 56.3481 44.6567 57.0099C44.7058 57.1569 44.6077 57.3285 44.4361 57.353C44.3381 57.3775 44.2646 57.353 44.191 57.304C43.8724 57.0344 43.7254 56.7648 43.5293 56.4216C43.2107 55.8334 42.9901 55.2942 42.794 54.6324C42.6224 54.0442 42.696 53.4069 42.5489 52.7942C42.4263 52.2059 42.0832 51.6422 41.9607 51.0295C41.8871 50.7353 41.8626 50.4167 42.0832 50.0491C42.2303 49.902 42.4754 49.853 42.6469 49.951Z" fill="#256FCF"/>
<path d="M44.4118 56.4216C39.7304 56.1765 35.9069 54.7059 32.1814 48.0638C35.3187 50.8334 39.0196 51.8873 42.9167 52.3775L43.4314 54.6324C43.5294 55.0246 44.1177 56.1765 44.4118 56.4216Z" fill="#256FCF"/>
<path d="M44.2157 55.5148C45.0491 57.0834 45.5393 59.0442 45.0246 60.7844C44.6324 62.0099 43.5049 62.9167 42.2795 63.2599C39.4363 64.0197 36.152 62.8187 33.6275 61.4706C30.5148 59.7304 28.2108 56.8138 26.7402 53.6275C26.6422 53.3824 26.9853 53.1863 27.1324 53.4314C27.6471 54.4608 28.2353 55.4657 28.8971 56.3726C29.5589 57.304 30.3187 58.1618 31.1765 58.9216C33.6765 61.1765 37.0589 62.5736 40.4412 62.5736C43.9216 62.4755 45.2451 60.6373 44.4363 57.255C44.3138 56.7157 44.1177 56.152 43.8481 55.6863C43.701 55.4902 44.0687 55.2697 44.2157 55.5148Z" fill="#256FCF"/>
<path d="M53.7009 26.0784C54.1421 28.1372 54.3627 29.8039 53.1617 35.2941C51.9853 40.7598 54.8529 41.8872 48.0637 50.6372C45.2941 54.2157 38.5784 53.2108 33.1372 49.5098C31.299 48.2598 30.5147 45.049 29.1421 42.7696C28.0637 40.9804 27.5735 42.8431 26.1519 41.299C24.2156 39.1912 21.8872 34.951 23.0392 27.451C24.9019 15.2941 34.5343 13.8725 41.6666 15.2206C48.848 16.5931 52.5245 20.6617 53.7009 26.0784Z" fill="white"/>
<path d="M27.3774 43.4804C26.8137 42.5245 26.0784 41.6912 25.3921 40.8088C24.7304 39.902 24.1912 38.8971 23.75 37.8677C20.8333 30.7108 21.9608 20.6373 29.1176 16.4216C32.0833 14.7059 35.6617 14.2892 38.9951 14.5588C46.1274 15.0735 52.6716 18.3579 54.2157 25.9069C55.049 29.2402 53.9215 32.6716 53.2843 35.9314C52.9902 37.549 53.2353 39.2157 53.2108 40.8824C53.1863 42.5735 52.7206 44.2647 52.0833 45.8333C51.6912 46.9118 51.0049 47.8677 50.2941 48.75C49.1176 50.1716 47.9412 51.6177 46.4461 52.7206C46.1029 52.9657 45.4902 53.0882 45.0735 53.1373C43.9215 53.3088 42.7941 53.3579 41.6421 53.2843C37.1323 53.0882 32.3039 50.9069 30.4902 46.5441C30.4166 46.3726 30.6617 46.25 30.7598 46.3971C33.1127 50.1226 37.4265 51.9608 41.7157 52.2059C43.0392 52.2794 44.3872 52.2549 45.6863 51.9853C46.3235 51.6667 46.8872 51.103 47.4265 50.5882C48.75 49.2647 50.098 47.8432 51.0539 46.2255C52.2059 44.0441 52.8431 41.6667 52.647 39.1912C52.598 38.0882 52.5735 36.9363 52.7941 35.8333C52.9902 34.7304 53.2353 33.6765 53.3823 32.549C53.5294 31.4706 53.6029 30.3677 53.6029 29.2892C53.4804 26.1275 52.451 22.8677 50.4412 20.4167C46.0049 14.902 35.5147 13.4559 29.6078 17.2304C25.8823 19.5343 24.1421 23.8481 23.5784 28.0392C22.7206 33.0637 22.9657 38.0147 26.9608 41.6667L28.1372 42.8922C28.6029 43.4314 27.7696 44.0686 27.3774 43.4804Z" fill="#256FCF"/>
<path d="M30.2695 35.6862C30.2695 35.6862 29.5097 32.0098 25.9313 32.4509C22.843 32.8431 21.7646 40.2451 28.7744 42.3039" fill="white"/>
<path d="M28.4558 39.0931C27.892 38.7745 27.4999 38.2353 27.4754 37.5735C27.4999 37.0833 27.5734 36.5196 27.4509 36.0294C27.3773 35.5637 26.8871 35.4412 26.5195 35.4657C26.1273 35.5392 25.8822 36.0294 25.8087 36.4216C25.8087 36.4461 25.7842 36.5196 25.7842 36.5441C25.7597 36.6667 25.5636 36.6667 25.5146 36.5441C25.196 35.5882 25.9067 34.5343 26.9362 34.6569C28.3822 34.7549 28.5783 36.2745 28.3087 37.4265C28.1616 37.9167 28.3577 38.3578 28.6273 38.7745L28.6763 38.848C28.7989 38.9951 28.6028 39.1912 28.4558 39.0931Z" fill="#256FCF"/>
<path d="M48.0635 33.0882C48.4312 34.8284 49.1174 36.4461 49.9753 37.9657C50.7351 39.8284 48.7743 41.5932 47.0341 41.5196C46.838 41.5196 46.8135 41.25 46.9851 41.201C48.088 40.8579 49.0929 40.1226 49.2645 38.9951C49.338 38.652 49.24 38.3579 49.0684 38.0637C48.2596 36.5441 47.7694 34.8039 47.892 33.0882C47.892 32.9657 48.0635 32.9657 48.0635 33.0882Z" fill="#256FCF"/>
<path d="M30.1472 35.7108C29.5834 34.2647 28.3579 32.8922 26.7158 32.9167C26.5687 32.8922 26.3236 32.9412 26.1766 32.9412C25.7599 32.9657 25.4168 33.1127 25.0981 33.4069C23.5295 34.9755 23.7991 37.7451 25.0736 39.4853C25.5148 40.098 26.0785 40.6373 26.7158 41.0784C27.353 41.5196 28.0638 41.8627 28.8236 42.1569C28.9952 42.2059 28.9217 42.4755 28.7501 42.451C27.1079 42.1078 25.5393 41.299 24.4609 39.951C22.7942 37.9412 22.4511 34.5833 24.4364 32.6226C24.8775 32.2304 25.4903 31.9363 26.103 31.9363C26.2991 31.9363 26.5932 31.8873 26.7893 31.9363C27.8187 31.9853 28.7991 32.5 29.4364 33.3088C30.0001 33.9951 30.3187 34.8284 30.4168 35.6618C30.4168 35.8088 30.1962 35.8578 30.1472 35.7108Z" fill="#256FCF"/>
<path d="M46.4216 43.8481C46.0049 44.1422 45.3922 43.8971 44.951 44.0932C44.6324 44.1912 44.1177 44.6324 43.3824 44.5833C42.7941 44.5343 42.5 44.2402 42.0098 44.0196C41.4951 43.8481 40.9559 43.5294 40.6128 43.1128C40.5392 43.0392 40.5392 42.9412 40.6128 42.8677C40.7108 42.7696 40.8088 42.8432 40.9069 42.8922C41.1275 43.0147 41.299 43.1128 41.4706 43.1618C41.6422 43.2108 41.8137 43.1618 42.0834 43.1618C42.353 43.1373 42.7451 43.2598 42.9902 43.4559C43.1618 43.5784 43.3579 43.652 43.5049 43.6765C43.8971 43.75 44.3873 43.4314 44.8039 43.3824C45.0981 43.3333 45.4167 43.3579 45.6618 43.4314C45.9069 43.5049 46.0785 43.5539 46.2745 43.5049C46.4951 43.4559 46.6177 43.75 46.4216 43.8481Z" fill="#256FCF"/>
<path d="M42.5243 30.4902C43.0636 30.5638 43.4802 30.0001 43.2842 29.4608C43.1861 29.1667 43.0145 28.8971 42.7449 28.7255C41.9116 28.2108 38.7989 28.1618 37.1567 29.3383C35.6861 30.4167 40.0734 30.1471 42.5243 30.4902Z" fill="#256FCF"/>
<path d="M49.3136 30.7598C48.8724 30.7598 48.6028 30.1961 48.8234 29.7304C48.946 29.4853 49.1175 29.2647 49.3626 29.1422C50.1224 28.7745 52.1568 28.9951 53.0636 30.2451C53.8724 31.3481 51.3479 30.7353 49.3136 30.7598Z" fill="#256FCF"/>
<path d="M41.6174 33.652C40.3674 33.1128 38.9458 33.2599 37.6468 33.554C37.4997 33.603 37.4017 33.4069 37.5243 33.3089C38.6517 32.3775 40.7841 32.255 41.6909 33.5295C41.7645 33.5785 41.7154 33.6765 41.6174 33.652Z" fill="#256FCF"/>
<path d="M51.2497 34.1667C50.6615 33.75 49.8036 33.8236 49.1174 33.8971C48.8723 33.9216 48.6272 33.9706 48.3576 34.0441C48.284 34.0687 48.2105 33.9461 48.2595 33.8971L48.3085 33.8481C48.9213 33.2108 49.8772 33.0638 50.7105 33.3824C51.0046 33.5049 51.2987 33.6765 51.4458 34.0196C51.5193 34.1422 51.3478 34.2647 51.2497 34.1667Z" fill="#256FCF"/>
<path d="M55.6625 30.1715C56.7654 26.397 54.8537 23.7744 53.4811 22.4999C52.8439 20.7843 51.7654 19.0931 50.0498 17.7941C49.7066 17.5245 49.339 17.2794 48.9223 17.0588C48.5792 16.8627 48.2115 16.6911 47.8439 16.5195C44.6086 15.1225 39.437 13.4803 34.3145 14.3627C32.3537 14.6813 30.3929 15.3921 28.5547 16.5931C28.5302 16.5931 28.5302 16.6176 28.5302 16.6176C28.3831 16.7156 28.236 16.8137 28.1135 16.9117C27.7704 16.495 27.3782 16.1274 26.937 15.7843C23.8733 13.4803 20.54 13.8725 18.236 16.9607C15.9321 20.0245 15.54 24.6078 18.6037 26.9117C19.5596 27.6225 20.638 28.0637 21.7409 28.2352C21.7164 28.3578 21.7164 28.5048 21.6919 28.6274C20.3439 40.7107 29.5841 46.1519 28.8733 42.3529C28.6772 42.2794 28.5792 42.2058 28.5792 42.1568C21.79 39.9999 22.8684 32.745 25.9321 32.3529C27.0351 32.2058 27.8439 32.4754 28.4811 32.8676C28.7262 33.1127 28.9468 33.3333 29.1674 33.5539C29.7556 34.2892 30.2704 35.2205 30.2704 35.5882C30.2949 35.2941 30.3194 34.9509 30.3929 34.6078C33.3586 36.8137 36.0302 36.0294 40.8831 28.2843C44.0939 23.1617 46.0056 22.1568 47.0596 22.3039C47.4762 22.4509 47.8684 22.7695 48.236 23.3088C48.3341 23.4558 48.4321 23.6029 48.5056 23.7499C50.6625 23.7009 51.6674 24.9509 52.1821 26.2499C52.1821 26.2499 52.1821 26.2499 52.1821 26.2745C52.5988 27.3774 52.6478 28.5048 52.6968 28.799C52.6968 28.848 52.6968 28.8725 52.7213 28.8725C52.6723 29.8529 52.5498 31.5195 52.5253 33.6764C52.5253 34.6568 52.6233 36.6176 52.5498 37.745C52.5253 38.0882 52.5007 38.4313 52.4762 38.7499C52.4517 38.9215 52.4517 39.0931 52.4272 39.2401C52.4027 39.3872 52.4027 39.5588 52.3782 39.7303C52.3537 39.9264 52.3292 40.098 52.3292 40.2941C52.8194 40.8823 53.5302 40.9803 54.1184 41.3725C54.2654 39.7058 53.8243 38.3088 53.6527 36.4215C53.7998 37.0588 53.9958 37.6715 54.29 38.3088C55.2704 40.4166 54.7311 41.9607 54.7311 41.9607L56.3488 42.0588C56.5204 41.5931 56.6674 40.7352 56.1527 39.6078C55.3684 37.8676 55.3194 37.0588 55.3194 37.0588C55.3194 37.0588 55.736 38.4803 56.5204 39.4362C57.1331 40.2205 57.3782 41.2745 57.1331 42.1078L57.7213 42.1568C59.486 39.5097 54.0204 35.7352 55.6625 30.1715ZM35.6625 32.3039C33.7998 33.6519 32.2311 33.3823 31.2753 32.9656C31.2998 32.9656 31.3243 32.9411 31.3243 32.9411C31.9125 32.8921 32.5007 32.7696 33.0645 32.549C35.7605 31.5931 38.2605 29.1176 40.4664 26.8382C38.6037 29.1421 36.8145 31.4705 35.6625 32.3039Z" fill="#256FCF"/>
<path d="M70.6372 20.6618C85.5147 49.3137 59.3627 81.6422 28.1863 73.75C14.1912 70.2696 2.94115 58.1373 0.612722 43.8971C-2.03434 29.7304 4.36272 14.5098 16.3235 6.49511C32.7206 -4.7794 55.4412 -1.0294 67.1814 15.0981C67.2549 15.1716 67.2304 15.2941 67.1323 15.3677C67.0588 15.4412 66.9362 15.4167 66.8627 15.3186C65.2451 13.2353 63.4068 11.3481 61.397 9.65688C58.0882 6.83825 54.2157 4.63237 50.1225 3.13727C29.2892 -4.41175 6.42155 8.13727 1.86272 29.9265C-3.28434 54.3382 17.4755 76.8137 42.2304 73.4559C61.3235 71.0539 75.5147 53.4314 73.9461 34.2647C73.6029 29.6324 72.3774 25.049 70.3431 20.8333C70.2941 20.7598 70.3431 20.6618 70.4166 20.6128C70.4902 20.5637 70.5882 20.5882 70.6372 20.6618Z" fill="#256FCF"/>
</g>
</svg>
