<svg width="79" height="79" viewBox="0 0 79 79" fill="none" xmlns="http://www.w3.org/2000/svg">
<g clip-path="url(#clip0_99_9058)">
<path d="M60.0893 47.0544C71.4801 34.2564 76.2744 23.9271 78.0667 16.353C79.1036 11.9734 79.1233 8.55175 78.8567 6.15706C78.7536 5.21768 78.5753 4.2881 78.3235 3.37725C78.2159 2.99196 78.0873 2.61285 77.9383 2.24162V2.23668C77.5779 1.42693 77.1088 1.08131 76.2003 0.780121C75.9397 0.696766 75.6762 0.622657 75.4103 0.557933C74.4852 0.333643 73.5444 0.180137 72.596 0.0987456C70.1766 -0.118504 66.7203 -0.0493794 62.326 1.027C54.742 2.87362 44.4621 7.65806 31.906 18.8217L20.056 19.9969H20.0264C17.1791 20.3143 14.5249 21.5926 12.5016 23.621L0.740519 35.4019C0.368009 35.777 0.122479 36.2595 0.038471 36.7814C-0.0455369 37.3034 0.0362048 37.8385 0.272197 38.3116C0.508189 38.7847 0.886555 39.1719 1.35407 39.4187C1.82158 39.6655 2.35471 39.7596 2.87846 39.6876L12.24 38.3496C13.6225 38.1521 15.163 38.4137 16.9553 39.0013C18.1008 39.3766 19.113 39.7913 20.1893 40.2258L21.1916 40.6356C22.1594 44.6646 24.4504 48.4369 27.487 51.4734C30.5136 54.5051 34.281 56.8059 38.305 57.7786L38.7099 58.776C39.1493 59.8524 39.5641 60.8695 39.9393 62.0199C40.522 63.8122 40.7886 65.3577 40.5911 66.7402L39.253 76.1214C39.1824 76.6442 39.2771 77.1759 39.5238 77.6422C39.7705 78.1084 40.1568 78.4858 40.6287 78.7215C41.1007 78.9572 41.6345 79.0394 42.1554 78.9565C42.6764 78.8736 43.1584 78.6299 43.5338 78.2594L55.295 66.4785C57.3193 64.4541 58.5932 61.7928 58.9092 58.9439L60.0942 47.0544H60.0893ZM60.6324 28.7906C56.6972 32.7406 51.103 33.5355 48.1504 30.5779C45.1978 27.6154 45.9976 22.0212 49.9328 18.0762C53.873 14.1311 59.4622 13.3362 62.4148 16.2937C65.3724 19.2513 64.5725 24.8455 60.6373 28.7906H60.6324Z" fill="#DEE2E6"/>
<path d="M25.6996 53.2608C28.3219 55.9146 31.3237 58.1643 34.6068 59.9363C29.0867 64.9084 10.2699 69.9496 9.65272 69.3324C9.0306 68.7053 13.2917 48.6492 18.7328 43.7561C20.4412 47.163 22.8655 50.4217 25.6996 53.2608V53.2608Z" fill="#DEE2E6"/>
</g>
<defs>
<clipPath id="clip0_99_9058">
<rect width="79" height="79" fill="white"/>
</clipPath>
</defs>
</svg>
