<svg width="124" height="73" viewBox="0 0 124 73" fill="none" xmlns="http://www.w3.org/2000/svg">
<path d="M5.22114 25.845C5.22114 25.5677 5.11281 25.3553 4.89614 25.208C4.67947 25.052 4.41081 24.9307 4.09014 24.844C3.76947 24.7487 3.41847 24.662 3.03714 24.584C2.66447 24.506 2.31781 24.402 1.99714 24.272C1.67647 24.142 1.40781 23.9687 1.19114 23.752C0.974474 23.5267 0.866141 23.2147 0.866141 22.816C0.866141 22.4867 0.935474 22.205 1.07414 21.971C1.22147 21.737 1.41214 21.5463 1.64614 21.399C1.88014 21.243 2.15314 21.1303 2.46514 21.061C2.77714 20.983 3.10214 20.944 3.44014 20.944C4.04681 20.944 4.56681 21.022 5.00014 21.178C5.44214 21.3253 5.79314 21.4813 6.05314 21.646L5.63714 22.465C5.35114 22.309 5.03914 22.1617 4.70114 22.023C4.37181 21.8757 3.95581 21.802 3.45314 21.802C3.26247 21.802 3.07181 21.8237 2.88114 21.867C2.69914 21.9017 2.53014 21.958 2.37414 22.036C2.22681 22.114 2.10547 22.218 2.01014 22.348C1.92347 22.4693 1.88014 22.621 1.88014 22.803C1.88014 23.0283 1.98847 23.2017 2.20514 23.323C2.42181 23.4443 2.69047 23.5483 3.01114 23.635C3.33181 23.713 3.67847 23.791 4.05114 23.869C4.43247 23.9383 4.78347 24.0423 5.10414 24.181C5.42481 24.3197 5.69347 24.506 5.91014 24.74C6.12681 24.974 6.23514 25.2903 6.23514 25.689C6.23514 26.287 5.99681 26.781 5.52014 27.171C5.05214 27.561 4.34581 27.756 3.40114 27.756C3.11514 27.756 2.83347 27.73 2.55614 27.678C2.27881 27.626 2.01881 27.5567 1.77614 27.47C1.53347 27.3833 1.31247 27.288 1.11314 27.184C0.913807 27.0713 0.749141 26.9587 0.619141 26.846L1.13914 26.001C1.24314 26.105 1.38181 26.2133 1.55514 26.326C1.72847 26.43 1.91914 26.5253 2.12714 26.612C2.33514 26.6987 2.55614 26.768 2.79014 26.82C3.03281 26.872 3.27547 26.898 3.51814 26.898C3.75214 26.898 3.96881 26.8807 4.16814 26.846C4.37614 26.8027 4.55814 26.742 4.71414 26.664C4.87014 26.5773 4.99147 26.469 5.07814 26.339C5.17347 26.2003 5.22114 26.0357 5.22114 25.845Z" fill="#B70F88"/>
<path d="M14.3291 26.781C14.1731 26.9197 13.9867 27.0497 13.7701 27.171C13.5621 27.2923 13.3324 27.3963 13.0811 27.483C12.8297 27.5697 12.5654 27.6347 12.2881 27.678C12.0194 27.73 11.7464 27.756 11.4691 27.756C10.9491 27.756 10.4897 27.678 10.0911 27.522C9.6924 27.3573 9.35873 27.1277 9.09006 26.833C8.8214 26.5297 8.61773 26.17 8.47906 25.754C8.3404 25.338 8.27106 24.87 8.27106 24.35C8.27106 23.804 8.34473 23.3187 8.49206 22.894C8.64806 22.4693 8.86906 22.114 9.15506 21.828C9.44106 21.542 9.78773 21.3253 10.1951 21.178C10.6024 21.022 11.0574 20.944 11.5601 20.944C11.9241 20.944 12.2837 20.9917 12.6391 21.087C12.9944 21.1823 13.3064 21.3643 13.5751 21.633C13.8524 21.893 14.0647 22.257 14.2121 22.725C14.3594 23.1843 14.4114 23.7823 14.3681 24.519H9.33706C9.33706 25.299 9.54506 25.884 9.96106 26.274C10.3857 26.6553 10.9491 26.846 11.6511 26.846C11.8851 26.846 12.1147 26.82 12.3401 26.768C12.5741 26.7073 12.7951 26.638 13.0031 26.56C13.2111 26.482 13.3931 26.3953 13.5491 26.3C13.7137 26.2047 13.8394 26.118 13.9261 26.04L14.3291 26.781ZM11.5861 21.802C11.3001 21.802 11.0271 21.8323 10.7671 21.893C10.5157 21.9537 10.2904 22.0577 10.0911 22.205C9.9004 22.3437 9.74006 22.53 9.61006 22.764C9.48873 22.9893 9.41073 23.271 9.37606 23.609H13.4191C13.3757 23.037 13.1894 22.595 12.8601 22.283C12.5394 21.9623 12.1147 21.802 11.5861 21.802Z" fill="#B70F88"/>
<path d="M16.924 18.5H19.082V25.416C19.082 25.9447 19.1687 26.3173 19.342 26.534C19.524 26.7507 19.7883 26.859 20.135 26.859C20.3777 26.859 20.6073 26.8157 20.824 26.729C21.0493 26.6423 21.2963 26.495 21.565 26.287L22.033 27.002C21.8943 27.1233 21.7427 27.2317 21.578 27.327C21.4133 27.4223 21.2443 27.5047 21.071 27.574C20.8976 27.6347 20.7243 27.6823 20.551 27.717C20.3777 27.7517 20.2173 27.769 20.07 27.769C19.7493 27.769 19.4633 27.7257 19.212 27.639C18.9607 27.561 18.7483 27.431 18.575 27.249C18.4103 27.067 18.2847 26.8287 18.198 26.534C18.1113 26.2307 18.068 25.858 18.068 25.416V19.371H16.924V18.5Z" fill="#B70F88"/>
<path d="M30.1789 26.781C30.0229 26.9197 29.8366 27.0497 29.6199 27.171C29.4119 27.2923 29.1822 27.3963 28.9309 27.483C28.6796 27.5697 28.4152 27.6347 28.1379 27.678C27.8692 27.73 27.5962 27.756 27.3189 27.756C26.7989 27.756 26.3396 27.678 25.9409 27.522C25.5422 27.3573 25.2086 27.1277 24.9399 26.833C24.6712 26.5297 24.4676 26.17 24.3289 25.754C24.1902 25.338 24.1209 24.87 24.1209 24.35C24.1209 23.804 24.1946 23.3187 24.3419 22.894C24.4979 22.4693 24.7189 22.114 25.0049 21.828C25.2909 21.542 25.6376 21.3253 26.0449 21.178C26.4522 21.022 26.9072 20.944 27.4099 20.944C27.7739 20.944 28.1336 20.9917 28.4889 21.087C28.8442 21.1823 29.1562 21.3643 29.4249 21.633C29.7022 21.893 29.9146 22.257 30.0619 22.725C30.2092 23.1843 30.2612 23.7823 30.2179 24.519H25.1869C25.1869 25.299 25.3949 25.884 25.8109 26.274C26.2356 26.6553 26.7989 26.846 27.5009 26.846C27.7349 26.846 27.9646 26.82 28.1899 26.768C28.4239 26.7073 28.6449 26.638 28.8529 26.56C29.0609 26.482 29.2429 26.3953 29.3989 26.3C29.5636 26.2047 29.6892 26.118 29.7759 26.04L30.1789 26.781ZM27.4359 21.802C27.1499 21.802 26.8769 21.8323 26.6169 21.893C26.3656 21.9537 26.1402 22.0577 25.9409 22.205C25.7502 22.3437 25.5899 22.53 25.4599 22.764C25.3386 22.9893 25.2606 23.271 25.2259 23.609H29.2689C29.2256 23.037 29.0392 22.595 28.7099 22.283C28.3892 21.9623 27.9646 21.802 27.4359 21.802Z" fill="#B70F88"/>
<path d="M36.9338 22.101C36.7345 22.0317 36.5178 21.9753 36.2838 21.932C36.0585 21.88 35.8332 21.854 35.6078 21.854C34.7585 21.854 34.1258 22.0533 33.7098 22.452C33.2938 22.8507 33.0858 23.4833 33.0858 24.35C33.0858 24.7313 33.1465 25.0737 33.2678 25.377C33.3892 25.6717 33.5625 25.923 33.7878 26.131C34.0132 26.339 34.2818 26.4993 34.5938 26.612C34.9145 26.7247 35.2655 26.781 35.6468 26.781C36.0542 26.781 36.4485 26.7117 36.8298 26.573C37.2198 26.4343 37.5448 26.2523 37.8048 26.027L38.2598 26.781C38.1385 26.885 37.9868 26.9933 37.8048 27.106C37.6228 27.2187 37.4105 27.327 37.1678 27.431C36.9338 27.5263 36.6695 27.6043 36.3748 27.665C36.0888 27.7257 35.7768 27.756 35.4388 27.756C34.8755 27.756 34.3772 27.678 33.9438 27.522C33.5192 27.3573 33.1638 27.1277 32.8778 26.833C32.5918 26.5297 32.3752 26.17 32.2278 25.754C32.0805 25.3293 32.0068 24.8613 32.0068 24.35C32.0068 23.804 32.0805 23.3187 32.2278 22.894C32.3838 22.4693 32.6048 22.114 32.8908 21.828C33.1768 21.542 33.5235 21.3253 33.9308 21.178C34.3382 21.022 34.7932 20.944 35.2958 20.944C35.9372 20.944 36.4572 21.0003 36.8558 21.113C37.2632 21.2257 37.6055 21.3513 37.8828 21.49L37.8698 21.529V23.336H36.9338V22.101Z" fill="#B70F88"/>
<path d="M39.5548 21.1H41.1018V19.813L42.1158 19.527V21.1H45.5868V21.971H42.1158V25.039C42.1158 25.6717 42.2674 26.1397 42.5708 26.443C42.8828 26.7463 43.3248 26.898 43.8968 26.898C44.2868 26.898 44.6248 26.8243 44.9108 26.677C45.2054 26.5297 45.4697 26.3693 45.7038 26.196L46.0418 26.963C45.7384 27.2057 45.3744 27.4007 44.9498 27.548C44.5338 27.6953 44.1048 27.769 43.6628 27.769C43.3161 27.769 42.9868 27.717 42.6748 27.613C42.3714 27.5177 42.1028 27.366 41.8688 27.158C41.6348 26.95 41.4484 26.6857 41.3098 26.365C41.1711 26.0357 41.1018 25.6457 41.1018 25.195V21.971H39.5548V21.1Z" fill="#B70F88"/>
<path d="M18.146 33.318L19.303 35.593L20.421 33.305L21.318 33.786L19.745 35.983L22.384 35.788V36.841L19.823 36.633L21.331 38.726L20.46 39.233L19.251 36.906L18.107 39.233L17.171 38.726L18.744 36.633L16.17 36.841V35.788L18.744 36.009L17.249 33.825L18.146 33.318Z" fill="#EAEAEA"/>
<path d="M0.671141 57.6V56.729H2.21814V51.971H0.671141V51.1H2.21814V50.736C2.21814 49.9213 2.43047 49.332 2.85514 48.968C3.27981 48.604 3.88647 48.422 4.67514 48.422C4.96114 48.422 5.21681 48.4393 5.44214 48.474C5.66747 48.5087 5.91014 48.578 6.17014 48.682L5.93614 49.527C5.71081 49.4317 5.49414 49.371 5.28614 49.345C5.07814 49.3103 4.88747 49.293 4.71414 49.293C4.14214 49.293 3.75214 49.436 3.54414 49.722C3.33614 49.9993 3.23214 50.4587 3.23214 51.1H5.92314V51.971H3.23214V56.729H5.92314V57.6H0.671141Z" fill="#B70F88"/>
<path d="M8.31006 57.6V56.729H10.0651V51.971H8.31006V51.1H10.7411L10.9491 51.945H11.0141C11.3087 51.6763 11.6381 51.4467 12.0021 51.256C12.3661 51.0653 12.7994 50.97 13.3021 50.97C13.5967 50.97 13.8307 51.0263 14.0041 51.139C14.1861 51.2517 14.3247 51.4163 14.4201 51.633C14.5241 51.8497 14.5934 52.114 14.6281 52.426C14.6627 52.7293 14.6801 53.076 14.6801 53.466L13.7701 53.479C13.7701 52.9243 13.7137 52.517 13.6011 52.257C13.4971 51.997 13.3021 51.867 13.0161 51.867C12.7474 51.867 12.5047 51.906 12.2881 51.984C12.0714 52.062 11.8807 52.1573 11.7161 52.27C11.5601 52.3827 11.4257 52.4953 11.3131 52.608C11.2004 52.7207 11.1181 52.816 11.0661 52.894V56.729H13.5621V57.6H8.31006Z" fill="#B70F88"/>
<path d="M16.118 54.35C16.118 53.3013 16.391 52.4737 16.937 51.867C17.483 51.2517 18.263 50.944 19.277 50.944C19.823 50.944 20.291 51.035 20.681 51.217C21.0797 51.3903 21.409 51.6287 21.669 51.932C21.929 52.2353 22.1196 52.595 22.241 53.011C22.371 53.427 22.436 53.8733 22.436 54.35C22.436 54.87 22.3667 55.3423 22.228 55.767C22.0893 56.183 21.8857 56.5383 21.617 56.833C21.3483 57.1277 21.0147 57.3573 20.616 57.522C20.226 57.678 19.7797 57.756 19.277 57.756C18.7397 57.756 18.2717 57.6693 17.873 57.496C17.4743 57.314 17.145 57.0713 16.885 56.768C16.625 56.4647 16.43 56.105 16.3 55.689C16.1787 55.273 16.118 54.8267 16.118 54.35ZM17.197 54.35C17.197 54.6533 17.2317 54.9567 17.301 55.26C17.379 55.5633 17.5003 55.8363 17.665 56.079C17.8297 56.3217 18.042 56.5167 18.302 56.664C18.5707 56.8113 18.8957 56.885 19.277 56.885C19.9703 56.885 20.4903 56.6727 20.837 56.248C21.1923 55.8147 21.37 55.182 21.37 54.35C21.37 54.038 21.331 53.7347 21.253 53.44C21.1837 53.1367 21.0623 52.8637 20.889 52.621C20.7243 52.3783 20.5077 52.1833 20.239 52.036C19.979 51.8887 19.6583 51.815 19.277 51.815C18.5837 51.815 18.0637 52.0273 17.717 52.452C17.3703 52.8767 17.197 53.5093 17.197 54.35Z" fill="#B70F88"/>
<path d="M26.7079 57.6V53.271C26.7079 53.089 26.6992 52.9157 26.6819 52.751C26.6732 52.5777 26.6429 52.426 26.5909 52.296C26.5476 52.1573 26.4782 52.049 26.3829 51.971C26.2962 51.893 26.1792 51.854 26.0319 51.854C25.7372 51.854 25.4859 51.9753 25.2779 52.218C25.0786 52.4607 24.9269 52.764 24.8229 53.128V57.6H23.8349V51.1H24.5109L24.7059 51.893H24.7579C24.8446 51.763 24.9269 51.6417 25.0049 51.529C25.0916 51.4077 25.1869 51.3037 25.2909 51.217C25.4036 51.1303 25.5336 51.0653 25.6809 51.022C25.8282 50.97 26.0146 50.944 26.2399 50.944C26.3699 50.944 26.5042 50.9657 26.6429 51.009C26.7816 51.0437 26.9072 51.1043 27.0199 51.191C27.1412 51.269 27.2452 51.3773 27.3319 51.516C27.4186 51.6547 27.4749 51.8237 27.5009 52.023C27.7002 51.685 27.9212 51.4207 28.1639 51.23C28.4152 51.0393 28.7576 50.944 29.1909 50.944C29.4769 50.944 29.7066 50.9917 29.8799 51.087C30.0619 51.1823 30.2006 51.321 30.2959 51.503C30.3999 51.6763 30.4692 51.8887 30.5039 52.14C30.5472 52.3827 30.5689 52.6557 30.5689 52.959V57.6H29.5809V53.18C29.5809 52.998 29.5722 52.829 29.5549 52.673C29.5376 52.5083 29.5029 52.3653 29.4509 52.244C29.4076 52.1227 29.3426 52.0273 29.2559 51.958C29.1779 51.8887 29.0696 51.854 28.9309 51.854C28.6276 51.854 28.3719 51.9753 28.1639 52.218C27.9559 52.4607 27.7999 52.8073 27.6959 53.258V57.6H26.7079Z" fill="#B70F88"/>
<path d="M15.78 66.1H17.327V64.813L18.341 64.527V66.1H21.812V66.971H18.341V70.039C18.341 70.6717 18.4927 71.1397 18.796 71.443C19.108 71.7463 19.55 71.898 20.122 71.898C20.512 71.898 20.85 71.8243 21.136 71.677C21.4307 71.5297 21.695 71.3693 21.929 71.196L22.267 71.963C21.9637 72.2057 21.5997 72.4007 21.175 72.548C20.759 72.6953 20.33 72.769 19.888 72.769C19.5413 72.769 19.212 72.717 18.9 72.613C18.5967 72.5177 18.328 72.366 18.094 72.158C17.86 71.95 17.6737 71.6857 17.535 71.365C17.3963 71.0357 17.327 70.6457 17.327 70.195V66.971H15.78V66.1Z" fill="#EAEAEA"/>
<path d="M24.1599 72.6V71.729H25.9149V66.971H24.1599V66.1H26.5909L26.7989 66.945H26.8639C27.1586 66.6763 27.4879 66.4467 27.8519 66.256C28.2159 66.0653 28.6492 65.97 29.1519 65.97C29.4466 65.97 29.6806 66.0263 29.8539 66.139C30.0359 66.2517 30.1746 66.4163 30.2699 66.633C30.3739 66.8497 30.4432 67.114 30.4779 67.426C30.5126 67.7293 30.5299 68.076 30.5299 68.466L29.6199 68.479C29.6199 67.9243 29.5636 67.517 29.4509 67.257C29.3469 66.997 29.1519 66.867 28.8659 66.867C28.5972 66.867 28.3546 66.906 28.1379 66.984C27.9212 67.062 27.7306 67.1573 27.5659 67.27C27.4099 67.3827 27.2756 67.4953 27.1629 67.608C27.0502 67.7207 26.9679 67.816 26.9159 67.894V71.729H29.4119V72.6H24.1599Z" fill="#EAEAEA"/>
<path d="M32.6308 66.607C33.0035 66.3903 33.4238 66.2343 33.8918 66.139C34.3598 66.0437 34.8192 65.996 35.2698 65.996C35.7118 65.996 36.0715 66.0653 36.3488 66.204C36.6348 66.3427 36.8558 66.5247 37.0118 66.75C37.1765 66.9667 37.2848 67.218 37.3368 67.504C37.3975 67.7813 37.4278 68.063 37.4278 68.349C37.4278 68.6783 37.4192 69.0293 37.4018 69.402C37.3845 69.7747 37.3715 70.1473 37.3628 70.52C37.3628 70.9533 37.3888 71.365 37.4408 71.755H38.3118V72.6H36.5828L36.4658 71.625H36.4008C36.3488 71.703 36.2708 71.8027 36.1668 71.924C36.0628 72.0453 35.9242 72.1667 35.7508 72.288C35.5862 72.4007 35.3825 72.5003 35.1398 72.587C34.8972 72.6737 34.6112 72.717 34.2818 72.717C33.6405 72.717 33.1335 72.5523 32.7608 72.223C32.3882 71.8937 32.2018 71.443 32.2018 70.871C32.2018 70.429 32.2972 70.0607 32.4878 69.766C32.6872 69.4713 32.9688 69.246 33.3328 69.09C33.6968 68.934 34.1345 68.843 34.6458 68.817C35.1658 68.791 35.7465 68.8257 36.3878 68.921C36.4312 68.5223 36.4355 68.193 36.4008 67.933C36.3748 67.6643 36.3055 67.452 36.1928 67.296C36.0888 67.14 35.9372 67.0317 35.7378 66.971C35.5472 66.9017 35.3088 66.867 35.0228 66.867C34.6328 66.867 34.2602 66.9233 33.9048 67.036C33.5495 67.14 33.2332 67.2483 32.9558 67.361L32.6308 66.607ZM34.5418 71.846C34.7845 71.846 35.0098 71.807 35.2178 71.729C35.4258 71.651 35.6078 71.5513 35.7638 71.43C35.9198 71.3087 36.0498 71.1787 36.1538 71.04C36.2578 70.8927 36.3358 70.754 36.3878 70.624V69.714C35.9372 69.636 35.5212 69.597 35.1398 69.597C34.7585 69.597 34.4292 69.6403 34.1518 69.727C33.8745 69.805 33.6578 69.9307 33.5018 70.104C33.3458 70.2773 33.2678 70.5027 33.2678 70.78C33.2678 71.066 33.3632 71.3173 33.5538 71.534C33.7532 71.742 34.0825 71.846 34.5418 71.846Z" fill="#EAEAEA"/>
<path d="M40.3608 68.375C40.3608 68.297 40.3564 68.1973 40.3478 68.076C40.3478 67.946 40.3434 67.816 40.3348 67.686C40.3261 67.5473 40.3131 67.413 40.2957 67.283C40.2871 67.153 40.2741 67.0403 40.2568 66.945H39.3857V66.1H41.1278L41.2448 67.153H41.3098C41.3964 67.0057 41.5091 66.8627 41.6478 66.724C41.7951 66.5767 41.9641 66.4467 42.1548 66.334C42.3454 66.2127 42.5578 66.1173 42.7918 66.048C43.0258 65.9787 43.2728 65.944 43.5328 65.944C43.9314 65.944 44.2824 65.9873 44.5858 66.074C44.8978 66.1607 45.1534 66.3167 45.3528 66.542C45.5608 66.7587 45.7168 67.0577 45.8208 67.439C45.9248 67.8117 45.9768 68.2883 45.9768 68.869V72.6H44.9628V69.064C44.9628 68.3447 44.8458 67.803 44.6118 67.439C44.3778 67.075 43.9531 66.893 43.3378 66.893C43.1124 66.893 42.8914 66.9407 42.6748 67.036C42.4668 67.1227 42.2761 67.2397 42.1028 67.387C41.9294 67.5343 41.7778 67.7077 41.6478 67.907C41.5177 68.0977 41.4224 68.3013 41.3618 68.518V72.6H40.3608V68.375Z" fill="#EAEAEA"/>
<path d="M52.7707 70.845C52.7707 70.5677 52.6623 70.3553 52.4457 70.208C52.229 70.052 51.9603 69.9307 51.6397 69.844C51.319 69.7487 50.968 69.662 50.5867 69.584C50.214 69.506 49.8673 69.402 49.5467 69.272C49.226 69.142 48.9573 68.9687 48.7407 68.752C48.524 68.5267 48.4157 68.2147 48.4157 67.816C48.4157 67.4867 48.485 67.205 48.6237 66.971C48.771 66.737 48.9617 66.5463 49.1957 66.399C49.4297 66.243 49.7027 66.1303 50.0147 66.061C50.3267 65.983 50.6517 65.944 50.9897 65.944C51.5963 65.944 52.1163 66.022 52.5497 66.178C52.9917 66.3253 53.3427 66.4813 53.6027 66.646L53.1867 67.465C52.9007 67.309 52.5887 67.1617 52.2507 67.023C51.9213 66.8757 51.5053 66.802 51.0027 66.802C50.812 66.802 50.6213 66.8237 50.4307 66.867C50.2487 66.9017 50.0797 66.958 49.9237 67.036C49.7763 67.114 49.655 67.218 49.5597 67.348C49.473 67.4693 49.4297 67.621 49.4297 67.803C49.4297 68.0283 49.538 68.2017 49.7547 68.323C49.9713 68.4443 50.24 68.5483 50.5607 68.635C50.8813 68.713 51.228 68.791 51.6007 68.869C51.982 68.9383 52.333 69.0423 52.6537 69.181C52.9743 69.3197 53.243 69.506 53.4597 69.74C53.6763 69.974 53.7847 70.2903 53.7847 70.689C53.7847 71.287 53.5463 71.781 53.0697 72.171C52.6017 72.561 51.8953 72.756 50.9507 72.756C50.6647 72.756 50.383 72.73 50.1057 72.678C49.8283 72.626 49.5683 72.5567 49.3257 72.47C49.083 72.3833 48.862 72.288 48.6627 72.184C48.4633 72.0713 48.2987 71.9587 48.1687 71.846L48.6887 71.001C48.7927 71.105 48.9313 71.2133 49.1047 71.326C49.278 71.43 49.4687 71.5253 49.6767 71.612C49.8847 71.6987 50.1057 71.768 50.3397 71.82C50.5823 71.872 50.825 71.898 51.0677 71.898C51.3017 71.898 51.5183 71.8807 51.7177 71.846C51.9257 71.8027 52.1077 71.742 52.2637 71.664C52.4197 71.5773 52.541 71.469 52.6277 71.339C52.723 71.2003 52.7707 71.0357 52.7707 70.845Z" fill="#EAEAEA"/>
<path d="M56.4056 66.607C56.7783 66.3903 57.1986 66.2343 57.6666 66.139C58.1346 66.0437 58.5939 65.996 59.0446 65.996C59.4866 65.996 59.8463 66.0653 60.1236 66.204C60.4096 66.3427 60.6306 66.5247 60.7866 66.75C60.9513 66.9667 61.0596 67.218 61.1116 67.504C61.1723 67.7813 61.2026 68.063 61.2026 68.349C61.2026 68.6783 61.1939 69.0293 61.1766 69.402C61.1593 69.7747 61.1463 70.1473 61.1376 70.52C61.1376 70.9533 61.1636 71.365 61.2156 71.755H62.0866V72.6H60.3576L60.2406 71.625H60.1756C60.1236 71.703 60.0456 71.8027 59.9416 71.924C59.8376 72.0453 59.6989 72.1667 59.5256 72.288C59.3609 72.4007 59.1573 72.5003 58.9146 72.587C58.6719 72.6737 58.3859 72.717 58.0566 72.717C57.4153 72.717 56.9083 72.5523 56.5356 72.223C56.1629 71.8937 55.9766 71.443 55.9766 70.871C55.9766 70.429 56.0719 70.0607 56.2626 69.766C56.4619 69.4713 56.7436 69.246 57.1076 69.09C57.4716 68.934 57.9093 68.843 58.4206 68.817C58.9406 68.791 59.5213 68.8257 60.1626 68.921C60.2059 68.5223 60.2103 68.193 60.1756 67.933C60.1496 67.6643 60.0803 67.452 59.9676 67.296C59.8636 67.14 59.7119 67.0317 59.5126 66.971C59.3219 66.9017 59.0836 66.867 58.7976 66.867C58.4076 66.867 58.0349 66.9233 57.6796 67.036C57.3243 67.14 57.0079 67.2483 56.7306 67.361L56.4056 66.607ZM58.3166 71.846C58.5593 71.846 58.7846 71.807 58.9926 71.729C59.2006 71.651 59.3826 71.5513 59.5386 71.43C59.6946 71.3087 59.8246 71.1787 59.9286 71.04C60.0326 70.8927 60.1106 70.754 60.1626 70.624V69.714C59.7119 69.636 59.2959 69.597 58.9146 69.597C58.5333 69.597 58.2039 69.6403 57.9266 69.727C57.6493 69.805 57.4326 69.9307 57.2766 70.104C57.1206 70.2773 57.0426 70.5027 57.0426 70.78C57.0426 71.066 57.1379 71.3173 57.3286 71.534C57.5279 71.742 57.8573 71.846 58.3166 71.846Z" fill="#EAEAEA"/>
<path d="M68.6335 67.101C68.4342 67.0317 68.2175 66.9753 67.9835 66.932C67.7582 66.88 67.5329 66.854 67.3075 66.854C66.4582 66.854 65.8255 67.0533 65.4095 67.452C64.9935 67.8507 64.7855 68.4833 64.7855 69.35C64.7855 69.7313 64.8462 70.0737 64.9675 70.377C65.0888 70.6717 65.2622 70.923 65.4875 71.131C65.7129 71.339 65.9815 71.4993 66.2935 71.612C66.6142 71.7247 66.9652 71.781 67.3465 71.781C67.7539 71.781 68.1482 71.7117 68.5295 71.573C68.9195 71.4343 69.2445 71.2523 69.5045 71.027L69.9595 71.781C69.8382 71.885 69.6865 71.9933 69.5045 72.106C69.3225 72.2187 69.1102 72.327 68.8675 72.431C68.6335 72.5263 68.3692 72.6043 68.0745 72.665C67.7885 72.7257 67.4765 72.756 67.1385 72.756C66.5752 72.756 66.0769 72.678 65.6435 72.522C65.2188 72.3573 64.8635 72.1277 64.5775 71.833C64.2915 71.5297 64.0749 71.17 63.9275 70.754C63.7802 70.3293 63.7065 69.8613 63.7065 69.35C63.7065 68.804 63.7802 68.3187 63.9275 67.894C64.0835 67.4693 64.3045 67.114 64.5905 66.828C64.8765 66.542 65.2232 66.3253 65.6305 66.178C66.0378 66.022 66.4928 65.944 66.9955 65.944C67.6368 65.944 68.1569 66.0003 68.5555 66.113C68.9629 66.2257 69.3052 66.3513 69.5825 66.49L69.5695 66.529V68.336H68.6335V67.101Z" fill="#EAEAEA"/>
<path d="M71.2544 66.1H72.8014V64.813L73.8154 64.527V66.1H77.2864V66.971H73.8154V70.039C73.8154 70.6717 73.9671 71.1397 74.2704 71.443C74.5824 71.7463 75.0244 71.898 75.5964 71.898C75.9864 71.898 76.3244 71.8243 76.6104 71.677C76.9051 71.5297 77.1694 71.3693 77.4034 71.196L77.7414 71.963C77.4381 72.2057 77.0741 72.4007 76.6494 72.548C76.2334 72.6953 75.8044 72.769 75.3624 72.769C75.0158 72.769 74.6864 72.717 74.3744 72.613C74.0711 72.5177 73.8024 72.366 73.5684 72.158C73.3344 71.95 73.1481 71.6857 73.0094 71.365C72.8708 71.0357 72.8014 70.6457 72.8014 70.195V66.971H71.2544V66.1Z" fill="#EAEAEA"/>
<path d="M80.1414 72.6V71.729H82.4034V66.971H80.1414V66.1H83.4434V71.729H85.6534V72.6H80.1414ZM82.0524 64.254C82.0524 64.02 82.1304 63.8207 82.2864 63.656C82.4424 63.4827 82.6417 63.396 82.8844 63.396C83.1357 63.396 83.3437 63.4827 83.5084 63.656C83.6817 63.8207 83.7684 64.02 83.7684 64.254C83.7684 64.4793 83.6817 64.67 83.5084 64.826C83.3437 64.982 83.1357 65.06 82.8844 65.06C82.6417 65.06 82.4424 64.982 82.2864 64.826C82.1304 64.67 82.0524 64.4793 82.0524 64.254Z" fill="#EAEAEA"/>
<path d="M87.4423 69.35C87.4423 68.3013 87.7153 67.4737 88.2613 66.867C88.8073 66.2517 89.5873 65.944 90.6013 65.944C91.1473 65.944 91.6153 66.035 92.0053 66.217C92.4039 66.3903 92.7333 66.6287 92.9933 66.932C93.2533 67.2353 93.444 67.595 93.5653 68.011C93.6953 68.427 93.7603 68.8733 93.7603 69.35C93.7603 69.87 93.6909 70.3423 93.5523 70.767C93.4136 71.183 93.21 71.5383 92.9413 71.833C92.6726 72.1277 92.339 72.3573 91.9403 72.522C91.5503 72.678 91.104 72.756 90.6013 72.756C90.0639 72.756 89.5959 72.6693 89.1973 72.496C88.7986 72.314 88.4693 72.0713 88.2093 71.768C87.9493 71.4647 87.7543 71.105 87.6243 70.689C87.503 70.273 87.4423 69.8267 87.4423 69.35ZM88.5213 69.35C88.5213 69.6533 88.5559 69.9567 88.6253 70.26C88.7033 70.5633 88.8246 70.8363 88.9893 71.079C89.1539 71.3217 89.3663 71.5167 89.6263 71.664C89.895 71.8113 90.2199 71.885 90.6013 71.885C91.2946 71.885 91.8146 71.6727 92.1613 71.248C92.5166 70.8147 92.6943 70.182 92.6943 69.35C92.6943 69.038 92.6553 68.7347 92.5773 68.44C92.5079 68.1367 92.3866 67.8637 92.2133 67.621C92.0486 67.3783 91.8319 67.1833 91.5633 67.036C91.3033 66.8887 90.9826 66.815 90.6013 66.815C89.9079 66.815 89.3879 67.0273 89.0413 67.452C88.6946 67.8767 88.5213 68.5093 88.5213 69.35Z" fill="#EAEAEA"/>
<path d="M95.8352 68.375C95.8352 68.297 95.8309 68.1973 95.8222 68.076C95.8222 67.946 95.8179 67.816 95.8092 67.686C95.8005 67.5473 95.7875 67.413 95.7702 67.283C95.7615 67.153 95.7485 67.0403 95.7312 66.945H94.8602V66.1H96.6022L96.7192 67.153H96.7842C96.8709 67.0057 96.9835 66.8627 97.1222 66.724C97.2695 66.5767 97.4385 66.4467 97.6292 66.334C97.8199 66.2127 98.0322 66.1173 98.2662 66.048C98.5002 65.9787 98.7472 65.944 99.0072 65.944C99.4059 65.944 99.7569 65.9873 100.06 66.074C100.372 66.1607 100.628 66.3167 100.827 66.542C101.035 66.7587 101.191 67.0577 101.295 67.439C101.399 67.8117 101.451 68.2883 101.451 68.869V72.6H100.437V69.064C100.437 68.3447 100.32 67.803 100.086 67.439C99.8522 67.075 99.4275 66.893 98.8122 66.893C98.5869 66.893 98.3659 66.9407 98.1492 67.036C97.9412 67.1227 97.7505 67.2397 97.5772 67.387C97.4039 67.5343 97.2522 67.7077 97.1222 67.907C96.9922 68.0977 96.8969 68.3013 96.8362 68.518V72.6H95.8352V68.375Z" fill="#EAEAEA"/>
<path d="M108.245 70.845C108.245 70.5677 108.137 70.3553 107.92 70.208C107.703 70.052 107.435 69.9307 107.114 69.844C106.793 69.7487 106.442 69.662 106.061 69.584C105.688 69.506 105.342 69.402 105.021 69.272C104.7 69.142 104.432 68.9687 104.215 68.752C103.998 68.5267 103.89 68.2147 103.89 67.816C103.89 67.4867 103.959 67.205 104.098 66.971C104.245 66.737 104.436 66.5463 104.67 66.399C104.904 66.243 105.177 66.1303 105.489 66.061C105.801 65.983 106.126 65.944 106.464 65.944C107.071 65.944 107.591 66.022 108.024 66.178C108.466 66.3253 108.817 66.4813 109.077 66.646L108.661 67.465C108.375 67.309 108.063 67.1617 107.725 67.023C107.396 66.8757 106.98 66.802 106.477 66.802C106.286 66.802 106.096 66.8237 105.905 66.867C105.723 66.9017 105.554 66.958 105.398 67.036C105.251 67.114 105.129 67.218 105.034 67.348C104.947 67.4693 104.904 67.621 104.904 67.803C104.904 68.0283 105.012 68.2017 105.229 68.323C105.446 68.4443 105.714 68.5483 106.035 68.635C106.356 68.713 106.702 68.791 107.075 68.869C107.456 68.9383 107.807 69.0423 108.128 69.181C108.449 69.3197 108.717 69.506 108.934 69.74C109.151 69.974 109.259 70.2903 109.259 70.689C109.259 71.287 109.021 71.781 108.544 72.171C108.076 72.561 107.37 72.756 106.425 72.756C106.139 72.756 105.857 72.73 105.58 72.678C105.303 72.626 105.043 72.5567 104.8 72.47C104.557 72.3833 104.336 72.288 104.137 72.184C103.938 72.0713 103.773 71.9587 103.643 71.846L104.163 71.001C104.267 71.105 104.406 71.2133 104.579 71.326C104.752 71.43 104.943 71.5253 105.151 71.612C105.359 71.6987 105.58 71.768 105.814 71.82C106.057 71.872 106.299 71.898 106.542 71.898C106.776 71.898 106.993 71.8807 107.192 71.846C107.4 71.8027 107.582 71.742 107.738 71.664C107.894 71.5773 108.015 71.469 108.102 71.339C108.197 71.2003 108.245 71.0357 108.245 70.845Z" fill="#EAEAEA"/>
<line x1="100.127" y1="42.3839" x2="119.838" y2="61" stroke="#EAEAEA" stroke-width="8" stroke-linecap="round"/>
<path fill-rule="evenodd" clip-rule="evenodd" d="M82.7627 53.1616C97.4428 53.1616 109.343 41.2609 109.343 26.5808C109.343 11.9006 97.4428 0 82.7627 0C68.0825 0 56.1819 11.9006 56.1819 26.5808C56.1819 41.2609 68.0825 53.1616 82.7627 53.1616ZM94.7466 21.1692L101.724 16.5653L94.7466 11.9614V14.4887L90.8311 14.3799C87.9267 14.2992 85.4016 16.3587 84.8967 19.22C84.3132 21.6442 83.7024 24.0774 83.0643 26.5198C82.3201 29.4702 81.5891 32.1948 80.8714 34.6934H80.6322C79.8348 32.115 79.0639 29.643 78.3197 27.2773C77.602 24.8851 76.8843 22.3865 76.1666 19.7815C75.8742 18.6652 75.4091 17.9076 74.7711 17.5089C74.1598 17.0836 73.3624 16.8709 72.3789 16.8709C71.5814 16.8709 70.4916 17.2298 70.4916 17.2298C70.47 17.239 70.3607 17.2754 70.2476 17.3131C70.1238 17.3544 69.9954 17.3972 69.9725 17.4074L62.2605 21.0437C61.6496 21.3317 61.3519 22.0322 61.5685 22.6719L62.1498 24.3891C62.3602 25.0108 62.993 25.3857 63.6394 25.2718L70.17 24.1202C70.3814 24.7939 70.5994 25.4741 70.8239 26.1609C71.2758 27.5431 71.7409 28.912 72.2194 30.2677C72.7244 31.5967 73.2029 32.8593 73.6547 34.0554C74.1332 35.2516 74.5851 36.3414 75.0104 37.3249C75.4357 38.2818 75.7945 39.0659 76.0869 39.6773C76.3793 40.262 76.9242 40.7272 77.7216 41.0727C78.519 41.3917 79.4759 41.5512 80.5923 41.5512C81.5227 41.5512 82.3732 41.4316 83.1441 41.1924C83.9415 40.9531 84.5263 40.674 84.8984 40.3551C85.1908 39.9564 85.5762 39.252 86.0547 38.2419C86.5331 37.2052 87.0382 36.0224 87.5698 34.6934C88.128 33.3377 88.6729 31.9024 89.2045 30.3873C89.7627 28.8722 90.2544 27.4235 90.6797 26.0413C91.1316 24.6325 91.4905 23.3699 91.7563 22.2536C91.9249 21.6095 92.0096 20.9213 92.0714 20.4185C92.1168 20.0496 92.1499 19.7805 92.1948 19.7018C92.1948 19.7018 92.4208 19.2234 92.753 19.2234L94.7466 18.8387V21.1692Z" fill="#EAEAEA"/>
</svg>
