<svg width="106" height="40" viewBox="0 0 106 40" fill="none" xmlns="http://www.w3.org/2000/svg">
<path fill-rule="evenodd" clip-rule="evenodd" d="M18 40C27.9411 40 36 31.9411 36 22C36 12.0589 27.9411 4 18 4C8.05887 4 0 12.0589 0 22C0 31.9411 8.05887 40 18 40ZM26.1153 18.3354L30.8403 15.2177L26.1153 12.1V13.8115L23.4638 13.7378C21.497 13.6832 19.787 15.0778 19.4451 17.0154C19.05 18.657 18.6364 20.3048 18.2043 21.9587C17.7003 23.9567 17.2053 25.8017 16.7193 27.4937H16.5573C16.0173 25.7477 15.4953 24.0737 14.9913 22.4717C14.5053 20.8517 14.0193 19.1597 13.5333 17.3957C13.3353 16.6397 13.0203 16.1267 12.5883 15.8567C12.1743 15.5687 11.6343 15.4247 10.9683 15.4247C10.4283 15.4247 9.69029 15.6677 9.69029 15.6677C9.67566 15.6739 9.60164 15.6986 9.52504 15.7241C9.44123 15.7521 9.35426 15.781 9.33874 15.7879L4.11632 18.2504C3.70262 18.4454 3.50102 18.9198 3.64768 19.353L4.04133 20.5158C4.18386 20.9368 4.61237 21.1907 5.05009 21.1136L9.47249 20.3338C9.61564 20.79 9.76325 21.2506 9.91529 21.7157C10.2213 22.6517 10.5363 23.5787 10.8603 24.4967C11.2023 25.3967 11.5263 26.2517 11.8323 27.0617C12.1563 27.8717 12.4623 28.6097 12.7503 29.2757C13.0383 29.9237 13.2813 30.4547 13.4793 30.8687C13.6773 31.2647 14.0463 31.5797 14.5863 31.8137C15.1263 32.0297 15.7743 32.1377 16.5303 32.1377C17.1603 32.1377 17.7363 32.0567 18.2583 31.8947C18.7983 31.7327 19.1943 31.5437 19.4463 31.3277C19.6443 31.0577 19.9053 30.5807 20.2293 29.8967C20.5533 29.1947 20.8953 28.3937 21.2553 27.4937C21.6333 26.5757 22.0023 25.6037 22.3623 24.5777C22.7403 23.5517 23.0733 22.5707 23.3613 21.6347C23.6673 20.6807 23.9103 19.8257 24.0903 19.0697C24.2045 18.6336 24.2618 18.1675 24.3037 17.827C24.3344 17.5772 24.3568 17.395 24.3873 17.3417C24.3873 17.3417 24.5403 17.0177 24.7653 17.0177L26.1153 16.7572V18.3354Z" fill="#EAEAEA"/>
<path d="M43 17.5C42.7239 17.5 42.5 17.7239 42.5 18C42.5 18.2761 42.7239 18.5 43 18.5L43 17.5ZM67 18L62 15.1132L62 20.8868L67 18ZM43 18.5L62.5 18.5L62.5 17.5L43 17.5L43 18.5Z" fill="#7D7D7D"/>
<path d="M67 27.5C67.2761 27.5 67.5 27.7239 67.5 28C67.5 28.2761 67.2761 28.5 67 28.5L67 27.5ZM43 28L48 25.1132L48 30.8868L43 28ZM67 28.5L47.5 28.5L47.5 27.5L67 27.5L67 28.5Z" fill="#7D7D7D"/>
<g clip-path="url(#clip0_74_4604)">
<path d="M95.1595 0.0180158C95.083 -0.0674842 92.3267 0.0517658 89.9282 2.65502C87.5297 5.25602 87.8987 8.23952 87.9527 8.31602C88.0067 8.39252 91.3727 8.51177 93.5215 5.48552C95.6702 2.45927 95.236 0.105766 95.1595 0.0180158ZM102.616 26.4173C102.508 26.2013 97.3847 23.6408 97.8617 18.7178C98.3387 13.7925 101.63 12.4425 101.682 12.2963C101.734 12.15 100.339 10.5188 98.8607 9.69302C97.7753 9.11083 96.5741 8.77728 95.344 8.71652C95.101 8.70977 94.2572 8.50277 92.5225 8.97752C91.3795 9.29027 88.8032 10.3028 88.0945 10.3433C87.3835 10.3838 85.2685 9.16877 82.9937 8.84702C81.538 8.56577 79.9945 9.14177 78.8897 9.58502C77.7872 10.026 75.6902 11.2815 74.2232 14.6183C72.7562 17.9528 73.5235 23.2358 74.0725 24.8783C74.6215 26.5185 75.4787 29.2073 76.9367 31.1693C78.2327 33.3833 79.9517 34.92 80.6695 35.442C81.3872 35.964 83.4122 36.3105 84.8162 35.5928C85.9457 34.8998 87.9842 34.5015 88.7897 34.5308C89.593 34.56 91.177 34.8773 92.7992 35.7435C94.084 36.1868 95.299 36.0023 96.5162 35.5073C97.7335 35.01 99.4952 33.1245 101.552 29.3018C102.332 27.5243 102.688 26.5635 102.616 26.4173Z" fill="#EAEAEA"/>
<path d="M95.1595 0.0180158C95.083 -0.0674842 92.3267 0.0517658 89.9282 2.65502C87.5297 5.25602 87.8987 8.23952 87.9527 8.31602C88.0067 8.39252 91.3727 8.51177 93.5215 5.48552C95.6702 2.45927 95.236 0.105766 95.1595 0.0180158ZM102.616 26.4173C102.508 26.2013 97.3847 23.6408 97.8617 18.7178C98.3387 13.7925 101.63 12.4425 101.682 12.2963C101.734 12.15 100.339 10.5188 98.8607 9.69302C97.7753 9.11083 96.5741 8.77728 95.344 8.71652C95.101 8.70977 94.2572 8.50277 92.5225 8.97752C91.3795 9.29027 88.8032 10.3028 88.0945 10.3433C87.3835 10.3838 85.2685 9.16877 82.9937 8.84702C81.538 8.56577 79.9945 9.14177 78.8897 9.58502C77.7872 10.026 75.6902 11.2815 74.2232 14.6183C72.7562 17.9528 73.5235 23.2358 74.0725 24.8783C74.6215 26.5185 75.4787 29.2073 76.9367 31.1693C78.2327 33.3833 79.9517 34.92 80.6695 35.442C81.3872 35.964 83.4122 36.3105 84.8162 35.5928C85.9457 34.8998 87.9842 34.5015 88.7897 34.5308C89.593 34.56 91.177 34.8773 92.7992 35.7435C94.084 36.1868 95.299 36.0023 96.5162 35.5073C97.7335 35.01 99.4952 33.1245 101.552 29.3018C102.332 27.5243 102.688 26.5635 102.616 26.4173Z" fill="#EAEAEA"/>
</g>
<defs>
<clipPath id="clip0_74_4604">
<rect width="36" height="36" fill="white" transform="translate(70)"/>
</clipPath>
</defs>
</svg>
