<svg width="109" height="36" viewBox="0 0 109 36" fill="none" xmlns="http://www.w3.org/2000/svg">
<path fill-rule="evenodd" clip-rule="evenodd" d="M18 36C27.9411 36 36 27.9411 36 18C36 8.05887 27.9411 0 18 0C8.05887 0 0 8.05887 0 18C0 27.9411 8.05887 36 18 36ZM26.1153 14.3354L30.8403 11.2177L26.1153 8.10001V9.81145L23.4638 9.7378C21.497 9.68317 19.787 11.0778 19.4451 13.0154C19.05 14.657 18.6364 16.3048 18.2043 17.9587C17.7003 19.9567 17.2053 21.8017 16.7193 23.4937H16.5573C16.0173 21.7477 15.4953 20.0737 14.9913 18.4717C14.5053 16.8517 14.0193 15.1597 13.5333 13.3957C13.3353 12.6397 13.0203 12.1267 12.5883 11.8567C12.1743 11.5687 11.6343 11.4247 10.9683 11.4247C10.4283 11.4247 9.69029 11.6677 9.69029 11.6677C9.67566 11.6739 9.60164 11.6986 9.52504 11.7241C9.44123 11.7521 9.35426 11.781 9.33874 11.7879L4.11632 14.2504C3.70262 14.4454 3.50102 14.9198 3.64768 15.353L4.04133 16.5158C4.18386 16.9368 4.61237 17.1907 5.05009 17.1136L9.47249 16.3338C9.61564 16.79 9.76325 17.2506 9.91529 17.7157C10.2213 18.6517 10.5363 19.5787 10.8603 20.4967C11.2023 21.3967 11.5263 22.2517 11.8323 23.0617C12.1563 23.8717 12.4623 24.6097 12.7503 25.2757C13.0383 25.9237 13.2813 26.4547 13.4793 26.8687C13.6773 27.2647 14.0463 27.5797 14.5863 27.8137C15.1263 28.0297 15.7743 28.1377 16.5303 28.1377C17.1603 28.1377 17.7363 28.0567 18.2583 27.8947C18.7983 27.7327 19.1943 27.5437 19.4463 27.3277C19.6443 27.0577 19.9053 26.5807 20.2293 25.8967C20.5533 25.1947 20.8953 24.3937 21.2553 23.4937C21.6333 22.5757 22.0023 21.6037 22.3623 20.5777C22.7403 19.5517 23.0733 18.5707 23.3613 17.6347C23.6673 16.6807 23.9103 15.8257 24.0903 15.0697C24.2045 14.6336 24.2618 14.1675 24.3037 13.827C24.3344 13.5772 24.3568 13.395 24.3873 13.3417C24.3873 13.3417 24.5403 13.0177 24.7653 13.0177L26.1153 12.7572V14.3354Z" fill="#EAEAEA"/>
<path d="M43 13.5C42.7239 13.5 42.5 13.7239 42.5 14C42.5 14.2761 42.7239 14.5 43 14.5L43 13.5ZM67 14L62 11.1132L62 16.8868L67 14ZM43 14.5L62.5 14.5L62.5 13.5L43 13.5L43 14.5Z" fill="#7D7D7D"/>
<path d="M67 23.5C67.2761 23.5 67.5 23.7239 67.5 24C67.5 24.2761 67.2761 24.5 67 24.5L67 23.5ZM43 24L48 21.1132L48 26.8868L43 24ZM67 24.5L47.5 24.5L47.5 23.5L67 23.5L67 24.5Z" fill="#7D7D7D"/>
<g clip-path="url(#clip0_74_4583)">
<path d="M108.966 19.1249H91.4657L79.0907 31.4999C81.6169 33.7286 84.7178 35.2037 88.0408 35.7573C91.3638 36.311 94.7755 35.921 97.8878 34.6317C101 33.3424 103.688 31.2056 105.646 28.4643C107.604 25.723 108.754 22.4872 108.964 19.1249H108.966ZM77.4999 29.9069C75.2712 27.3807 73.7962 24.2798 73.2426 20.9568C72.6889 17.6338 73.0789 14.2221 74.3682 11.1098C75.6575 7.99749 77.7943 5.30943 80.5356 3.35137C83.2769 1.39331 86.5127 0.243841 89.8749 0.0336914V17.5342L77.4999 29.9092V29.9069ZM92.1249 0.0336914V16.8749H108.966C108.692 12.4982 106.83 8.37208 103.729 5.27119C100.628 2.17031 96.5017 0.307926 92.1249 0.0336914Z" fill="#EAEAEA"/>
</g>
<defs>
<clipPath id="clip0_74_4583">
<rect width="36" height="36" fill="white" transform="translate(73)"/>
</clipPath>
</defs>
</svg>
